<?xml version="1.0" encoding="utf-8"?>
<!-- Generator: Adobe Illustrator 27.0.0, SVG Export Plug-In . SVG Version: 6.00 Build 0)  -->
<svg version="1.1" id="Layer_1" xmlns="http://www.w3.org/2000/svg" xmlns:xlink="http://www.w3.org/1999/xlink" x="0px" y="0px"
	 viewBox="0 0 512 512" style="enable-background:new 0 0 512 512;" xml:space="preserve">
<style type="text/css">
	.st0{fill:url(#SVGID_1_);}
	.st1{fill:#FADAB2;}
	.st2{fill:url(#SVGID_00000129904264977196610100000008372410683155712186_);}
	.st3{fill:#2E4206;}
	.st4{fill:#E2EBD1;}
	.st5{fill:url(#SVGID_00000021804564218936602530000012512848997492287390_);}
	.st6{fill:url(#SVGID_00000176025597058624986570000014965162999702267553_);}
	.st7{fill:#D6675C;}
	.st8{fill:url(#SVGID_00000080172579141802908790000005156006722272235682_);}
	.st9{fill:#EE4230;}
	.st10{fill:url(#SVGID_00000013900374739063862610000006313328711829004176_);}
	.st11{fill:url(#SVGID_00000077292948196237231700000011554762959185452952_);}
	.st12{fill:url(#SVGID_00000112616134748106492090000015417940469192780204_);}
	.st13{fill:url(#SVGID_00000123419365183710999490000015968419982613015169_);}
	.st14{fill:#873A00;}
	.st15{fill:#F2CC9D;}
	.st16{fill:url(#SVGID_00000150098350874077460500000017876673784557115304_);}
	.st17{fill:url(#SVGID_00000021829855234353946780000008773437558697115021_);}
	.st18{fill:url(#SVGID_00000067941101697669239560000006600570507668706477_);}
	.st19{fill:url(#SVGID_00000081606604340096875900000014955264431897781126_);}
	.st20{fill:url(#SVGID_00000108279971133312289530000004589064885791158674_);}
	.st21{fill:#87552E;}
</style>
<g>
	<linearGradient id="SVGID_1_" gradientUnits="userSpaceOnUse" x1="255.9991" y1="444.6357" x2="255.9991" y2="355.5669">
		<stop  offset="0" style="stop-color:#C46D1D"/>
		<stop  offset="4.885048e-02" style="stop-color:#C77120"/>
		<stop  offset="0.6824" style="stop-color:#EC9F48"/>
		<stop  offset="1" style="stop-color:#FAB157"/>
	</linearGradient>
	<path class="st0" d="M256,400.1c0,0-155.8,0-217.4-44.5c0,0,0.5,31.6,15.6,47.4c18.2,18.9,90.1,41.7,201.8,41.7
		c111.7,0,183.7-22.8,201.9-41.7c15.1-15.7,15.6-47.4,15.6-47.4C411.8,400.1,256,400.1,256,400.1z"/>
	<path class="st1" d="M457.8,390.5c-18.2,18.9-90.1,41.7-201.9,41.7c-111.7,0-183.7-22.8-201.8-41.7c-8.7-9.1-12.6-23.5-14.2-34.1
		c-0.4-0.3-0.9-0.6-1.3-0.9c0,0,0.5,31.6,15.6,47.4c18.2,18.9,90.1,41.7,201.8,41.7c111.7,0,183.7-22.8,201.9-41.7
		c15.1-15.7,15.6-47.4,15.6-47.4c-0.4,0.3-0.9,0.6-1.3,0.9C470.4,367,466.6,381.4,457.8,390.5z"/>
	
		<linearGradient id="SVGID_00000083778720757965928020000003591637999771769992_" gradientUnits="userSpaceOnUse" x1="105.6675" y1="456.5993" x2="118.7206" y2="398.1988" gradientTransform="matrix(0.9992 -4.070000e-02 3.600000e-02 0.8845 16.5426 8.0747)">
		<stop  offset="0" style="stop-color:#A2CF48"/>
		<stop  offset="2.317560e-02" style="stop-color:#A0CC46"/>
		<stop  offset="0.4674" style="stop-color:#759D27"/>
		<stop  offset="0.8072" style="stop-color:#5B7F13"/>
		<stop  offset="1" style="stop-color:#51740C"/>
	</linearGradient>
	<path style="fill:url(#SVGID_00000083778720757965928020000003591637999771769992_);" d="M33.4,316.7c0,0-13.5,15.8-16.9,20.6
		c-5.3,7.5-10.6,26.9,7.1,30.5c11,2.3,15.7-6.1,18.6,6.8c2.8,12,10.3,9.5,19.3,5.7c6.7-2.9,11.7-3.5,15,1.4c4.7,7.1,0.9,17.6,13,14
		c12.1-3.5,20.1-10.5,26.7-0.7c6.6,9.8,6.7,2.3,18.9-0.1c12.1-2.4,18.8,15.4,28.4,15.8c9.7,0.3,19.1-6.6,22.7-8.9
		c3.6-2.3,14.6,8.9,24.2-0.9c5.6-5.8,7.8,8.4,16.3,8.7c8.5,0.4,10.4-8.4,17.1-8.6c6.7-0.3,12.1,6,23.1,1.2
		c10.9-4.8,20.3-32.2,18.7-35.7C283.9,363,75.2,357.3,33.4,316.7z"/>
	<path class="st3" d="M285.5,366.5c-1.2,8.1-9.3,28.6-18.6,32.7c-10.9,4.8-16.4-1.5-23.1-1.2c-6.7,0.3-8.5,9-17.1,8.7
		c-8.5-0.4-10.7-14.6-16.3-8.7c-9.6,9.8-20.5-1.4-24.2,0.9c-3.6,2.3-13.1,9.2-22.7,8.9c-9.6-0.3-16.3-18.2-28.4-15.7
		c-12.2,2.4-12.3,9.9-18.9,0.1c-6.6-9.8-14.6-2.9-26.7,0.7c-12.1,3.5-8.4-7-13-14.1c-3.3-5-8.3-4.3-15-1.4c-9,3.9-16.5,6.4-19.3-5.7
		c-3-13-7.6-4.5-18.6-6.8c-8.4-1.8-11.5-7.1-12-12.9c-0.4,7,2.2,13.9,12,16c11,2.3,15.7-6.1,18.6,6.8c2.8,12,10.3,9.5,19.3,5.7
		c6.7-2.9,11.7-3.5,15,1.4c4.7,7.1,0.9,17.6,13,14c12.1-3.5,20.1-10.5,26.7-0.7c6.6,9.8,6.7,2.3,18.9-0.1
		c12.1-2.4,18.8,15.4,28.4,15.8c9.7,0.3,19.1-6.6,22.7-8.9c3.6-2.3,14.6,8.9,24.2-0.9c5.6-5.8,7.8,8.4,16.3,8.7
		c8.5,0.4,10.4-8.4,17.1-8.6c6.7-0.3,12.1,6,23.1,1.2C277.8,397.5,287.1,370.1,285.5,366.5L285.5,366.5z"/>
	<path class="st4" d="M33.4,316.7c0,0-0.8,1-2.1,2.5c1.2,7.2,3.6,15.9,7.3,20.2c20.7,24.3,105.7,42.1,217.4,42.1
		c8.9,0,17.5-0.2,26.1-0.5c2.7-6.8,4.2-12.9,3.5-14.5C283.9,363,75.2,357.3,33.4,316.7z"/>
	
		<linearGradient id="SVGID_00000081642377373569748080000000414399592300739512_" gradientUnits="userSpaceOnUse" x1="-227.3895" y1="411.0014" x2="-206.1892" y2="318.684" gradientTransform="matrix(-0.9992 -4.000000e-02 -4.000000e-02 0.9992 126.5681 1.7278)">
		<stop  offset="0" style="stop-color:#A2CF48"/>
		<stop  offset="2.317560e-02" style="stop-color:#A0CC46"/>
		<stop  offset="0.4674" style="stop-color:#759D27"/>
		<stop  offset="0.8072" style="stop-color:#5B7F13"/>
		<stop  offset="1" style="stop-color:#51740C"/>
	</linearGradient>
	<path style="fill:url(#SVGID_00000081642377373569748080000000414399592300739512_);" d="M478.7,323.8c0,0,23.6,23.9,23.4,30.5
		c-0.3,6.6-9.5,27.8-19.9,20.8c-10.5-7-14.3-7.7-18.5,6.9c-3.4,12-17.7,7.4-24.8-1c-7.1-8.4-14.1-5-19,4.8
		c-4.3,8.6-5.6,19.2-19.1,15.2c-13.5-4-22.4-12-29.8-0.7c-7.4,11.3-27.2-10.2-37.7-2.1c-9.7,7.4-14.3,17.2-21,14.2
		c-9.8-4.4-8.6-8.6-19-12.2c-4.6-1.6-14.3,16.3-28.5,6.2c-5.5-3.9-5.8-14.5-14.8-15.7c-9.1-1.2-20.9,5.5-30.4,5.9
		c-9.6,0.4-11.6-9.6-19.1-9.9c-7.5-0.3-22.1,8.7-38.9,1.5c-12.3-5.3-11.2-18.2-9.4-22.2C153.9,361.9,447.3,358,478.7,323.8z"/>
	<path class="st3" d="M482.1,370.5c-10.5-7.1-14.3-7.7-18.5,6.9c-3.4,12-17.7,7.4-24.8-1c-7.1-8.4-14.1-5-19,4.8
		c-4.3,8.6-5.6,19.2-19.1,15.2c-13.5-4-22.4-12-29.8-0.7c-7.4,11.3-27.2-10.2-37.7-2.1c-9.7,7.4-14.3,17.2-21,14.2
		c-9.8-4.4-8.6-8.6-19-12.2c-4.6-1.6-14.3,16.3-28.5,6.2c-5.5-3.9-5.8-14.5-14.8-15.7c-9.1-1.2-20.9,5.5-30.4,5.9
		c-9.6,0.4-11.6-9.6-19.1-9.9c-7.5-0.3-22.1,8.7-38.9,1.5c-7.2-3.1-9.7-8.8-10.3-13.8c-0.7,5.6,0.7,14.2,10.3,18.4
		c16.8,7.3,31.4-1.8,38.9-1.5c7.4,0.3,9.5,10.3,19.1,9.9c9.5-0.5,21.3-7.1,30.4-5.9c9.1,1.2,9.4,11.8,14.8,15.7
		c14.3,10.1,24-7.8,28.5-6.2c10.4,3.6,9.2,7.8,19,12.2c6.7,3,11.4-6.8,21-14.2c10.5-8.1,30.3,13.4,37.7,2.1
		c7.4-11.3,16.3-3.3,29.8,0.7c13.5,4,14.8-6.6,19.1-15.2c4.9-9.8,11.9-13.1,19-4.8c7.1,8.4,21.4,13,24.8,1c4.2-14.6,8-14,18.5-6.9
		c10.5,7,19.7-14.1,19.9-20.8c0-0.4-0.3-1.1-0.5-1.7C499.6,361,491.3,376.7,482.1,370.5z"/>
	<path class="st4" d="M473.4,337c2.9-3,4.9-7.3,6.2-12.3c-0.5-0.5-0.9-0.9-0.9-0.9c-31.4,34.2-324.8,38.1-326.6,42.1
		c-0.7,1.6-1,6.4-0.8,9.7c30.9,4.8,66.2,5.9,104.7,5.9C367.7,381.5,455.2,355.9,473.4,337z"/>
	
		<linearGradient id="SVGID_00000132046202977842426630000001989315160841468579_" gradientUnits="userSpaceOnUse" x1="255.9974" y1="378.0277" x2="255.9974" y2="321.9785">
		<stop  offset="0" style="stop-color:#330600"/>
		<stop  offset="1" style="stop-color:#6B1C0A"/>
	</linearGradient>
	<path style="fill:url(#SVGID_00000132046202977842426630000001989315160841468579_);" d="M256,313.8c0,0-161-1.1-222.6-45.6
		c0,0-9.9,49.5,5.2,65.3C56.7,352.4,144.3,378,256,378c111.7,0,199.3-25.6,217.4-44.5c15.1-15.7,5.2-65.3,5.2-65.3
		C417,312.7,256,313.8,256,313.8z"/>
	<path class="st7" d="M473.4,327.1C455.2,346,367.7,371.6,256,371.6c-111.7,0-199.2-25.6-217.4-44.5c-6-6.3-8-17.8-8.3-29.5
		c-0.3,13.7,1.2,28.6,8.3,35.9C56.7,352.4,144.3,378,256,378c111.7,0,199.3-25.6,217.4-44.5c7.1-7.4,8.6-22.2,8.3-35.9
		C481.4,309.2,479.4,320.8,473.4,327.1z"/>
	
		<linearGradient id="SVGID_00000007393878444947367740000005799818809752230580_" gradientUnits="userSpaceOnUse" x1="291.09" y1="365.2552" x2="310.6792" y2="277.6115" gradientTransform="matrix(0.974 -0.2268 0.2268 0.974 -2.968 62.0884)">
		<stop  offset="0" style="stop-color:#A80909"/>
		<stop  offset="0.8611" style="stop-color:#E63B2B"/>
		<stop  offset="1" style="stop-color:#F04431"/>
	</linearGradient>
	<path style="fill:url(#SVGID_00000007393878444947367740000005799818809752230580_);" d="M455.4,267.6c7.4,31.9-28,67.5-79.1,79.4
		s-98.6-4.3-106.1-36.3c-7.4-31.9,28-67.5,79.2-79.4C400.5,219.4,448,235.7,455.4,267.6z"/>
	<path class="st9" d="M456,271.4c0.5,29.7-33.1,60.5-80,71.4c-51.2,11.9-98.6-4.3-106.1-36.3c-0.3-1.3-0.4-2.5-0.6-3.8
		c0,2.7,0.2,5.3,0.9,8c7.4,31.9,54.9,48.2,106.1,36.3C425.4,335.5,459.9,302.3,456,271.4z"/>
	
		<linearGradient id="SVGID_00000170252665926511952250000010104697305427064742_" gradientUnits="userSpaceOnUse" x1="294.1528" y1="345.9763" x2="309.4697" y2="277.4472" gradientTransform="matrix(0.974 -0.2268 0.2268 0.974 -2.968 62.0884)">
		<stop  offset="0" style="stop-color:#F04431"/>
		<stop  offset="0.1389" style="stop-color:#E63B2B"/>
		<stop  offset="1" style="stop-color:#A80909"/>
	</linearGradient>
	<path style="fill:url(#SVGID_00000170252665926511952250000010104697305427064742_);" d="M434,266.5c5.8,25-21.9,52.7-61.9,62.1
		c-40,9.3-77.1-3.4-82.9-28.3c-5.8-25,21.9-52.7,61.9-62.1C391,228.8,428.2,241.5,434,266.5z"/>
	
		<linearGradient id="SVGID_00000167396596373068406410000008383743861962760075_" gradientUnits="userSpaceOnUse" x1="146.7473" y1="377.1952" x2="164.1308" y2="299.42" gradientTransform="matrix(0.9997 2.250000e-02 -2.030000e-02 0.9022 -1.3066 4.9355)">
		<stop  offset="0" style="stop-color:#A80909"/>
		<stop  offset="0.8611" style="stop-color:#E63B2B"/>
		<stop  offset="1" style="stop-color:#F04431"/>
	</linearGradient>
	<path style="fill:url(#SVGID_00000167396596373068406410000008383743861962760075_);" d="M235.3,301.7
		c-0.6,26.3-38.8,46.7-85.4,45.6c-46.6-1-83.9-23.2-83.3-49.4c0.6-26.2,38.8-46.7,85.4-45.6C198.6,253.4,235.9,275.5,235.3,301.7z"
		/>
	<path class="st9" d="M149.9,343.2c-45.1-1-81.3-21.7-83.1-46.8c0,0.5-0.2,1-0.2,1.5c-0.6,26.2,36.7,48.4,83.3,49.4
		c46.6,1.1,84.8-19.4,85.4-45.6c0-0.9-0.1-1.7-0.2-2.6C233.1,324.6,195.6,344.3,149.9,343.2z"/>
	
		<linearGradient id="SVGID_00000067934846949586533330000000972225081564017843_" gradientUnits="userSpaceOnUse" x1="149.395" y1="364.162" x2="162.9896" y2="303.3388" gradientTransform="matrix(0.9997 2.250000e-02 -2.030000e-02 0.9022 -1.3066 4.9355)">
		<stop  offset="0" style="stop-color:#F04431"/>
		<stop  offset="0.1389" style="stop-color:#E63B2B"/>
		<stop  offset="1" style="stop-color:#A80909"/>
	</linearGradient>
	<path style="fill:url(#SVGID_00000067934846949586533330000000972225081564017843_);" d="M217,300.2c-0.5,20.5-30.4,36.5-66.8,35.7
		c-36.4-0.8-65.6-18.1-65.1-38.6c0.5-20.5,30.4-36.5,66.8-35.7C188.3,262.4,217.4,279.7,217,300.2z"/>
	
		<linearGradient id="SVGID_00000097502535923361973640000001599525038723063447_" gradientUnits="userSpaceOnUse" x1="283.9526" y1="351.3335" x2="283.9361" y2="278.0091">
		<stop  offset="0" style="stop-color:#D3680D"/>
		<stop  offset="0.1165" style="stop-color:#D97B17"/>
		<stop  offset="0.3661" style="stop-color:#E49D28"/>
		<stop  offset="0.6033" style="stop-color:#ECB535"/>
		<stop  offset="0.8207" style="stop-color:#F1C43C"/>
		<stop  offset="1" style="stop-color:#F3C93F"/>
	</linearGradient>
	<path style="fill:url(#SVGID_00000097502535923361973640000001599525038723063447_);" d="M179.7,291.2c0,0,14,23.4,16.6,28.7
		c10,20.1,23.8,32.7,44.3,23.3c10.2-4.7,33.2-9.8,48.7-10.6c15.5-0.8,36.9,4.3,48.5-3.4c11.7-7.8,27.7-4.2,33.3-5.3
		c5.6-1.2,30.3-2.4,7.6-38.8C356.1,248.7,179.3,283.4,179.7,291.2z"/>
	<path class="st14" d="M372.9,316.1c-5.6,1.2-21.6-2.4-33.3,5.3c-11.7,7.8-33.1,2.6-48.6,3.4c-15.5,0.9-38.5,5.9-48.7,10.6
		c-20.5,9.4-34.3-3.2-44.3-23.3c-2.3-4.6-12.8-22.3-15.8-27.3c-1.6,0.8-2.6,1.5-2.6,2c0,0,14,23.4,16.6,28.7
		c10,20.1,23.8,32.7,44.3,23.3c10.2-4.7,33.2-9.8,48.7-10.6c15.5-0.9,36.9,4.3,48.5-3.5c11.7-7.8,27.7-4.1,33.3-5.3
		c3.4-0.7,13.6-1.5,16.3-9.9C383.5,314.8,375.8,315.5,372.9,316.1z"/>
	<path class="st15" d="M371.2,319.5c-5.6,1.2-21.6-2.5-33.3,5.3c-11.7,7.8-33.1,2.6-48.5,3.5c-15.5,0.9-38.5,5.9-48.7,10.6
		c-20.5,9.4-34.3-3.2-44.3-23.3c-2.1-4.2-11.3-19.8-15-26c-1,0.6-1.7,1.1-1.6,1.6c0,0,14,23.4,16.6,28.7
		c10,20.1,23.8,32.7,44.3,23.3c10.2-4.7,33.2-9.8,48.7-10.6c15.5-0.8,36.9,4.3,48.5-3.4c11.7-7.8,27.7-4.2,33.3-5.3
		c4.1-0.9,18.5-1.8,16.8-16.6C386.7,317.9,374.9,318.8,371.2,319.5z"/>
	<g>
		
			<linearGradient id="SVGID_00000116211954993400270870000007469234885446247342_" gradientUnits="userSpaceOnUse" x1="92.3326" y1="315.4757" x2="101.232" y2="272.5159">
			<stop  offset="0" style="stop-color:#D3680D"/>
			<stop  offset="0.1165" style="stop-color:#D97B17"/>
			<stop  offset="0.3661" style="stop-color:#E49D28"/>
			<stop  offset="0.6033" style="stop-color:#ECB535"/>
			<stop  offset="0.8207" style="stop-color:#F1C43C"/>
			<stop  offset="1" style="stop-color:#F3C93F"/>
		</linearGradient>
		<path style="fill:url(#SVGID_00000116211954993400270870000007469234885446247342_);" d="M53.5,237.4c0,0-33.8,43.3-41.5,53.5
			c-7.7,10.2,31,8.9,56.7,15.6c25.7,6.7,82.9,17.5,98.6,19.5c15.8,2,20.8-75.4,20.8-75.4L53.5,237.4z"/>
		<path class="st14" d="M68.7,303.1c25.7,6.7,82.9,17.5,98.6,19.5c13.8,1.7,19.4-57.3,20.5-72.1l-0.1,0c-1.4,16.8-7,72.1-20.4,70.4
			c-15.8-2-72.9-12.8-98.6-19.5c-20.9-5.4-50.2-5.6-56.4-11c-0.1,0.1-0.2,0.2-0.3,0.4c-0.2,0.2-0.2,0.4-0.3,0.6
			C16.1,297.5,47,297.5,68.7,303.1z"/>
		<path class="st15" d="M167.3,322.6c-15.8-2-72.9-12.8-98.6-19.5c-21.7-5.6-52.5-5.6-57-11.7c-5.5,9.5,31.9,8.5,57,15
			c25.7,6.7,82.9,17.5,98.6,19.5c15.8,2,20.8-75.4,20.8-75.4l-0.2,0C186.7,265.4,181.1,324.4,167.3,322.6z"/>
	</g>
	
		<linearGradient id="SVGID_00000027599127504793225820000017403090841450768542_" gradientUnits="userSpaceOnUse" x1="118.1306" y1="330.3353" x2="138.1121" y2="281.2422" gradientTransform="matrix(-0.9958 9.140000e-02 9.140000e-02 0.9958 549.92 -25.902)">
		<stop  offset="0" style="stop-color:#D3680D"/>
		<stop  offset="0.1165" style="stop-color:#D97B17"/>
		<stop  offset="0.3661" style="stop-color:#E49D28"/>
		<stop  offset="0.6033" style="stop-color:#ECB535"/>
		<stop  offset="0.8207" style="stop-color:#F1C43C"/>
		<stop  offset="1" style="stop-color:#F3C93F"/>
	</linearGradient>
	<path style="fill:url(#SVGID_00000027599127504793225820000017403090841450768542_);" d="M473,232.1l26.9,35.8
		c6.4,12.4-14.3,20.9-33.4,28.1c-19.1,7.2-34.7,15.5-49.6,13.2c-12-1.9-47.2-56.7-47.2-56.7L473,232.1z"/>
	<path class="st14" d="M416.7,307.1c15,2.3,30.5-6,49.6-13.2c16.7-6.3,34.4-13.6,34.3-23.7c0-0.2-0.1-0.3-0.2-0.5
		c-2.2,9-18.6,15.7-34.2,21.6c-19.1,7.2-34.7,15.5-49.6,13.2c-10-1.6-36.1-39.8-44.5-52.5l-1.5,0.3
		C376.9,261.7,406,305.5,416.7,307.1z"/>
	<path class="st15" d="M466.4,293.9c-19.1,7.2-34.7,15.5-49.6,13.2c-10.8-1.7-39.9-45.5-46-54.8l-1.2,0.2c0,0,35.1,54.8,47.2,56.7
		c15,2.3,30.5-6,49.6-13.2c17.3-6.5,35.7-14.1,34.5-24.6C499.7,280.9,482.5,287.9,466.4,293.9z"/>
	
		<linearGradient id="SVGID_00000029025633901471753450000000589489449344057742_" gradientUnits="userSpaceOnUse" x1="-282.9166" y1="305.5719" x2="-265.2945" y2="257.7078" gradientTransform="matrix(-1 0 0 1 106.1299 0)">
		<stop  offset="0" style="stop-color:#A2CF48"/>
		<stop  offset="2.317560e-02" style="stop-color:#A0CC46"/>
		<stop  offset="0.4674" style="stop-color:#759D27"/>
		<stop  offset="0.8072" style="stop-color:#5B7F13"/>
		<stop  offset="1" style="stop-color:#51740C"/>
	</linearGradient>
	<path style="fill:url(#SVGID_00000029025633901471753450000000589489449344057742_);" d="M478.9,207.1c0,0,25.7,14.2,29.4,19.7
		c5.8,8.6,6.5,31.7-10.2,27.8c-11.5-2.7-16.6-6.5-19.1,8.9c-2.4,14.3-10.3,11.7-19.9,7.6c-7.1-3.1-12.4-3.6-15.6,2.4
		c-4.6,8.5-0.2,20.7-13,17.2c-12.8-3.6-21.4-11.4-27.9,0.5c-6.5,11.9-6.9,3-19.7,0.8c-12.8-2.3-18.9,19.1-29,19.9
		c-10,0.8-20.2-6.8-24.1-9.4c-3.9-2.6-14.8,11.2-25.2,0c-6.1-6.6-7.8,10.2-16.7,11.1c-8.9,0.8-11.2-9.4-18.2-9.4
		c-7,0-12.4,7.7-24,2.5c-11.6-5.1-14.5-31.1-13-35.3C234.4,267.2,437,256.9,478.9,207.1z"/>
	<path class="st3" d="M498,252.3c-11.5-2.7-16.6-6.5-19.1,8.9c-2.4,14.3-10.3,11.7-19.9,7.6c-7.1-3.1-12.4-3.6-15.6,2.4
		c-4.6,8.5-0.2,20.7-13,17.2c-12.8-3.6-21.4-11.4-27.9,0.5c-6.5,11.9-6.9,3-19.7,0.8c-12.8-2.3-18.9,19.1-29,19.9
		c-10,0.8-20.2-6.8-24.1-9.4c-3.9-2.6-14.8,11.2-25.2,0.1c-6.1-6.6-7.8,10.2-16.7,11.1c-8.9,0.9-11.2-9.4-18.2-9.4
		c-7,0-12.4,7.7-24,2.6c-9.4-4.2-13.1-22-13.3-30.8c-0.5,7.5,2.9,28.6,13.3,33.2c11.6,5.1,17-2.5,24-2.5c7,0,9.3,10.2,18.2,9.4
		c8.9-0.9,10.5-17.7,16.7-11.1c10.4,11.1,21.3-2.6,25.2,0c3.9,2.5,14,10.2,24.1,9.4c10-0.8,16.2-22.2,29-19.9
		c12.8,2.3,13.2,11.1,19.7-0.8c6.5-11.9,15.1-4.1,27.9-0.5c12.8,3.6,8.4-8.6,13-17.2c3.2-6,8.4-5.5,15.6-2.4
		c9.6,4.1,17.5,6.7,19.9-7.6c2.6-15.4,7.6-11.6,19.1-8.9c10.8,2.5,14.3-6.2,13.9-14.9C511.6,247.6,507.8,254.6,498,252.3z"/>
	<path class="st4" d="M232.9,271.4c-0.7,2-0.4,8.9,1.3,16.1c8.1,0.2,15.5,0.2,21.8,0.2c57.9,0,205-4.9,221.7-67.2
		c0.9-3.6,1.1-7.9,0.6-12.8C435.1,257,234.4,267.2,232.9,271.4z"/>
	
		<linearGradient id="SVGID_00000102538097882742951870000013957047709927473567_" gradientUnits="userSpaceOnUse" x1="149.7554" y1="311.6643" x2="168.0976" y2="231.7926">
		<stop  offset="0" style="stop-color:#A2CF48"/>
		<stop  offset="2.317560e-02" style="stop-color:#A0CC46"/>
		<stop  offset="0.4674" style="stop-color:#759D27"/>
		<stop  offset="0.8072" style="stop-color:#5B7F13"/>
		<stop  offset="1" style="stop-color:#51740C"/>
	</linearGradient>
	<path style="fill:url(#SVGID_00000102538097882742951870000013957047709927473567_);" d="M38.6,207.1c0,0-38.6,26.8-38.6,33.7
		c0,6.9,8.7,29.4,19.9,22.5c11.2-6.9,21.6-7.6,19,8c-2.6,15.6,18.1,8.4,25.9,0c7.8-8.4,28.5-9.7,25.9,0c-2.6,9.7-1.3,26,13,22.4
		c14.3-3.6,23.9-11.5,31.1,0.5c7.2,12.1,13,1.8,27.2-0.5c14.3-2.3,23.8-6.3,25.5,6.3c1.7,12.6,8.5,13.4,19.7,14.2
		c11.2,0.8,4.5-8.6,8.9-11.2c4.3-2.6,3.6,9.5,10.4,11.2c6.8,1.7,6.9-22.4,16.4-23.3c9.5-0.9,8.6,10.4,18.6,11.2
		c9.9,0.9,12.5-9.5,20.3-9.5c7.8,0,13.8,7.8,26.8,2.6c13-5.2,15.6-13.8,13.8-18.2C320.7,272.8,85.3,257.6,38.6,207.1z"/>
	<path class="st4" d="M321.2,285.5c1.8-3.2,2-6.3,1.2-8.3c-1.7-4.3-237.1-19.5-283.8-70c0,0-2,1.4-5,3.6c-0.2,3.7,0,7.1,0.8,9.9
		c5.4,20.1,24.3,34.2,49.3,44.1c2.6,0.2,4.7,0.9,6,2.3c52.7,18.8,128.5,20.9,166.4,20.9C272.3,287.8,295.7,287.4,321.2,285.5z"/>
	<g>
		<path class="st3" d="M19.9,261c-10.4,6.4-18.6-12.4-19.8-20.7c0,0.2-0.1,0.4-0.1,0.5c0,6.9,8.7,29.4,19.9,22.5
			c9.6-5.9,18.5-7.2,19.3,2.2C39.6,253.7,30.2,254.7,19.9,261z"/>
		<path class="st3" d="M308.6,293c-13,5.2-19-2.6-26.8-2.6c-7.8,0-10.4,10.4-20.3,9.5c-9.9-0.9-9.1-12.1-18.6-11.2
			c-9.5,0.9-9.6,25-16.4,23.3c-6.8-1.7-6-13.8-10.4-11.2c-4.3,2.6,2.4,12-8.9,11.2c-11.2-0.8-18-1.6-19.7-14.2
			c-1.7-12.6-11.2-8.6-25.5-6.3c-14.3,2.3-20,12.6-27.2,0.5c-7.2-12.1-16.9-4.1-31.1-0.5c-10.2,2.6-13.7-5-14-13.1
			c-0.4,8.9,2.8,18.2,14,15.4c14.3-3.6,23.9-11.5,31.1,0.5c7.2,12.1,13,1.8,27.2-0.5c14.3-2.3,23.8-6.3,25.5,6.3
			c1.7,12.6,8.5,13.4,19.7,14.2c11.2,0.8,4.5-8.6,8.9-11.2c4.3-2.6,3.6,9.5,10.4,11.2c6.8,1.7,6.9-22.4,16.4-23.3
			c9.5-0.9,8.6,10.4,18.6,11.2c9.9,0.9,12.5-9.5,20.3-9.5c7.8,0,13.8,7.8,26.8,2.6c11.5-4.6,14.8-11.9,14.2-16.5
			C322.2,283.3,318.3,289.1,308.6,293z"/>
		<path class="st3" d="M90.8,269.1c2.6-9.7-18.2-8.4-25.9,0c-7.4,8-26.2,14.6-25.9,2c0,0.1,0,0.2,0,0.3c-2.6,15.6,18.1,8.4,25.9,0
			c7.1-7.7,24.9-9.3,25.9-2.1C90.7,269.2,90.7,269.1,90.8,269.1z"/>
	</g>
	
		<linearGradient id="SVGID_00000132780380957207697960000005719005672673254293_" gradientUnits="userSpaceOnUse" x1="255.9947" y1="283.3414" x2="255.9947" y2="59.3073">
		<stop  offset="0" style="stop-color:#C46D1D"/>
		<stop  offset="4.885048e-02" style="stop-color:#C77120"/>
		<stop  offset="0.6824" style="stop-color:#EC9F48"/>
		<stop  offset="1" style="stop-color:#FAB157"/>
	</linearGradient>
	<path style="fill:url(#SVGID_00000132780380957207697960000005719005672673254293_);" d="M256,59.3
		C93.4,61.2,24.6,179.5,34.3,216.1C51,278.5,198.1,283.3,256,283.3s205-4.9,221.7-67.2C487.4,179.5,418.6,61.2,256,59.3z"/>
	<path class="st21" d="M256,72.3C400.8,74,471.2,168,478,214.4c7.3-38.4-61.8-153.2-222-155.1C95.7,61.2,26.6,176.1,34,214.5
		C40.7,168.1,111.1,74,256,72.3z"/>
	<path class="st1" d="M477.7,203.7C461,266.1,313.9,270.9,256,270.9s-205-4.9-221.7-67.2c-0.2-0.6-0.2-1.3-0.4-1.9
		c-0.8,5.5-0.7,10.4,0.4,14.3C51,278.5,198.1,283.3,256,283.3s205-4.9,221.7-67.2c1-3.9,1.1-8.8,0.4-14.3
		C477.9,202.4,477.8,203.1,477.7,203.7z"/>
	<g>
		<g>
			<path class="st21" d="M409.9,208.3c1.4,3.8-0.6,6.5-3.9,7.7c-3.3,1.2-6.6,0.6-8.1-3.2c-1.4-3.8-1.4-14.5,1.1-15.4
				C401.3,196.5,408.5,204.4,409.9,208.3z"/>
			<path class="st21" d="M405.1,213.7c-3.1,1.1-6.1,0.6-7.6-2.5c0.1,0.6,0.3,1.2,0.4,1.6c1.4,3.8,4.7,4.5,8.1,3.2
				c3.3-1.2,5.4-3.9,3.9-7.7c-0.2-0.4-0.4-0.9-0.7-1.5C410,210.1,408.2,212.5,405.1,213.7z"/>
		</g>
		<g>
			<path class="st21" d="M391.3,158c-4.1-0.2-5.6-3.2-5.4-6.7c0.2-3.5,2.1-6.3,6.2-6.1c4.1,0.2,13.8,4.6,13.7,7.2
				C405.6,154.9,395.4,158.3,391.3,158z"/>
			<path class="st21" d="M388.3,151.4c0.2-3.3,1.9-5.7,5.4-5.9c-0.6-0.1-1.2-0.2-1.6-0.3c-4.1-0.2-6,2.5-6.2,6.1
				c-0.2,3.5,1.4,6.5,5.4,6.7c0.5,0,1,0,1.7-0.1C389.6,157.3,388.1,154.7,388.3,151.4z"/>
		</g>
		<g>
			<path class="st21" d="M73.9,189.6c-2.9-2.9-2.1-6.2,0.4-8.6c2.5-2.5,5.8-3.3,8.7-0.4c2.9,2.9,7.2,12.6,5.3,14.5
				C86.7,196.8,76.8,192.5,73.9,189.6z"/>
			<path class="st21" d="M76.1,182.7c2.3-2.3,5.3-3,8-0.8c-0.4-0.5-0.7-0.9-1.1-1.3c-2.9-2.9-6.2-2.1-8.7,0.4
				c-2.5,2.5-3.3,5.7-0.4,8.6c0.3,0.3,0.8,0.7,1.3,1C73.1,187.9,73.8,185,76.1,182.7z"/>
		</g>
		<g>
			<path class="st21" d="M137.8,177.8c-4.1-0.2-5.6-3.2-5.5-6.7c0.2-3.5,2.1-6.3,6.2-6.1c4.1,0.2,13.8,4.6,13.7,7.2
				C152.1,174.7,141.9,178.1,137.8,177.8z"/>
			<path class="st21" d="M134.9,171.2c0.2-3.3,1.9-5.8,5.4-5.9c-0.6-0.1-1.2-0.2-1.7-0.3c-4.1-0.2-6,2.5-6.2,6.1
				c-0.2,3.5,1.4,6.5,5.5,6.7c0.5,0,1,0,1.7-0.1C136.1,177.2,134.7,174.5,134.9,171.2z"/>
		</g>
		<g>
			<path class="st21" d="M353.3,188.2c-3.7,1.7-6.5-0.2-8-3.3c-1.5-3.2-1.1-6.6,2.6-8.3c3.7-1.7,14.3-2.5,15.4-0.1
				C364.4,178.7,357,186.5,353.3,188.2z"/>
			<path class="st21" d="M347.6,183.8c-1.4-3-1-6,1.9-7.8c-0.6,0.2-1.2,0.4-1.6,0.5c-3.7,1.7-4.1,5.1-2.6,8.3c1.5,3.2,4.3,5.1,8,3.3
				c0.4-0.2,0.9-0.5,1.4-0.8C351.4,188.5,348.9,186.8,347.6,183.8z"/>
		</g>
		<g>
			<path class="st21" d="M358.3,213.2c-4-1-5-4.2-4.2-7.6c0.8-3.4,3.2-5.8,7.2-4.9c4,1,12.8,6.9,12.1,9.5
				C372.9,212.7,362.3,214.2,358.3,213.2z"/>
			<path class="st21" d="M356.6,206.2c0.8-3.2,2.9-5.3,6.4-4.9c-0.6-0.2-1.1-0.4-1.6-0.5c-4-1-6.4,1.4-7.2,4.9
				c-0.8,3.4,0.2,6.6,4.2,7.6c0.5,0.1,1,0.2,1.6,0.2C356.7,212.3,355.8,209.4,356.6,206.2z"/>
		</g>
		<g>
			<path class="st21" d="M300.3,188.9c-3.4-2.3-3.3-5.6-1.3-8.5c2-3,5-4.4,8.4-2.1c3.4,2.2,9.6,10.9,8.1,13.1
				C314.2,193.4,303.6,191.2,300.3,188.9z"/>
			<path class="st21" d="M301,181.7c1.8-2.7,4.6-4,7.7-2.4c-0.5-0.4-0.9-0.8-1.3-1.1c-3.4-2.3-6.5-0.8-8.4,2.1
				c-1.9,2.9-2.1,6.3,1.3,8.5c0.4,0.3,0.9,0.5,1.5,0.8C299.1,187.5,299.2,184.4,301,181.7z"/>
		</g>
		<g>
			<path class="st21" d="M301.3,104.4c-2-2.7-1-5.2,1.3-7c2.3-1.7,5.1-2,7.1,0.7c2,2.7,4.4,11.1,2.6,12.4
				C310.8,111.7,303.3,107,301.3,104.4z"/>
			<path class="st21" d="M303.9,99c2.2-1.6,4.6-1.8,6.6,0.3c-0.2-0.5-0.5-0.9-0.7-1.2c-2-2.7-4.7-2.4-7.1-0.7
				c-2.3,1.7-3.3,4.3-1.3,7c0.2,0.3,0.6,0.7,0.9,1C300.9,102.9,301.8,100.6,303.9,99z"/>
		</g>
		<g>
			<path class="st21" d="M322.1,146.2c-0.9-3.5,1.1-5.6,4.1-6.4c3-0.8,5.8,0,6.8,3.5c0.9,3.4,0,12.8-2.3,13.4
				C328.7,157.3,323,149.7,322.1,146.2z"/>
			<path class="st21" d="M326.8,142c2.8-0.7,5.3,0,6.4,2.8c-0.1-0.6-0.1-1.1-0.2-1.4c-0.9-3.5-3.8-4.3-6.8-3.5c-3,0.8-5,2.9-4.1,6.4
				c0.1,0.4,0.3,0.9,0.5,1.4C322.2,144.6,324,142.7,326.8,142z"/>
		</g>
		<g>
			<path class="st21" d="M224.2,219.5c-3-2-2.9-4.9-1.2-7.5c1.7-2.6,4.4-3.8,7.4-1.8c3,2,8.5,9.5,7.2,11.5
				C236.5,223.4,227.2,221.5,224.2,219.5z"/>
			<path class="st21" d="M224.9,213.2c1.6-2.4,4-3.5,6.7-2.1c-0.4-0.4-0.8-0.7-1.1-0.9c-3-2-5.7-0.7-7.4,1.8
				c-1.7,2.6-1.8,5.5,1.2,7.5c0.4,0.2,0.8,0.5,1.3,0.7C223.2,218.3,223.3,215.6,224.9,213.2z"/>
		</g>
		<g>
			<path class="st21" d="M171.4,187.2c-3-2-2.9-4.9-1.2-7.5c1.7-2.6,4.4-3.8,7.4-1.8c3,2,8.5,9.5,7.2,11.5
				C183.6,191.1,174.4,189.1,171.4,187.2z"/>
			<path class="st21" d="M172.1,180.9c1.6-2.4,4-3.5,6.7-2.1c-0.4-0.4-0.8-0.7-1.1-0.9c-3-2-5.7-0.7-7.4,1.8
				c-1.7,2.6-1.8,5.5,1.2,7.5c0.4,0.2,0.8,0.5,1.3,0.7C170.4,185.9,170.5,183.2,172.1,180.9z"/>
		</g>
		<g>
			<path class="st21" d="M142.6,128.8c-1.1-4,1.3-6.5,4.7-7.4c3.5-0.9,6.8,0.1,7.9,4.1c1.1,4,0,14.8-2.6,15.5
				C150.2,141.6,143.6,132.8,142.6,128.8z"/>
			<path class="st21" d="M148,123.9c3.2-0.9,6.2,0,7.5,3.3c-0.1-0.6-0.2-1.2-0.3-1.7c-1.1-4-4.4-5-7.9-4.1c-3.5,0.9-5.8,3.4-4.7,7.4
				c0.1,0.5,0.3,1,0.6,1.6C142.7,126.9,144.8,124.7,148,123.9z"/>
		</g>
		<g>
			<path class="st21" d="M284.9,136.7c1.2-3.9,4.5-4.7,7.9-3.6c3.4,1.1,5.6,3.6,4.3,7.5c-1.2,3.9-7.8,12.2-10.4,11.4
				C284.4,151.3,283.6,140.6,284.9,136.7z"/>
			<path class="st21" d="M292,135.5c3.1,1,5.1,3.3,4.4,6.7c0.3-0.6,0.5-1.1,0.7-1.5c1.2-3.9-1-6.4-4.3-7.5c-3.4-1.1-6.6-0.3-7.9,3.6
				c-0.1,0.4-0.3,1-0.3,1.6C285.9,135.2,288.9,134.5,292,135.5z"/>
		</g>
		<g>
			<path class="st21" d="M113.9,152.4c1.2-3.9,4.5-4.7,7.9-3.6c3.4,1.1,5.6,3.6,4.3,7.5c-1.2,3.9-7.8,12.3-10.4,11.4
				C113.4,166.9,112.6,156.2,113.9,152.4z"/>
			<path class="st21" d="M121,151.1c3.1,1,5.1,3.3,4.4,6.7c0.3-0.6,0.5-1.1,0.7-1.5c1.2-3.9-1-6.4-4.3-7.5c-3.4-1.1-6.6-0.3-7.9,3.6
				c-0.1,0.4-0.3,1-0.4,1.6C115,150.8,117.9,150.1,121,151.1z"/>
		</g>
		<g>
			<path class="st21" d="M175,203c3.8-1.5,6.5,0.4,7.8,3.7c1.3,3.3,0.8,6.6-3,8.1c-3.8,1.5-14.4,1.8-15.4-0.7
				C163.5,211.9,171.2,204.5,175,203z"/>
			<path class="st21" d="M180.5,207.6c1.2,3,0.7,6-2.3,7.7c0.6-0.1,1.2-0.3,1.6-0.5c3.8-1.5,4.3-4.9,3-8.1c-1.3-3.3-4-5.2-7.8-3.7
				c-0.4,0.2-0.9,0.4-1.5,0.8C176.9,202.8,179.3,204.6,180.5,207.6z"/>
		</g>
		<g>
			<path class="st21" d="M219.1,177.5c2.8,2.9,2,6.2-0.5,8.6c-2.5,2.5-5.8,3.2-8.7,0.2c-2.8-2.9-7.1-12.7-5.2-14.6
				C206.5,170.1,216.3,174.5,219.1,177.5z"/>
			<path class="st21" d="M216.8,184.3c-2.3,2.3-5.3,2.9-8,0.7c0.4,0.5,0.7,1,1,1.3c2.8,2.9,6.1,2.2,8.7-0.2c2.5-2.5,3.4-5.7,0.5-8.6
				c-0.3-0.3-0.8-0.7-1.3-1.1C219.9,179.2,219.2,182.1,216.8,184.3z"/>
		</g>
		<g>
			<path class="st21" d="M276.5,229.1c-3.5,2-6.5,0.4-8.2-2.7c-1.7-3.1-1.6-6.4,1.9-8.5c3.5-2,14-3.7,15.4-1.4
				C286.7,218.7,280,227.1,276.5,229.1z"/>
			<path class="st21" d="M270.4,225.2c-1.6-2.8-1.5-5.9,1.3-7.9c-0.6,0.2-1.1,0.5-1.5,0.7c-3.6,2-3.7,5.4-1.9,8.5
				c1.7,3.1,4.7,4.7,8.2,2.7c0.4-0.2,0.9-0.5,1.3-1C274.7,229.5,272,228,270.4,225.2z"/>
		</g>
		<g>
			<path class="st21" d="M305.1,226.8c-0.9,3.1-3.5,3.8-6.2,3c-2.7-0.8-4.5-2.8-3.5-5.9c0.9-3.1,6.1-9.9,8.1-9.3
				C305.3,215.1,306.1,223.6,305.1,226.8z"/>
			<path class="st21" d="M299.4,227.8c-2.5-0.8-4.1-2.6-3.6-5.3c-0.2,0.5-0.4,0.9-0.5,1.2c-0.9,3.1,0.9,5.1,3.5,5.9
				c2.7,0.8,5.3,0.1,6.2-3c0.1-0.4,0.2-0.8,0.2-1.3C304.3,228,301.9,228.6,299.4,227.8z"/>
		</g>
		<g>
			<path class="st21" d="M263.4,97.7c2.8,2.9,1.8,6.3-0.9,9c-2.8,2.7-6.2,3.6-9.1,0.6c-2.8-2.9-6.8-12.9-4.7-14.9
				C250.5,90.6,260.6,94.7,263.4,97.7z"/>
			<path class="st21" d="M260.7,104.9c-2.5,2.4-5.7,3.3-8.4,1.1c0.4,0.5,0.7,1,1,1.3c2.8,2.9,6.3,2,9.1-0.6c2.7-2.7,3.7-6.1,0.9-9
				c-0.3-0.3-0.8-0.7-1.3-1.1C264.2,99.4,263.3,102.4,260.7,104.9z"/>
		</g>
		<g>
			<path class="st21" d="M188.2,105.7c2.2,2.2,1.4,4.8-0.7,6.9c-2.1,2-4.8,2.7-6.9,0.5c-2.2-2.2-5.2-9.9-3.6-11.4
				C178.4,100.3,186.1,103.5,188.2,105.7z"/>
			<path class="st21" d="M186.2,111.3c-1.9,1.9-4.3,2.5-6.4,0.8c0.3,0.4,0.5,0.7,0.8,1c2.2,2.2,4.8,1.6,6.9-0.5
				c2.1-2,2.9-4.6,0.7-6.9c-0.2-0.3-0.6-0.5-1-0.8C188.8,107,188.1,109.4,186.2,111.3z"/>
		</g>
		<g>
			<path class="st21" d="M210.8,137.8c-4,0.6-6.2-2-6.7-5.5c-0.5-3.5,0.8-6.6,4.9-7.2c4-0.6,14.4,1.6,14.8,4.3
				C224.1,131.8,214.8,137.2,210.8,137.8z"/>
			<path class="st21" d="M206.5,132c-0.5-3.2,0.7-6,4.1-6.9c-0.6,0-1.2,0-1.7,0.1c-4,0.6-5.4,3.7-4.9,7.2c0.5,3.5,2.7,6.1,6.7,5.5
				c0.5-0.1,1-0.2,1.6-0.4C209,137.5,207,135.2,206.5,132z"/>
		</g>
		<g>
			<path class="st21" d="M240.3,145.9c-0.7-2.9,1-4.7,3.6-5.3c2.6-0.6,5,0.1,5.7,3.1c0.7,2.9-0.2,10.8-2.2,11.3
				C245.6,155.4,241,148.8,240.3,145.9z"/>
			<path class="st21" d="M244.3,142.3c2.4-0.6,4.5,0.1,5.4,2.5c0-0.5-0.1-0.9-0.2-1.2c-0.7-3-3.1-3.7-5.7-3.1
				c-2.5,0.6-4.3,2.4-3.6,5.3c0.1,0.3,0.2,0.7,0.4,1.2C240.4,144.5,241.9,142.9,244.3,142.3z"/>
		</g>
		<g>
			<path class="st21" d="M260.7,189.2c-2.7,0.4-4.2-1.3-4.6-3.7c-0.4-2.4,0.6-4.5,3.3-4.9c2.7-0.4,9.8,1.1,10.1,2.9
				C269.7,185.1,263.4,188.8,260.7,189.2z"/>
			<path class="st21" d="M257.8,185.2c-0.3-2.2,0.5-4.1,2.8-4.7c-0.4,0-0.8,0-1.1,0.1c-2.8,0.4-3.7,2.5-3.3,4.9
				c0.4,2.4,1.8,4.1,4.6,3.7c0.3,0,0.7-0.1,1.1-0.3C259.4,189,258.1,187.4,257.8,185.2z"/>
		</g>
		<g>
			<path class="st21" d="M331.2,236.4c-2.7,0.4-4.2-1.4-4.6-3.7c-0.4-2.4,0.5-4.5,3.3-4.9c2.7-0.4,9.8,1.1,10.1,2.9
				C340.2,232.4,333.9,236,331.2,236.4z"/>
			<path class="st21" d="M328.3,232.4c-0.3-2.2,0.5-4.1,2.8-4.7c-0.4,0-0.8,0-1.1,0.1c-2.8,0.4-3.7,2.5-3.3,4.9
				c0.4,2.4,1.8,4.1,4.6,3.7c0.3,0,0.7-0.1,1.1-0.3C329.9,236.2,328.6,234.6,328.3,232.4z"/>
		</g>
		<g>
			<path class="st21" d="M209.6,231.8c2.5-1.2,4.4,0.1,5.4,2.2c1,2.2,0.8,4.5-1.8,5.6c-2.5,1.2-9.7,1.8-10.5,0.1
				C202,238.3,207.1,233,209.6,231.8z"/>
			<path class="st21" d="M213.5,234.8c0.9,2,0.7,4.1-1.3,5.3c0.4-0.1,0.8-0.2,1.1-0.4c2.5-1.2,2.8-3.5,1.8-5.6
				c-1-2.2-2.9-3.4-5.4-2.2c-0.3,0.1-0.6,0.3-1,0.6C210.8,231.6,212.5,232.8,213.5,234.8z"/>
		</g>
		<g>
			<path class="st21" d="M366,128.9c1.5,2.3,0.6,4.4-1.4,5.7c-2,1.3-4.3,1.5-5.8-0.9c-1.6-2.3-3.2-9.4-1.7-10.4
				C358.4,122.5,364.4,126.6,366,128.9z"/>
			<path class="st21" d="M363.6,133.3c-1.8,1.2-3.9,1.3-5.5-0.5c0.2,0.4,0.4,0.7,0.6,1c1.6,2.3,3.8,2.2,5.8,0.9
				c2-1.3,2.9-3.4,1.4-5.7c-0.2-0.3-0.4-0.6-0.7-0.9C366.3,130.2,365.5,132,363.6,133.3z"/>
		</g>
		<g>
			<path class="st21" d="M423.5,183.2c-2-1.9-1.5-4.2,0.2-5.9c1.7-1.7,3.9-2.3,5.9-0.3c2,1.9,5.1,8.5,3.8,9.8
				C432.2,188,425.5,185.2,423.5,183.2z"/>
			<path class="st21" d="M424.9,178.5c1.6-1.6,3.6-2.1,5.4-0.6c-0.3-0.4-0.5-0.6-0.7-0.9c-2-1.9-4.2-1.4-5.9,0.3
				c-1.7,1.7-2.2,4-0.2,5.9c0.2,0.2,0.5,0.5,0.9,0.7C422.9,182.1,423.4,180.1,424.9,178.5z"/>
		</g>
		<g>
			<path class="st21" d="M131.8,220.8c-2-1.9-1.5-4.2,0.2-5.9c1.7-1.7,3.9-2.3,5.9-0.3c2,1.9,5.1,8.5,3.8,9.8
				C140.6,225.6,133.8,222.8,131.8,220.8z"/>
			<path class="st21" d="M133.3,216.1c1.5-1.6,3.6-2.1,5.4-0.7c-0.3-0.3-0.5-0.6-0.7-0.9c-2-1.9-4.2-1.4-5.9,0.3
				c-1.7,1.7-2.2,4-0.2,5.9c0.2,0.2,0.5,0.5,0.9,0.7C131.3,219.7,131.7,217.7,133.3,216.1z"/>
		</g>
		<g>
			<path class="st21" d="M175.6,147.1c2-1.9,4.2-1.2,5.9,0.5c1.6,1.8,2.1,4,0,5.9c-2,1.9-8.8,4.6-10,3.2
				C170.3,155.6,173.5,149,175.6,147.1z"/>
			<path class="st21" d="M180.2,148.8c1.5,1.6,1.9,3.7,0.3,5.4c0.4-0.2,0.7-0.5,0.9-0.7c2.1-1.9,1.6-4.1,0-5.9
				c-1.6-1.8-3.8-2.4-5.9-0.5c-0.2,0.2-0.5,0.5-0.8,0.9C176.7,146.6,178.7,147.2,180.2,148.8z"/>
		</g>
		<g>
			<path class="st21" d="M122.1,188.4c2.8-0.1,4,1.8,4.1,4.2c0.1,2.4-1.1,4.4-3.9,4.5c-2.8,0.1-9.6-2.3-9.7-4.1
				C112.6,191.4,119.3,188.5,122.1,188.4z"/>
			<path class="st21" d="M124.5,192.7c0.1,2.2-1,4-3.3,4.4c0.4,0,0.8,0.1,1.1,0.1c2.8-0.1,3.9-2.1,3.9-4.5c-0.1-2.4-1.3-4.3-4.1-4.2
				c-0.3,0-0.7,0.1-1.1,0.1C123.3,188.7,124.4,190.5,124.5,192.7z"/>
		</g>
	</g>
	<g>
		<path class="st1" d="M406,216c-3.3,1.2-6.6,0.6-8.1-3.2c-0.9-2.3-1.2-7-0.8-10.6c-1.1,3.5-0.9,10.5,0.2,13.4
			c1.4,3.8,4.7,4.5,8.1,3.2c2.7-1,4.4-3,4.3-5.7C409,214.4,407.6,215.4,406,216z"/>
		<path class="st1" d="M391.3,158c-4-0.2-5.6-3.1-5.4-6.5c-0.3,0.8-0.5,1.7-0.6,2.6c-0.2,3.5,1.4,6.5,5.5,6.7
			c4.1,0.2,14.3-3.1,14.4-5.5c0-0.4-0.2-0.9-0.6-1.3C401.8,156,394.6,158.2,391.3,158z"/>
		<path class="st1" d="M73.9,189.6c-1.2-1.2-1.6-2.4-1.7-3.7c-1.1,2.1-1,4.4,1.1,6.5c2.9,2.9,12.7,7.2,14.5,5.5
			c0.5-0.5,0.5-1.5,0.4-2.7C86.1,196.5,76.7,192.4,73.9,189.6z"/>
		<path class="st1" d="M137.8,177.8c-4-0.2-5.6-3.1-5.4-6.5c-0.3,0.8-0.5,1.7-0.6,2.6c-0.2,3.5,1.4,6.5,5.4,6.7
			c4.1,0.2,14.3-3.1,14.4-5.6c0-0.4-0.2-0.9-0.6-1.3C148.3,175.9,141.1,178,137.8,177.8z"/>
		<path class="st1" d="M362.7,179.2c-1.9,3.2-6.6,7.8-9.4,9c-3.7,1.7-6.5-0.2-8-3.3c-0.4-0.9-0.6-1.8-0.7-2.7
			c-0.8,1.6-0.7,3.6,0.2,5.5c1.5,3.2,4.3,5.1,8,3.4c3.7-1.7,11.1-9.5,10.1-11.7C362.8,179.3,362.7,179.3,362.7,179.2z"/>
		<path class="st1" d="M358.3,213.2c-3.2-0.8-4.4-3-4.4-5.7c-0.1,0.3-0.3,0.6-0.4,0.9c-0.8,3.4,0.2,6.6,4.2,7.6
			c4,1,14.6-0.6,15.2-2.9c0.1-0.5-0.2-1.1-0.6-1.7C369.5,213.1,361.6,214,358.3,213.2z"/>
		<path class="st1" d="M300.3,188.9c-1.7-1.2-2.5-2.6-2.7-4.1c-1,2.5-0.7,5.1,2.1,6.9c3.4,2.3,13.9,4.5,15.2,2.5
			c0.3-0.5,0.2-1.4-0.1-2.4C312.3,193,303.3,191,300.3,188.9z"/>
		<path class="st1" d="M312.4,110.5c-1.4,1.1-7.6-2.6-10.2-5.3c0,0.1,0,0.1,0.1,0.2c-0.4-0.3-0.7-0.7-0.9-1
			c-0.5-0.7-0.8-1.4-0.9-2.1c-0.8,1.5-0.9,3.2,0.4,4.9c0.2,0.3,0.5,0.7,0.9,1c0-0.1,0-0.1-0.1-0.2c2.6,2.7,8.8,6.4,10.2,5.3
			C312.4,112.9,312.5,111.8,312.4,110.5L312.4,110.5z"/>
		<path class="st1" d="M330.7,156.7c-2,0.5-7.7-7-8.6-10.5c-0.1-0.4-0.1-0.7-0.1-1.1c-0.6,1-0.9,2.3-0.5,3.9
			c0.9,3.4,6.6,11,8.6,10.5c1.2-0.3,2-3,2.4-5.9C332.1,155.3,331.5,156.5,330.7,156.7z"/>
		<path class="st1" d="M224.2,219.5c-1.5-1-2.2-2.2-2.3-3.5c-1,2.2-0.7,4.6,1.8,6.3c3,2,12.2,3.9,13.4,2.1c0.3-0.5,0.2-1.3-0.2-2.4
			C234.4,223,226.9,221.3,224.2,219.5z"/>
		<path class="st1" d="M171.4,187.2c-1.5-1-2.2-2.2-2.3-3.4c-1,2.2-0.7,4.6,1.8,6.3c3,2,12.2,3.9,13.4,2.1c0.3-0.5,0.2-1.3-0.2-2.4
			C181.5,190.6,174,188.9,171.4,187.2z"/>
		<path class="st1" d="M152.5,141c-2.4,0.6-8.9-8.2-10-12.2c-0.1-0.5-0.1-1-0.1-1.5c-0.6,1.2-0.9,2.5-0.4,4.3
			c1.1,4,7.6,12.8,10,12.1c1.3-0.4,2.3-3.3,2.7-6.6C154.2,139.2,153.5,140.8,152.5,141z"/>
		<path class="st1" d="M286.7,152.1c-1.9-0.6-2.7-8-2.3-12.7c0,0.1-0.1,0.1-0.1,0.2c-1.2,3.9-0.5,14.6,1.8,15.3
			c2.6,0.8,9.2-7.5,10.4-11.4c0.2-0.8,0.3-1.5,0.3-2.1C295.1,145.4,289.1,152.8,286.7,152.1z"/>
		<path class="st1" d="M115.7,167.7c-1.9-0.6-2.7-8-2.3-12.7c0,0.1-0.1,0.1-0.1,0.2c-1.2,3.9-0.5,14.6,1.8,15.3
			c2.5,0.8,9.1-7.5,10.4-11.4c0.2-0.8,0.3-1.4,0.3-2.1C124.1,161,118.1,168.5,115.7,167.7z"/>
		<path class="st1" d="M179.8,214.8c-3.6,1.5-13.5,1.8-15.2-0.4c-0.7,1.1-1,2-0.8,2.6c1,2.5,11.7,2.2,15.4,0.7
			c2.8-1.2,3.8-3.3,3.6-5.7C182.4,213.1,181.4,214.1,179.8,214.8z"/>
		<path class="st1" d="M218.6,186.1c-2.5,2.5-5.8,3.2-8.7,0.2c-0.3-0.3-0.7-0.8-1-1.3h0c-1.9-2.7-4-7.4-4.4-10.5
			c-0.1,0-0.2,0-0.2,0.1c-1.7,1.7,1.4,9.4,4.1,13.3h0c0.4,0.5,0.7,1,1,1.3c2.8,2.9,6.1,2.2,8.7-0.2c1.5-1.5,2.3-3.2,2.2-5
			C219.8,184.7,219.3,185.4,218.6,186.1z"/>
		<path class="st1" d="M285,219.4c-1.6,3.3-5.9,8.2-8.5,9.7c-3.5,2-6.5,0.4-8.2-2.7c-0.6-1.1-0.9-2.2-1-3.2c-1,1.8-0.7,4,0.4,6
			c1.7,3.1,4.7,4.7,8.2,2.7C279.5,229.9,286.2,221.5,285,219.4L285,219.4z"/>
		<path class="st1" d="M298.9,229.7c-2.1-0.6-3.6-2-3.8-4c-0.1,0.3-0.3,0.6-0.3,0.9c-0.9,3.1,0.9,5.1,3.5,6c2.7,0.8,5.3,0.1,6.2-3
			c0.2-0.6,0.3-1.5,0.4-2.4C303.9,229.9,301.4,230.5,298.9,229.7z"/>
		<path class="st1" d="M262.4,106.7c-2.8,2.7-6.2,3.6-9.1,0.6c-0.3-0.3-0.7-0.8-1-1.3c0,0,0,0,0,0c-1.9-2.8-3.9-7.6-4.2-10.8
			c0,0,0,0-0.1,0c-1.8,1.8,1.1,9.8,3.7,13.6c0,0,0,0,0,0c0.4,0.5,0.7,1,1,1.3c2.8,2.9,6.3,2,9.1-0.6c1.7-1.6,2.6-3.6,2.5-5.5
			C263.9,104.9,263.3,105.8,262.4,106.7z"/>
		<path class="st1" d="M187.5,112.6c-2.1,2-4.8,2.7-6.9,0.5c-0.2-0.3-0.5-0.6-0.8-1c0.1,0,0.1,0.1,0.2,0.1c-1.4-1.9-2.8-5.3-3.2-7.7
			c-0.1,0-0.3,0-0.3,0.1c-1.5,1.4,0.9,7.7,3,10.5c-0.1,0-0.1,0-0.2-0.1c0.3,0.4,0.5,0.7,0.8,1c2.2,2.2,4.8,1.6,6.9-0.5
			c1.4-1.3,2.1-2.9,1.9-4.5C188.5,111.5,188.1,112.1,187.5,112.6z"/>
		<path class="st1" d="M222.8,131.4c-2.1,2.2-7,5-10.4,6l0,0c-0.6,0.2-1.1,0.3-1.6,0.4c-4,0.6-6.2-2-6.7-5.5c-0.1-0.5,0-0.9,0-1.3
			c-0.6,1.2-0.8,2.6-0.5,4.2c0.5,3.5,2.7,6.1,6.7,5.5c0.5-0.1,1-0.2,1.6-0.4c0,0,0,0,0,0c4.5-1.4,11.7-5.9,11.4-8
			C223.2,132,223,131.7,222.8,131.4z"/>
		<path class="st1" d="M247.4,154.9c-1.5,0.4-5.3-4.7-6.7-7.9c0,0,0,0,0,0c-0.2-0.4-0.3-0.8-0.4-1.2c-0.1-0.2,0-0.4,0-0.6
			c-0.6,0.9-0.9,2-0.5,3.4c0.1,0.3,0.2,0.7,0.4,1.2c0,0,0,0,0,0c1.3,3.2,5.1,8.3,6.7,7.9c1.1-0.3,1.8-2.8,2.2-5.5
			C248.6,153.7,248,154.8,247.4,154.9z"/>
		<path class="st1" d="M261.8,188.9L261.8,188.9c-0.4,0.1-0.8,0.2-1.1,0.3c-2.7,0.4-4.2-1.3-4.6-3.7c0-0.2,0-0.3,0-0.4
			c-0.6,0.9-0.7,2-0.5,3.2c0.4,2.4,1.8,4.1,4.6,3.7c0.3,0,0.7-0.1,1.1-0.3l0,0c3-1,8-4,7.8-5.4c0-0.3-0.4-0.6-0.9-0.9
			C266.5,186.8,263.8,188.3,261.8,188.9z"/>
		<path class="st1" d="M332.2,236.1L332.2,236.1c-0.4,0.1-0.8,0.2-1.1,0.3c-2.7,0.4-4.2-1.4-4.6-3.7c0-0.1,0-0.3,0-0.4
			c-0.6,0.9-0.7,2-0.5,3.3c0.4,2.4,1.8,4.1,4.6,3.7c0.3,0,0.7-0.1,1.1-0.3h0c3-1,8-4,7.7-5.4c-0.1-0.3-0.4-0.6-0.9-0.9
			C337,234,334.2,235.5,332.2,236.1z"/>
		<path class="st1" d="M213.2,239.7c-0.3,0.1-0.6,0.3-1.1,0.4c0,0,0,0,0,0c-2.8,0.8-7.6,1-9,0c-0.7,1-1.3,2-1,2.5
			c0.7,1.5,6.4,1.2,9.5,0.3c0,0,0,0,0,0c0.4-0.1,0.8-0.2,1.1-0.4c2-0.9,2.5-2.5,2.2-4.2C214.5,238.9,214,239.3,213.2,239.7z"/>
		<path class="st1" d="M364.6,134.7c-2,1.3-4.3,1.5-5.8-0.9c-0.2-0.3-0.4-0.6-0.6-1c0.1,0.1,0.1,0.1,0.2,0.1
			c-0.9-1.7-1.6-4.5-1.8-6.7c0,0-0.1,0-0.1,0c-1.4,0.9-0.1,6.7,1.3,9.5c0-0.1-0.1-0.1-0.1-0.1c0.2,0.4,0.4,0.7,0.6,1
			c1.6,2.3,3.8,2.2,5.8,0.9c1.6-1.1,2.4-2.6,2-4.3C365.7,133.7,365.2,134.2,364.6,134.7z"/>
		<path class="st1" d="M424.3,183.8c0,0.1,0,0.1,0.1,0.2c-0.4-0.2-0.7-0.5-0.9-0.7c-0.7-0.7-1-1.3-1.1-2c-1,1.5-1,3.3,0.6,4.9
			c0.2,0.2,0.5,0.5,0.9,0.7c0,0-0.1-0.1-0.1-0.1c2.5,1.9,8,4.1,9.1,3c0.4-0.4,0.3-1.5-0.1-2.7C431.1,187.3,426.6,185.5,424.3,183.8z
			"/>
		<path class="st1" d="M132.7,221.4c0,0.1,0,0.1,0.1,0.2c-0.4-0.2-0.7-0.5-0.9-0.7c-0.7-0.7-1-1.4-1.1-2.1c-1,1.5-1,3.3,0.6,4.8
			c0.2,0.2,0.5,0.5,0.9,0.7c0,0,0-0.1-0.1-0.1c2.5,1.9,8,4.1,9.1,3c0.4-0.4,0.3-1.5-0.1-2.7C139.4,224.9,134.9,223.1,132.7,221.4z"
			/>
		<path class="st1" d="M181.4,153.6c-0.2,0.2-0.5,0.4-0.9,0.7c0-0.1,0.1-0.1,0.1-0.2c-2.6,1.8-8.1,3.9-9.2,2.7
			c-0.1-0.1,0-0.5-0.1-0.7c-0.6,1.6-0.9,3-0.5,3.5c1.1,1.2,6.7-0.9,9.2-2.7c0,0,0,0.1-0.1,0.2c0.4-0.2,0.7-0.5,0.9-0.7
			c1.3-1.2,1.5-2.4,1.2-3.7C181.9,153,181.8,153.3,181.4,153.6z"/>
		<path class="st1" d="M122.3,197.1c-0.3,0-0.7,0-1.1-0.1h0c-2.4-0.3-6.1-1.6-7.7-2.8c-0.8,0.6-1.4,1.2-1.4,1.6
			c0.1,1.6,5.4,3.6,8.6,4h0c0.4,0.1,0.8,0.1,1.1,0.1c2.8-0.1,3.9-2.1,3.9-4.5c0-0.1,0-0.2,0-0.3C125,196.3,124,197.1,122.3,197.1z"
			/>
	</g>
</g>
</svg>
