<?xml version="1.0" encoding="utf-8"?>
<!-- Generator: Adobe Illustrator 27.0.0, SVG Export Plug-In . SVG Version: 6.00 Build 0)  -->
<svg version="1.1" id="Layer_1" xmlns="http://www.w3.org/2000/svg" xmlns:xlink="http://www.w3.org/1999/xlink" x="0px" y="0px"
	 viewBox="0 0 512 512" style="enable-background:new 0 0 512 512;" xml:space="preserve">
<style type="text/css">
	.st0{fill:#A85D32;}
	.st1{fill:#A2E0BE;}
	.st2{fill:url(#SVGID_1_);}
	.st3{fill:#FADAB2;}
	.st4{fill:url(#SVGID_00000142160074030293482400000010079484485436178586_);}
	.st5{fill:#D6675C;}
	.st6{fill:url(#SVGID_00000054267834225710353900000002327111443646743204_);}
	.st7{fill:#E2EBD1;}
	.st8{fill:url(#SVGID_00000116945124270488319180000014762665943446519180_);}
	.st9{fill:url(#SVGID_00000020368822106149832670000000633233724947718581_);}
	.st10{fill:#EE4230;}
	.st11{fill:url(#SVGID_00000106129144939251153750000008504108570342864787_);}
	.st12{fill:url(#SVGID_00000137818061601873168620000009096361849843890072_);}
	.st13{opacity:0.5;}
	.st14{fill:#FFFFFF;}
	.st15{fill:#DAEDED;}
</style>
<g>
	<path class="st0" d="M228.5,94.7c28.4,35.7,20.5,63.4-7.8,41.4c-28.3-22-57-55.5-76.6-25.7c-19.6,29.8-29.7,34.1-37.6,18.1
		c-7.9-15.9-34-15.6-39.9,18.7c-5.9,34.3-32.9,38.3-32.7,17.7c0.2-20.6,11.4-34.6,22.5-56.6c11-22,47.4-39.8,67.5-41.8
		C143.9,64.5,200.5,59.4,228.5,94.7z"/>
	<path class="st1" d="M460,200.5c0,0-218.3-55.8-427.6,0C32.4,200.5,269.7,277.3,460,200.5z"/>
	<linearGradient id="SVGID_1_" gradientUnits="userSpaceOnUse" x1="250.2221" y1="227.3387" x2="250.2221" y2="11.7221">
		<stop  offset="0" style="stop-color:#D3680D"/>
		<stop  offset="0.1165" style="stop-color:#D97B17"/>
		<stop  offset="0.3661" style="stop-color:#E49D28"/>
		<stop  offset="0.6033" style="stop-color:#ECB535"/>
		<stop  offset="0.8207" style="stop-color:#F1C43C"/>
		<stop  offset="1" style="stop-color:#F3C93F"/>
	</linearGradient>
	<path class="st2" d="M145.1,147.3c15.2,57.5,74.6,91.7,132.6,76.4c58.1-15.3,92.9-74.4,77.7-131.9C340.2,34.3,280.8,0,222.7,15.4
		C164.7,30.7,129.9,89.8,145.1,147.3z"/>
	<path class="st3" d="M277.7,199.5c-58.1,15.3-117.4-18.9-132.6-76.4c-1.3-5.1-2.2-10.2-2.7-15.3c-1.5,12.9-0.8,26.2,2.7,39.4
		c15.2,57.5,74.6,91.7,132.6,76.4c53-13.9,86.4-64.3,80.4-116.6C353.1,150,322.4,187.7,277.7,199.5z"/>
	
		<linearGradient id="SVGID_00000159453725921785596530000005076791560976803212_" gradientUnits="userSpaceOnUse" x1="248.5802" y1="151.6187" x2="248.5802" y2="-9.094947e-13">
		<stop  offset="0.2" style="stop-color:#330600"/>
		<stop  offset="0.4179" style="stop-color:#3D0A02"/>
		<stop  offset="0.7909" style="stop-color:#591507"/>
		<stop  offset="1" style="stop-color:#6B1C0A"/>
	</linearGradient>
	<path style="fill:url(#SVGID_00000159453725921785596530000005076791560976803212_);" d="M324.2,60.2c0,0-30.5-5.6-41.9-18.3
		c-11.4-12.7-8.1-18.1-36.9-10.8c-28.8,7.2-34.2,21.9-27,51.6c7.2,29.7,12.3,64.3-2.9,68.7c-15.2,4.4-8.7-59.4-13.4-93.7
		c-4.7-34.3-39.8-6.5-39.8,25c0,31.5-23,42.4-24.2,15.2c-1.1-27.1,13.3-62.3,56.7-86.3c43.4-24,122.7-12.3,154.4,46
		C381.1,116.1,324.2,60.2,324.2,60.2z"/>
	<path class="st5" d="M349.4,57.7c-4.5-8.2-10-15.4-16.1-21.8c2.9,3.8,5.6,7.8,8,12.1c29.9,55-23.7,2.3-23.7,2.3
		s-28.7-5.3-39.5-17.2c-10.8-11.9-7.7-17-34.8-10.2c-27.1,6.8-36.3,25-29.4,52.9c6.8,28,15.1,54.8,1.3,60.5
		c-6.3,2.6-8.2-56-12.6-88.3c-4.4-32.3-41.5-1.9-41.5,27.8c0,29.7-17.7,35.7-18.7,10.1c-0.3-7.2,0.6-15,2.9-22.9
		c-5.3,12.1-7.4,24.2-6.9,34.9c1.1,27.1,24.2,16.3,24.2-15.2c0-31.5,35.1-59.3,39.8-25c4.7,34.3-1.8,98.1,13.4,93.7
		c15.2-4.4,10.1-39,2.9-68.7c-7.2-29.7-1.8-44.4,27-51.6c28.8-7.2,25.5-1.8,36.9,10.8c11.4,12.7,41.9,18.3,41.9,18.3
		S381.1,116.1,349.4,57.7z"/>
	<path class="st0" d="M173.8,80.2c0,0-8.7,17.2,15.2,57.6c23.9,40.3-33.5,65.8-29.6-1.5c4-67.3-1.4-56.2-10.9-68.6
		C139.1,55.3,173.8,80.2,173.8,80.2z"/>
	
		<linearGradient id="SVGID_00000136389472964819367940000016845697030610106024_" gradientUnits="userSpaceOnUse" x1="142.0773" y1="254.9341" x2="142.0773" y2="87.0249">
		<stop  offset="0" style="stop-color:#51740C"/>
		<stop  offset="0.1928" style="stop-color:#5B7F13"/>
		<stop  offset="0.5326" style="stop-color:#759D27"/>
		<stop  offset="0.9768" style="stop-color:#A0CC46"/>
		<stop  offset="1" style="stop-color:#A2CF48"/>
	</linearGradient>
	<path style="fill:url(#SVGID_00000136389472964819367940000016845697030610106024_);" d="M42.5,197.3c11.6,44,65.6,67.9,120.7,53.4
		c55-14.5,90.2-62,78.6-106c-11.6-44-65.6-67.9-120.6-53.4C66,105.8,30.8,153.2,42.5,197.3z"/>
	<path class="st7" d="M163.1,238.5c-55,14.5-109-9.4-120.7-53.5c-1-3.8-1.5-7.5-1.8-11.3c-0.7,7.8-0.2,15.7,1.8,23.5
		c11.6,44,65.6,67.9,120.7,53.4c50.3-13.3,83.9-54.1,80.4-94.7C240.2,192.3,208.4,226.6,163.1,238.5z"/>
	
		<linearGradient id="SVGID_00000032613165426589192350000008813851170446786705_" gradientUnits="userSpaceOnUse" x1="140.0835" y1="177.4795" x2="140.0835" y2="65.0534">
		<stop  offset="0" style="stop-color:#330600"/>
		<stop  offset="0.1547" style="stop-color:#420C03"/>
		<stop  offset="0.4601" style="stop-color:#581507"/>
		<stop  offset="0.7484" style="stop-color:#661A09"/>
		<stop  offset="1" style="stop-color:#6B1C0A"/>
	</linearGradient>
	<path style="fill:url(#SVGID_00000032613165426589192350000008813851170446786705_);" d="M228.5,94.7c28.4,35.7,20.5,63.4-7.8,41.4
		c-28.3-22-57-55.5-76.6-25.7c-19.6,29.8-29.7,34.1-37.6,18.1c-7.9-15.9-34-15.6-39.9,18.7c-5.9,34.3-32.9,38.3-32.7,17.7
		c0.2-20.6,11.4-34.6,22.5-56.6c11-22,47.4-39.8,67.5-41.8C143.9,64.5,200.5,59.4,228.5,94.7z"/>
	<path class="st5" d="M243.9,121.2c-2,8.5-11,9.8-25-1.1c-28.3-22.1-57-55.5-76.6-25.7c-19.6,29.7-29.6,34-37.6,18.1
		c-7.9-15.9-34-15.6-39.9,18.7c-4.8,27.9-23.5,35.7-30.2,26.7c-0.3,2.3-0.5,4.6-0.5,7c-0.2,20.6,26.8,16.6,32.7-17.7
		c5.9-34.3,32-34.7,39.9-18.7c7.9,15.9,18,11.6,37.6-18.1c19.6-29.8,48.3,3.7,76.6,25.7C241.3,152.1,251,141.7,243.9,121.2z"/>
	
		<linearGradient id="SVGID_00000147926697076817206710000005482297771767880066_" gradientUnits="userSpaceOnUse" x1="364.7766" y1="241.1313" x2="364.7766" y2="67.1624">
		<stop  offset="0" style="stop-color:#A80909"/>
		<stop  offset="0.8611" style="stop-color:#E63B2B"/>
		<stop  offset="1" style="stop-color:#F04431"/>
	</linearGradient>
	<path style="fill:url(#SVGID_00000147926697076817206710000005482297771767880066_);" d="M456.4,176.5
		c-13.2,46.4-64.9,74-115.5,61.6c-31-7.6-54.3-28.4-64.7-54c-6.6-16.2-8-34.4-2.9-52.4c13.2-46.4,64.9-74,115.5-61.7
		C439.3,82.5,469.6,130.1,456.4,176.5z"/>
	<path class="st10" d="M456.4,165.7c-13.2,46.4-64.9,74-115.5,61.7c-31-7.6-54.3-28.4-64.7-54c-3.2-7.9-5.2-16.2-5.8-24.7
		c-0.8,12.3,1.2,24.3,5.8,35.5c10.4,25.7,33.8,46.4,64.7,54c50.6,12.3,102.3-15.2,115.5-61.6c2.6-9.2,3.5-18.3,2.9-27.3
		C458.8,154.7,457.9,160.2,456.4,165.7z"/>
	
		<linearGradient id="SVGID_00000090983953455589073920000015610412772526753723_" gradientUnits="userSpaceOnUse" x1="366.1948" y1="180.0588" x2="366.1948" y2="57.7058">
		<stop  offset="0" style="stop-color:#330600"/>
		<stop  offset="0.1547" style="stop-color:#420C03"/>
		<stop  offset="0.4601" style="stop-color:#581507"/>
		<stop  offset="0.7484" style="stop-color:#661A09"/>
		<stop  offset="1" style="stop-color:#6B1C0A"/>
	</linearGradient>
	<path style="fill:url(#SVGID_00000090983953455589073920000015610412772526753723_);" d="M300.3,106.3c0,0,26.5-4.5,36.5-14.7
		c10-10.2,7.1-14.6,32.1-8.8c25.1,5.8,29.8,17.7,23.5,41.7c-6.3,23.9-10.7,51.8,2.5,55.4c13.2,3.5,7.5-47.9,11.6-75.6
		c4.1-27.6,34.6-5.2,34.6,20.2c0,25.4,20,34.1,21,12.3c1-21.9-11.6-50.3-49.4-69.6c-37.8-19.4-106.9-9.9-134.5,37.1
		C250.8,151.3,300.3,106.3,300.3,106.3z"/>
	<path class="st5" d="M459.3,116.2c0.1,1.4,0.1,2.8,0,4.3c-0.9,20.6-12.8,22.3-12.8-1.6c0-24-40.5-51.7-43.4-28.7
		c-3.3,26.1,0,76.6-6.6,76.4c-12.9-0.3-4.5-29.9,1.5-52.4c6-22.6-5.6-36-29.2-41.5c-23.6-5.5-24.7,0.3-34.1,9.9
		c-9.4,9.6-27.9,9.2-27.9,9.2s-36,32.7-27.1,10.7c-0.4,0.6-0.9,1.2-1.3,1.9c-27.6,47.1,21.9,2,21.9,2s26.5-4.5,36.5-14.7
		c10-10.2,7.1-14.6,32.1-8.8c25.1,5.8,29.8,17.7,23.5,41.7c-6.3,23.9-10.7,51.8,2.5,55.4c13.2,3.5,7.5-47.9,11.6-75.6
		c4.1-27.6,34.6-5.2,34.6,20.2c0,25.4,20,34.1,21,12.3C462.6,130.3,461.7,123.3,459.3,116.2z"/>
	<g>
		
			<linearGradient id="SVGID_00000025424596995595180840000012560645964075355010_" gradientUnits="userSpaceOnUse" x1="246.2315" y1="512" x2="246.2315" y2="200.5252">
			<stop  offset="4.848480e-02" style="stop-color:#8ADEDE"/>
			<stop  offset="0.6592" style="stop-color:#B6F0F0"/>
			<stop  offset="1" style="stop-color:#C9F8F8"/>
		</linearGradient>
		<path style="fill:url(#SVGID_00000025424596995595180840000012560645964075355010_);" d="M460,200.5c0,0-17.6,12.7-213.8,12.8
			c-170.9,0.1-213.8-12.8-213.8-12.8c22.8,132.3,182.2,130.7,186.9,165.3c5.3,39.9,15.6,80.5-13.6,87.6
			c-41.4,10.1-135.2,31.6-62.5,45.9c76.3,15,103.1,12.5,103.1,12.5s26.9,2.5,103.1-12.5c72.7-14.3-22.9-31.6-62.5-45.9
			c-21.8-7.9-13.6-47.4-13.6-87.6C273.1,331.2,437.2,332.8,460,200.5z"/>
	</g>
	<g class="st13">
		<path class="st14" d="M246.2,220.7c166.8-0.1,204.5-9.3,212.1-12.1c0.6-2.7,1.3-5.3,1.7-8.1c0,0-17.6,12.7-213.8,12.8
			c-170.9,0.1-213.8-12.8-213.8-12.8c0.5,2.7,1.1,5.2,1.7,7.8C43.3,210.5,93.9,220.8,246.2,220.7z"/>
		<path class="st14" d="M286.8,453.4c-16.9-6.1-13.6-33.1-13.7-67.7c-0.1,36.7-4.3,68.5,13.7,75c27.1,9.8,71.5,20.9,84.2,31.6
			C388.5,479.6,320.2,465.5,286.8,453.4z"/>
		<path class="st14" d="M223.3,401.7c-0.5,25.5-0.5,47.5-17.7,51.7c-34.5,8.4-100.3,24.8-84.8,38.2c11.8-11.7,56.3-24,84.8-30.9
			C224.4,456.2,223.7,430.2,223.3,401.7z"/>
	</g>
	<g>
		<path class="st15" d="M371,485c-3.3,2.4-10.2,4.7-21.6,7c-76.3,15-103.1,12.5-103.1,12.5S219.4,507,143.1,492
			c-12.1-2.4-19.1-5-22.2-7.7c-5.4,5.4-0.6,10.6,22.2,15c76.3,15,103.1,12.5,103.1,12.5s26.9,2.5,103.1-12.5
			C372.4,494.8,376.9,489.9,371,485z"/>
		<path class="st15" d="M219.3,365.8c1.9,14.2,3.7,21.8,4,37.7c0.3-18-1.8-28.5-4-45C214.8,324.5,62.2,325.3,34.1,201
			c-1.1-0.3-1.7-0.4-1.7-0.4C55.3,332.8,214.7,331.2,219.3,365.8z"/>
		<path class="st15" d="M273.2,358.4c0,9-0.1,9.9-0.1,19.9c0-7.5,0.1-5.7,0.1-12.6c0-34.6,164-33,186.9-165.3c0,0-0.4,0.3-1.7,0.8
			C429.8,325.3,273.1,324.6,273.2,358.4z"/>
	</g>
</g>
</svg>
