<?xml version="1.0" encoding="utf-8"?>
<!-- Generator: Adobe Illustrator 27.0.0, SVG Export Plug-In . SVG Version: 6.00 Build 0)  -->
<svg version="1.1" id="Layer_1" xmlns="http://www.w3.org/2000/svg" xmlns:xlink="http://www.w3.org/1999/xlink" x="0px" y="0px"
	 viewBox="0 0 512 512" style="enable-background:new 0 0 512 512;" xml:space="preserve">
<style type="text/css">
	.st0{fill:url(#SVGID_1_);}
	.st1{fill:#DAEDED;}
	.st2{fill:url(#SVGID_00000028294948522026867580000007053984515810131380_);}
	.st3{fill:#87552E;}
	.st4{fill:#FADAB2;}
	.st5{fill:#F5DDBD;}
	.st6{fill:#C0EAED;}
	.st7{fill:url(#SVGID_00000149363315206430100280000013139592079795738249_);}
	.st8{fill:url(#SVGID_00000006708987072773226520000013502528694958513828_);}
	.st9{fill:url(#SVGID_00000018199291635903664730000018033439509056486061_);}
	.st10{fill:#8A0707;}
	.st11{fill:url(#SVGID_00000072276136433790453710000007519067182472648383_);}
	.st12{fill:#EE4230;}
	.st13{fill:url(#SVGID_00000155851277502710928260000000957999296358471848_);}
</style>
<g>
	<g>
		
			<linearGradient id="SVGID_1_" gradientUnits="userSpaceOnUse" x1="325.5799" y1="281.0537" x2="325.5799" y2="184.4125" gradientTransform="matrix(-0.6516 0.7586 0.7586 0.6516 355.1529 -173.5388)">
			<stop  offset="4.848480e-02" style="stop-color:#CCEDED"/>
			<stop  offset="0.6322" style="stop-color:#E6F5F5"/>
			<stop  offset="1" style="stop-color:#F0F8F8"/>
		</linearGradient>
		<path class="st0" d="M360.3,204c3.4-9.6-9.1-30.6-28.5-23.8c-19.4,6.8-9.4,23.6-23.4,26.5c-14,3-41.5,5.6-41.5,5.6l2.8,39.5
			c0,0,35.6-10.5,40.5-8c10.3,5.2,18.9,20.6,35.4,16.8c13.8-3.1,33.1-24.1,16-40.2c-5.7-5.3-15.5,1.3-14.4-0.2
			C349.9,216.3,357,213.7,360.3,204z"/>
		<g>
			<path class="st1" d="M346.9,218.5c2.8-3.9,6.8-6,10.2-15.7c1.8-5.2,0.6-13.9-5.6-19.6c7.2,5.6,10.8,15.2,8.8,20.8
				c-2.7,7.7-9.9,13.3-13.2,16.2C344.6,220.9,346.4,219.2,346.9,218.5z"/>
			<path class="st1" d="M344.3,257.6c13.6-3.1,32.2-21.8,16.4-37.8c0.3,0.2,0.6,0.3,0.9,0.6c17.1,16.1-2.2,37-16,40.2
				c-10.8,2.5-18.2-3.3-24.9-9C327,256.8,334.3,259.9,344.3,257.6z"/>
			<path class="st1" d="M308.6,242.4c2.8,1.4,5.5,3.6,8.3,6c-2.2-1.8-4.4-3.5-6.7-4.7c-4.9-2.5-40.5,8-40.5,8l-0.7-3.3
				C275.7,246.5,304.3,240.2,308.6,242.4z"/>
		</g>
		
			<linearGradient id="SVGID_00000018203338985465721210000016936961904149364120_" gradientUnits="userSpaceOnUse" x1="458.9068" y1="216.4864" x2="458.9068" y2="-18.2005" gradientTransform="matrix(-0.6516 0.7586 0.7586 0.6516 355.1529 -173.5388)">
			<stop  offset="4.848480e-02" style="stop-color:#C46D1D"/>
			<stop  offset="0.2565" style="stop-color:#C87222"/>
			<stop  offset="0.5158" style="stop-color:#D4822F"/>
			<stop  offset="0.8012" style="stop-color:#E89B44"/>
			<stop  offset="1" style="stop-color:#FAB157"/>
		</linearGradient>
		<path style="fill:url(#SVGID_00000018203338985465721210000016936961904149364120_);" d="M271.9,203.1c-10-7.4-105-89.1-159.5-75
			c-54.5,14-122.6,69.7-111.6,126.5c11,56.9,68.2,86.1,86.7,88.3c18.5,2.2,77.1,3.5,106.7-20.8c29.6-24.3,74.8-63.3,81.5-70.9
			c6.7-7.6-4.3-12.3-0.3-22.8C281.3,212.9,288.6,215.4,271.9,203.1z"/>
		<path class="st3" d="M274.8,208.4c-10-7.4-107.2-83.7-161.7-69.6C58.6,152.8-7.3,203.1,3.7,259.9c1.8,9.4,5,18,9,25.9
			c-5.4-9.3-9.6-19.7-11.8-31.2c-11-56.9,57.1-112.5,111.6-126.5c54.5-14.1,149.5,67.7,159.5,75c8.2,6,10.6,8.5,10.2,11.3
			C280.5,212.8,278.2,210.9,274.8,208.4z"/>
		<g>
			<path class="st4" d="M276,224c2.2-5.9,4.6-9.2,5.9-11.7c1.5,3.7-2.8,6.3-6.5,16.2c-0.4,1-0.5,1.9-0.6,2.8
				C274.6,229.3,274.8,227.1,276,224z"/>
			<path class="st4" d="M82.2,341.8c-0.9-0.2-1.8-0.5-2.8-0.8c-0.7-0.2-1.5-0.5-2.3-0.8c-0.8-0.3-1.7-0.6-2.6-1
				c-0.9-0.4-1.9-0.8-3-1.2c-0.7-0.3-1.5-0.7-2.3-1c-1.2-0.6-2.4-1.1-3.6-1.8c-0.6-0.3-1.2-0.6-1.8-1c-1.4-0.8-2.9-1.5-4.3-2.4
				c-0.4-0.2-0.8-0.5-1.2-0.7c-1.7-1-3.4-2.1-5.2-3.2c0,0,0,0-0.1,0c-13.9-9.2-28.7-22.5-39.3-40c0,0,0,0,0-0.1
				c-1.5-2.5-2.9-5-4.2-7.7c0-0.1-0.1-0.2-0.1-0.2c-1.3-2.6-2.5-5.3-3.6-8.1l0,0C25.7,312.1,68.5,333.1,84,335
				c18.5,2.2,77.1,3.5,106.7-20.8c29.6-24.3,74.8-63.3,81.5-70.9c2.2-2.5,2.9-4.4,3-6.1c1.6,5,4.9,8.9,0.4,14
				c-6.7,7.6-52,46.6-81.5,70.9c-29.6,24.3-88.2,22.9-106.7,20.8c-1.1-0.1-2.3-0.4-3.7-0.7C83.3,342.1,82.8,341.9,82.2,341.8z"/>
		</g>
		<g>
			<path class="st5" d="M34.7,218c-3.4-1.4,5.6-27.1,20.1-57.4c1.2-2.5,2.4-4.9,3.6-7.3c6.3-4.3,12.8-8.3,19.5-11.7
				c-3.1,7.4-6.7,15.6-10.8,24.2C52.5,196.1,38.1,219.5,34.7,218z"/>
			<path class="st5" d="M86.4,170.3c7.4-15.5,14.8-29.6,21.2-40.9c1.6-0.5,3.2-0.9,4.8-1.3c3.2-0.8,6.5-1.3,9.9-1.5
				c-4.9,13.3-12.4,30.9-21.5,50c-18.8,39.3-37.3,69.8-41.3,68C55.6,242.8,67.6,209.6,86.4,170.3z"/>
			<path class="st5" d="M122.5,183.1c10-21,20.1-39.5,28.4-52.8c4.5,1.3,9,2.8,13.6,4.5c-5,14.7-13.3,34.6-23.6,56.1
				c-20.5,42.8-41.2,75.7-46.2,73.5C89.6,262.3,102.1,225.9,122.5,183.1z"/>
			<path class="st5" d="M168,189.4c7.9-16.5,15.7-31.3,22.3-42.5c3.4,1.8,6.6,3.6,9.9,5.5c-4.5,11.9-11,26.8-18.6,42.8
				c-17.6,36.7-34.8,65.2-38.6,63.6C139.2,257.1,150.4,226,168,189.4z"/>
			<path class="st5" d="M209.5,185.3c3.6-7.5,7.1-14.5,10.5-20.6c2.7,1.8,5.3,3.5,7.8,5.3c-2.5,6-5.5,12.5-8.8,19.4
				c-12.4,25.9-24.6,46-27.2,44.9C189.3,233.1,197.2,211.2,209.5,185.3z"/>
		</g>
		<path class="st6" d="M347.2,186.4c1.1,2.8-9.2,2.4-13.5,6.1c-4.3,3.7-11.4,13.2-13.2,11.7c-1.8-1.5,1.2-12.6,7.7-18.1
			C333,182.1,345.3,181.6,347.2,186.4z"/>
		<path class="st6" d="M363.8,230.9c-0.9,2.2-6.5-3.2-10.8-3.1c-4.4,0.1-13.4,2.2-13.6,0.4c-0.2-1.8,7.3-7.1,13.9-7.1
			C358,221.1,365.3,227,363.8,230.9z"/>
	</g>
	<g>
		
			<linearGradient id="SVGID_00000031167101573090327710000006838917410978152622_" gradientUnits="userSpaceOnUse" x1="248.6923" y1="409.9509" x2="248.6923" y2="295.344" gradientTransform="matrix(0.9309 0.3652 -0.3652 0.9309 68.0817 -93.726)">
			<stop  offset="4.848480e-02" style="stop-color:#CCEDED"/>
			<stop  offset="0.6322" style="stop-color:#E6F5F5"/>
			<stop  offset="1" style="stop-color:#F0F8F8"/>
		</linearGradient>
		<path style="fill:url(#SVGID_00000031167101573090327710000006838917410978152622_);" d="M118.8,326c-8.5-8.2-7.1-37.5,16.1-41.3
			c23.2-3.8,22,19.6,37.6,14.9c15.7-4.7,44.7-17.6,44.7-17.6l18.2,43.4c0,0-41.4,8.9-45,14.3c-7.6,11.3-8.1,32.4-26.8,37.7
			c-15.5,4.5-46.1-6.8-37.4-33.4c2.9-8.8,16.3-7.4,14.4-8.4C135.8,333.1,127.4,334.4,118.8,326z"/>
		<g>
			<path class="st1" d="M140,333.7c-4.9-2.5-10.1-2.5-18.6-10.8c-4.6-4.5-7.9-14.4-4.8-23.9c-4.3,9.9-2.8,22.1,2.2,27
				c6.8,6.6,17,8.4,21.9,9.6C143.7,335,140.8,334.2,140,333.7z"/>
			<path class="st1" d="M163.4,373.6c-15.3,4.4-44-4.9-36.5-30.7c-0.2,0.4-0.5,0.7-0.6,1.1c-8.7,26.6,21.8,37.9,37.4,33.4
				c12.2-3.5,16.6-13.7,20.4-23.5C180.4,363,174.6,370.4,163.4,373.6z"/>
			<path class="st1" d="M191.3,337.4c-2.1,3.1-3.6,7-5.2,11c1.3-3.2,2.6-6.2,4.3-8.7c3.6-5.4,45-14.3,45-14.3l-1.1-3.9
				C226.6,323.3,194.5,332.7,191.3,337.4z"/>
		</g>
		
			<linearGradient id="SVGID_00000158013167322236393910000015175209136071615640_" gradientUnits="userSpaceOnUse" x1="399.627" y1="334.0066" x2="399.627" y2="56.222" gradientTransform="matrix(0.9309 0.3652 -0.3652 0.9309 68.0817 -93.726)">
			<stop  offset="4.848480e-02" style="stop-color:#C46D1D"/>
			<stop  offset="0.2565" style="stop-color:#C87222"/>
			<stop  offset="0.5158" style="stop-color:#D4822F"/>
			<stop  offset="0.8012" style="stop-color:#E89B44"/>
			<stop  offset="1" style="stop-color:#FAB157"/>
		</linearGradient>
		<path style="fill:url(#SVGID_00000158013167322236393910000015175209136071615640_);" d="M207.3,275.2
			c6.2-13.4,58.5-153.3,120.8-169.2c62.4-15.9,160.4,4.5,179.5,70.8c19.1,66.3-23,129.4-40.4,142.2c-17.4,12.7-75.8,47.2-118.4,38.2
			c-42.7-9-108.9-24.7-119.7-29c-10.8-4.3-2.3-15.5-11.8-24.2C203.1,290.8,197,297.6,207.3,275.2z"/>
		<path class="st3" d="M207.3,282.5c6.2-13.4,63.6-148.9,125.9-164.8c62.3-15.9,155.3,0.1,174.4,66.4c3.2,11,4.5,21.8,4.7,32.4
			c0.4-12.8-0.8-26.2-4.7-39.7c-19.1-66.3-117.1-86.8-179.5-70.8c-62.3,15.9-114.7,155.8-120.8,169.2c-5,10.9-6.1,14.9-4.3,17.7
			C203.8,290.3,205.2,287,207.3,282.5z"/>
		<g>
			<path class="st4" d="M214.3,299.6c-5.4-5-9.5-7.1-12.1-9c0.4,4.7,6.2,5.1,15.1,13.4c0.9,0.8,1.5,1.7,2.1,2.6
				C218.5,304.5,217.1,302.2,214.3,299.6z"/>
			<path class="st4" d="M471.9,314.8c0.8-0.7,1.5-1.5,2.4-2.4c0.6-0.7,1.3-1.4,1.9-2.2c0.7-0.8,1.4-1.6,2.1-2.4c0.8-0.9,1.5-2,2.3-3
				c0.6-0.8,1.2-1.5,1.7-2.3c0.9-1.3,1.8-2.6,2.7-3.9c0.4-0.7,0.9-1.3,1.3-2c1-1.6,2.1-3.3,3.1-5c0.3-0.5,0.6-0.9,0.8-1.4
				c1.2-2,2.4-4.1,3.5-6.3c0,0,0,0,0-0.1c9.2-17.6,17-40,18.4-64.4c0,0,0,0,0-0.1c0.2-3.5,0.3-6.9,0.2-10.5c0-0.1,0-0.2,0-0.3
				c-0.1-3.5-0.3-7.1-0.7-10.7l0,0c1.4,53.9-30.5,100.2-45.1,110.9c-17.4,12.7-75.8,47.2-118.4,38.2c-42.7-9-108.9-24.7-119.7-28.9
				c-3.6-1.4-5.3-3-6.3-4.7c1.1,6.2-0.3,12.2,6.9,15c10.8,4.3,77,20,119.7,29c42.6,9,101-25.5,118.4-38.2c1-0.8,2.2-1.7,3.3-2.8
				C471,315.8,471.4,315.3,471.9,314.8z"/>
		</g>
		<g>
			<path class="st5" d="M454.1,157.3c2.6-3.4-20.1-25.5-50.7-49.3c-2.5-2-5-3.8-7.4-5.7c-8.6-1-17.3-1.5-25.8-1.4
				c7,6.1,15,12.7,23.7,19.5C424.5,144.2,451.5,160.7,454.1,157.3z"/>
			<path class="st5" d="M376.8,136c-15.7-12.2-30.6-23-43.1-31.3c-1.9,0.4-3.8,0.8-5.6,1.3c-3.6,0.9-7.2,2.3-10.8,4
				c12,11.3,28.8,25.7,48.1,40.7c39.8,30.9,74.5,52.7,77.7,48.6C446.2,195.3,416.5,166.9,376.8,136z"/>
			<path class="st5" d="M347.2,169.8c-21.2-16.5-41.2-30.4-56.6-39.8c-3.8,3.8-7.6,8-11.3,12.5c12.9,12.7,31.8,29.1,53.5,46
				c43.3,33.7,81.6,56.8,85.5,51.6C422.3,235,390.4,203.5,347.2,169.8z"/>
			<path class="st5" d="M304.7,202.1c-16.7-13-32.5-24.3-45-32.4c-2.4,3.8-4.7,7.6-7,11.4c10.9,10,25.3,22.1,41.5,34.7
				c37.2,28.9,69.7,49.2,72.6,45.5C369.6,257.5,341.9,231,304.7,202.1z"/>
			<path class="st5" d="M260.7,221.2c-7.6-5.9-14.9-11.3-21.5-15.9c-1.8,3.4-3.5,6.7-5.1,10c5.7,4.9,12.2,10.2,19.1,15.6
				c26.2,20.4,49.1,34.8,51.2,32.1C306.5,260.3,286.9,241.6,260.7,221.2z"/>
		</g>
		<path class="st6" d="M122.7,300c0.4,3.6,10.5-2.7,16.9-1.2c6.3,1.5,18.5,7.5,19.5,4.9c1-2.6-7.9-12.7-17.4-14.8
			C134.7,287.4,122,293.8,122.7,300z"/>
		<path class="st6" d="M129.6,356.4c2,1.9,4.8-7,9.2-9.4c4.5-2.4,14.7-5.2,13.9-7.2c-0.7-2-11.1-3.4-17.7,0.3
			C130.2,342.8,126,353.1,129.6,356.4z"/>
	</g>
	<g>
		
			<linearGradient id="SVGID_00000062178505348980916560000009856393030039266453_" gradientUnits="userSpaceOnUse" x1="332.5127" y1="335.9332" x2="332.5127" y2="276.644">
			<stop  offset="0" style="stop-color:#A80909"/>
			<stop  offset="0.8611" style="stop-color:#E63B2B"/>
			<stop  offset="1" style="stop-color:#F04431"/>
		</linearGradient>
		<path style="fill:url(#SVGID_00000062178505348980916560000009856393030039266453_);" d="M263.8,306.7c0,0,9-14.8,31.2-15
			c29.8-0.2,55.2,11.4,71,4.9c13.4-5.5,14.1-17.6,5.4-25c0,0,36.1,17,28.9,40.2c-7.2,23.2-82.9,31.1-103.1,17.6
			C277,315.9,263.8,306.7,263.8,306.7z"/>
		<g>
			<path class="st10" d="M375.1,275.9c7.9,4.5,25.7,16.3,26,31.7c2.1-21-29.7-36-29.7-36C372.9,272.9,374.2,274.4,375.1,275.9z"/>
			<path class="st10" d="M295,294.1c29.8-0.2,55.2,11.4,71,4.9c8.2-3.4,11.7-9.3,11.1-15c-0.4,5-4,9.8-11.1,12.7
				c-15.8,6.5-41.2-5.1-71-4.9c-22.1,0.1-31.2,15-31.2,15s0.4,0.3,1.1,0.8C268,303.7,277.3,294.2,295,294.1z"/>
		</g>
		
			<linearGradient id="SVGID_00000026139043958754877470000001597441063770838172_" gradientUnits="userSpaceOnUse" x1="332.4737" y1="391.0964" x2="332.4737" y2="322.1977">
			<stop  offset="4.848480e-02" style="stop-color:#8ADEDE"/>
			<stop  offset="0.6592" style="stop-color:#B6F0F0"/>
			<stop  offset="1" style="stop-color:#C9F8F8"/>
		</linearGradient>
		<path style="fill:url(#SVGID_00000026139043958754877470000001597441063770838172_);" d="M332.5,326.6l-74.2-10.3
			c0,0,5.5,44.5,9.8,56.4c4.4,11.9,30.6,18.4,64.5,18.4c33.8,0,60-6.5,64.4-18.4c4.4-11.9,9.8-56.4,9.8-56.4L332.5,326.6z"/>
		<path class="st12" d="M398.3,304c-43.2,10.5-88.3,10.5-131.6,0c-0.2-0.1-0.5-0.1-0.7-0.1c-1.5,1.6-2.2,2.8-2.2,2.8
			s11.3,7.9,28.9,19.7c31.9,4.3,64.4,3.4,96.1-2.7c5.9-3.4,10-7.3,11.4-11.9c0.9-2.7,1.1-5.4,0.8-7.9
			C400.2,303.8,399.2,303.8,398.3,304z"/>
		<path class="st1" d="M396.9,367.5c-4.4,11.9-30.5,18.4-64.4,18.4c-33.8,0-60.1-6.5-64.5-18.4c-3.4-9.4-7.6-39-9.1-51.1l-0.7-0.1
			c0,0,5.5,44.5,9.8,56.4c4.4,11.9,30.6,18.4,64.5,18.4c33.8,0,60-6.5,64.4-18.4c4.4-11.9,9.8-56.4,9.8-56.4l-0.7,0.1
			C404.5,328.5,400.4,358.2,396.9,367.5z"/>
		
			<linearGradient id="SVGID_00000153696967282572694010000006115564467791601045_" gradientUnits="userSpaceOnUse" x1="332.4779" y1="331.5174" x2="332.4779" y2="311.7185">
			<stop  offset="4.848480e-02" style="stop-color:#8ADEDE"/>
			<stop  offset="0.6592" style="stop-color:#B6F0F0"/>
			<stop  offset="1" style="stop-color:#C9F8F8"/>
		</linearGradient>
		<path style="fill:url(#SVGID_00000153696967282572694010000006115564467791601045_);" d="M409,312.5c-1.3-4.6-6.1-7.3-10.7-6.2
			c-43.2,10.5-88.3,10.5-131.6,0c-4.7-1.1-9.5,1.6-10.7,6.2l0,0c-1.3,4.6,1.7,9.5,6.7,10.7c45.9,11.1,93.7,11.1,139.6,0
			C407.3,322,410.3,317.1,409,312.5L409,312.5z"/>
		<path class="st6" d="M256,314.8c1.3-4.6,6.1-7.3,10.7-6.1c43.2,10.5,88.3,10.5,131.6,0c4.7-1.1,9.4,1.5,10.7,6.1
			c0.1,0.4,0.2,0.8,0.2,1.2c0.2-1.1,0.1-2.3-0.2-3.4c-1.3-4.6-6.1-7.3-10.7-6.2c-43.2,10.5-88.3,10.5-131.6,0
			c-4.7-1.1-9.5,1.6-10.7,6.2c-0.3,1.2-0.4,2.3-0.2,3.4C255.8,315.6,255.8,315.2,256,314.8z"/>
		<path class="st1" d="M402.3,320.7c-45.9,11.1-93.7,11.1-139.6,0c-3.7-0.9-6.3-3.8-6.9-7.1c-0.6,4.3,2.3,8.5,6.9,9.6
			c45.9,11.1,93.7,11.1,139.6,0c4.6-1.1,7.5-5.4,6.9-9.6C408.6,316.9,406,319.8,402.3,320.7z"/>
	</g>
</g>
</svg>
