<?xml version="1.0" encoding="utf-8"?>
<!-- Generator: Adobe Illustrator 27.0.0, SVG Export Plug-In . SVG Version: 6.00 Build 0)  -->
<svg version="1.1" id="Layer_1" xmlns="http://www.w3.org/2000/svg" xmlns:xlink="http://www.w3.org/1999/xlink" x="0px" y="0px"
	 viewBox="0 0 512 512" style="enable-background:new 0 0 512 512;" xml:space="preserve">
<style type="text/css">
	.st0{fill:url(#SVGID_1_);}
	.st1{fill:url(#SVGID_00000044866169863551012310000017255923392987911064_);}
	.st2{fill:#5C2D1E;}
	.st3{fill:url(#SVGID_00000029016236146800668920000015436376258423497391_);}
	.st4{fill:#FADAB2;}
	.st5{fill:url(#SVGID_00000077312729745399571370000002256245130304043669_);}
	.st6{fill:url(#SVGID_00000119806170829655690520000013509873786368429203_);}
	.st7{fill:url(#SVGID_00000036252835205146976920000003647641200662347185_);}
	.st8{fill:#FDF3C8;}
	.st9{fill:#AD020D;}
	.st10{fill:url(#SVGID_00000059300139211222075690000015764099656421346982_);}
	.st11{fill:url(#SVGID_00000102523408136092998830000003926874813278738840_);}
	.st12{fill:url(#SVGID_00000098935417412375678130000004798447749962466190_);}
	.st13{fill:url(#SVGID_00000011712065689736139480000011535146358007500672_);}
	.st14{fill:url(#SVGID_00000145046535194935965730000000932412298003091353_);}
	.st15{fill:url(#SVGID_00000129165062044677645080000011567645213900028345_);}
	.st16{fill:url(#SVGID_00000045581485598920420100000009793135243026119327_);}
	.st17{fill:url(#SVGID_00000060004496155551325500000002471415450915969430_);}
	.st18{fill:url(#SVGID_00000177457557187589990940000017919420880077775270_);}
	.st19{fill:url(#SVGID_00000171709230678666860920000017582693803123445890_);}
	.st20{fill:url(#SVGID_00000054236830537750752970000001940327702704116358_);}
	.st21{fill:#EE4230;}
	.st22{fill:#FF5F1A;}
	.st23{fill:url(#SVGID_00000169529192089256594480000005089411923114447265_);}
	.st24{fill:url(#SVGID_00000060003388089037361490000004551008085638555010_);}
	.st25{fill:url(#SVGID_00000139263987917096347430000011185335056736962211_);}
	.st26{fill:url(#SVGID_00000006678452456745275540000008247422528453623981_);}
	.st27{fill:url(#SVGID_00000141428298097620558770000002169752436873287338_);}
	.st28{fill:url(#SVGID_00000083083644560406379470000013274539745282935979_);}
	.st29{fill:url(#SVGID_00000034090049281755330720000013145647539057295026_);}
	.st30{fill:url(#SVGID_00000070116106393364767470000015084623738750104721_);}
	.st31{fill:url(#SVGID_00000123408541327269454660000001650172655761436039_);}
	.st32{fill:url(#SVGID_00000132063852284086595310000011182632100910679216_);}
	.st33{fill:url(#SVGID_00000047055115310455621670000001664448003220498592_);}
	.st34{fill:url(#SVGID_00000091010225554166909900000007254873120982049983_);}
	.st35{fill:url(#SVGID_00000139981388933821794670000012719709364776094100_);}
	.st36{fill:url(#SVGID_00000054252659459120377600000007675988677848606633_);}
	.st37{fill:url(#SVGID_00000079454992517984366510000013041362988486014104_);}
</style>
<g>
	<linearGradient id="SVGID_1_" gradientUnits="userSpaceOnUse" x1="163.4635" y1="272.7407" x2="163.4635" y2="-1.818989e-12">
		<stop  offset="0" style="stop-color:#DB8935"/>
		<stop  offset="0.1333" style="stop-color:#E59640"/>
		<stop  offset="0.3546" style="stop-color:#F1A54D"/>
		<stop  offset="0.6139" style="stop-color:#F8AE55"/>
		<stop  offset="1" style="stop-color:#FAB157"/>
	</linearGradient>
	<path class="st0" d="M249.6,269.6c5.5,5.5,10,3.6,10-4.1V11.4c0-7.8-6.2-12.8-13.8-11c0,0-45.6,1.9-93.8,22.3
		c-47.5,20.1-79.2,50.4-79.2,50.4c-6.4,4.4-7.2,12.4-1.7,18L249.6,269.6z"/>
	
		<linearGradient id="SVGID_00000133517080591690928690000017108253115503280812_" gradientUnits="userSpaceOnUse" x1="175.2414" y1="266.0189" x2="175.2414" y2="24.8313">
		<stop  offset="0.303" style="stop-color:#FFAD4F"/>
		<stop  offset="1" style="stop-color:#FAA843"/>
	</linearGradient>
	<path style="fill:url(#SVGID_00000133517080591690928690000017108253115503280812_);" d="M253.2,266c-0.4-0.1-1.2-0.6-2.3-1.8
		l-152-162.6c-1.6-1.7-2.3-3.7-2.1-5.7c0.2-2,1.3-3.9,3.1-5.2l0.2-0.2l0.2-0.2c0.3-0.3,27.1-27.4,66.5-45.3c40-18.1,78.3-20,78.7-20
		l0.3,0L246,25c0.6-0.1,1.2-0.2,1.8-0.2c3.5,0,5.9,2.7,5.9,6.8V263C253.7,264.7,253.4,265.6,253.2,266z"/>
	<path class="st2" d="M164.4,169.5L164.4,169.5c4-3.9,10.4-3.7,14.3,0.3c3.9,4,3.7,10.4-0.3,14.3l0,0l5.7,5.9h0
		c7.3-7,7.5-18.6,0.5-25.9c-7-7.3-18.6-7.5-25.9-0.5l0,0L164.4,169.5z"/>
	
		<linearGradient id="SVGID_00000176754763763491160660000015027533587754084236_" gradientUnits="userSpaceOnUse" x1="166.0515" y1="93.054" x2="166.0515" y2="12.463">
		<stop  offset="0" style="stop-color:#DB8935"/>
		<stop  offset="0.1333" style="stop-color:#E59640"/>
		<stop  offset="0.3546" style="stop-color:#F1A54D"/>
		<stop  offset="0.6139" style="stop-color:#F8AE55"/>
		<stop  offset="1" style="stop-color:#FAB157"/>
	</linearGradient>
	<path style="fill:url(#SVGID_00000176754763763491160660000015027533587754084236_);" d="M103.2,69.1c0,0-20.1,2.7-21.4,13.6
		C80,97.7,102.7,95.1,111,83.3c8.3-11.8,14.3-15.4,24.9-18.9c10.6-3.5,21.4-10.6,29-16.6c7.6-5.9,33.3-11.9,39.4-13
		c6.1-1.2,49.1-1.8,45.9-13.6c-3.2-11.8-14.9-8.9-25-6.5c-10.1,2.4-35.5,7.1-48.2,10.7c-12.7,3.5-32.7,5.4-41.1,16.4
		C127.6,52.5,106.1,58.4,103.2,69.1z"/>
	<path class="st4" d="M103.2,69.1c0,0-20.1,2.7-21.4,13.6C80,97.7,102.7,95.1,111,83.3c8.3-11.8,14.3-15.4,24.9-18.9
		c10.6-3.5,21.4-10.6,29-16.6c7.6-5.9,33.3-11.9,39.4-13c6.1-1.2,49.1-1.8,45.9-13.6c-3.2-11.8-14.9-8.9-25-6.5
		c-10.1,2.4-35.5,7.1-48.2,10.7c-12.7,3.5-32.7,5.4-41.1,16.4C127.6,52.5,106.1,58.4,103.2,69.1z"/>
	<path class="st4" d="M103.2,69.1c0,0-20.1,2.7-21.4,13.6C80,97.7,102.7,95.1,111,83.3c8.3-11.8,14.3-15.4,24.9-18.9
		c10.6-3.5,21.4-10.6,29-16.6c7.6-5.9,33.3-11.9,39.4-13c6.1-1.2,49.1-1.8,45.9-13.6c-3.2-11.8-14.9-8.9-25-6.5
		c-10.1,2.4-35.5,7.1-48.2,10.7c-12.7,3.5-32.7,5.4-41.1,16.4C127.6,52.5,106.1,58.4,103.2,69.1z"/>
	<path class="st2" d="M174.5,59.3c-10.1,0-18.3,8.2-18.3,18.3s8.2,18.3,18.3,18.3c10.1,0,18.3-8.2,18.3-18.3S184.7,59.3,174.5,59.3z
		 M174.5,87.7c-5.6,0-10.1-4.6-10.1-10.1c0-5.6,4.5-10.1,10.1-10.1s10.1,4.5,10.1,10.1C184.7,83.2,180.1,87.7,174.5,87.7z"/>
	<path class="st2" d="M237.6,128.3c-8.3,0-15,6.7-15,15c0,8.3,6.7,15,15,15c8.3,0,15-6.7,15-15C252.7,135,245.9,128.3,237.6,128.3z
		 M237.6,151.6c-4.6,0-8.3-3.7-8.3-8.3c0-4.6,3.7-8.3,8.3-8.3c4.6,0,8.3,3.7,8.3,8.3C245.9,147.9,242.2,151.6,237.6,151.6z"/>
	
		<linearGradient id="SVGID_00000067928765995559712540000012314706513863371660_" gradientUnits="userSpaceOnUse" x1="194.4174" y1="125.047" x2="194.4174" y2="77.6207">
		<stop  offset="0" style="stop-color:#51740C"/>
		<stop  offset="0.1928" style="stop-color:#5B7F13"/>
		<stop  offset="0.5326" style="stop-color:#759D27"/>
		<stop  offset="0.9768" style="stop-color:#A0CC46"/>
		<stop  offset="1" style="stop-color:#A2CF48"/>
	</linearGradient>
	<path style="fill:url(#SVGID_00000067928765995559712540000012314706513863371660_);" d="M216.8,101.2c3.8-8.4,0-18.4-8.5-22.1
		c-6.6-3-14.1-1.3-18.9,3.7c-0.1-0.1-0.2-0.1-0.3-0.2c-6.6-2.9-14.4,0-17.3,6.6c-3,6.6,0,14.4,6.6,17.3c0.2,0.1,0.4,0.1,0.6,0.2
		c-1,6.9,2.7,13.9,9.4,16.9c8.1,3.6,17.7,0,21.3-8.2c1.1-2.4,1.5-4.9,1.4-7.4C213.5,106.4,215.5,104.1,216.8,101.2z M205.2,107.3
		c0.1,1.7-0.2,3.3-0.9,4.8c-2.4,5.3-8.6,7.7-13.9,5.3c-4.2-1.9-6.7-6.4-6.1-11l0.4-3.1l-3.2-1.2c-4-1.8-5.8-6.4-4.1-10.4
		c1.8-4,6.4-5.7,10.3-4l0.2,0.1l2.6,1.2l2-2c3.2-3.3,8.2-4.3,12.5-2.4c5.6,2.5,8.1,9.1,5.6,14.6c-0.8,1.8-2.1,3.4-3.8,4.6l-1.8,1.2
		L205.2,107.3z"/>
	
		<linearGradient id="SVGID_00000004544756132616502960000007121916451557521802_" gradientUnits="userSpaceOnUse" x1="216.7391" y1="206.7141" x2="216.7391" y2="159.2879">
		<stop  offset="0" style="stop-color:#51740C"/>
		<stop  offset="0.1928" style="stop-color:#5B7F13"/>
		<stop  offset="0.5326" style="stop-color:#759D27"/>
		<stop  offset="0.9768" style="stop-color:#A0CC46"/>
		<stop  offset="1" style="stop-color:#A2CF48"/>
	</linearGradient>
	<path style="fill:url(#SVGID_00000004544756132616502960000007121916451557521802_);" d="M239.1,182.9c3.8-8.4,0-18.4-8.5-22.1
		c-6.6-3-14.1-1.3-18.9,3.7c-0.1-0.1-0.2-0.1-0.3-0.2c-6.6-3-14.4,0-17.3,6.6c-3,6.6,0,14.4,6.6,17.3c0.2,0.1,0.4,0.2,0.6,0.2
		c-1,6.9,2.7,13.9,9.4,16.9c8.1,3.6,17.6,0,21.3-8.1c1.1-2.4,1.5-4.9,1.4-7.4C235.8,188.1,237.8,185.8,239.1,182.9z M227.5,189
		c0.1,1.7-0.2,3.3-0.9,4.8c-2.4,5.3-8.6,7.7-13.9,5.3c-4.2-1.9-6.7-6.4-6.1-11l0.4-3.1l-3.1-1.2c-4-1.8-5.8-6.4-4.1-10.4
		c1.8-3.9,6.4-5.7,10.3-4l0.2,0.1l2.5,1.2l2-2.1c3.2-3.3,8.2-4.3,12.5-2.4c5.6,2.5,8.1,9.1,5.6,14.6c-0.8,1.8-2.1,3.4-3.8,4.5
		l-1.8,1.3L227.5,189z"/>
	<g>
		
			<linearGradient id="SVGID_00000161618643728644123310000005691761993772408251_" gradientUnits="userSpaceOnUse" x1="157.8673" y1="144.1408" x2="157.8673" y2="89.047">
			<stop  offset="0" style="stop-color:#C70000"/>
			<stop  offset="0.1064" style="stop-color:#CD0502"/>
			<stop  offset="0.6652" style="stop-color:#E61C0B"/>
			<stop  offset="1" style="stop-color:#F0250E"/>
		</linearGradient>
		<path style="fill:url(#SVGID_00000161618643728644123310000005691761993772408251_);" d="M183.7,116.6c0,15.2-11.6,27.6-25.8,27.6
			c-14.3,0-25.8-12.3-25.8-27.6c0-15.2,11.5-27.5,25.8-27.5C172.1,89,183.7,101.4,183.7,116.6z"/>
		<path class="st8" d="M155.3,111.7c1.7-0.2,3.3,0.9,3.5,2.5c0.2,1.6-1,3.1-2.7,3.3c-1.7,0.2-3.3-0.9-3.5-2.5
			C152.3,113.4,153.6,111.9,155.3,111.7z"/>
		<path class="st8" d="M143.8,103.5c1.5-0.8,3.4-0.3,4.2,1.1c0.8,1.4,0.2,3.3-1.4,4.1c-1.5,0.8-3.4,0.3-4.2-1.1
			C141.6,106.1,142.3,104.3,143.8,103.5z"/>
		<path class="st8" d="M174.6,108.4c1.5-0.8,3.4-0.3,4.2,1.1c0.8,1.4,0.2,3.3-1.4,4.1c-1.5,0.8-3.4,0.3-4.2-1.1
			C172.4,111.1,173,109.3,174.6,108.4z"/>
		<path class="st8" d="M176.3,121.5c1.5-0.8,3.4-0.3,4.2,1.1c0.8,1.4,0.2,3.2-1.4,4.1c-1.5,0.8-3.4,0.3-4.2-1.1
			C174.1,124.1,174.7,122.3,176.3,121.5z"/>
		<path class="st8" d="M161.5,128.4c1.5-0.8,3.4-0.3,4.2,1.1c0.8,1.4,0.2,3.3-1.4,4.1c-1.5,0.8-3.4,0.3-4.2-1.1
			C159.4,131.1,160,129.3,161.5,128.4z"/>
		<path class="st8" d="M166,97.6c1.5-0.8,3.4-0.3,4.2,1.1c0.8,1.4,0.1,3.3-1.4,4.1c-1.5,0.8-3.4,0.3-4.2-1.1
			C163.8,100.2,164.4,98.4,166,97.6z"/>
		<path class="st8" d="M152.9,99.1c1.1-0.6,2.3-0.2,2.8,0.8c0.5,1,0.1,2.2-0.9,2.8c-1,0.6-2.3,0.2-2.8-0.8
			C151.4,100.9,151.8,99.7,152.9,99.1z"/>
		<path class="st8" d="M146.7,131.2c1-0.6,2.3-0.2,2.8,0.8c0.5,1,0.1,2.2-0.9,2.8c-1,0.6-2.3,0.2-2.8-0.7
			C145.3,133.1,145.7,131.8,146.7,131.2z"/>
		<path class="st8" d="M137.3,117.1c1.1-0.5,2.3-0.2,2.8,0.8c0.5,1,0.1,2.2-0.9,2.8c-1.1,0.6-2.3,0.2-2.8-0.8
			C135.8,119,136.3,117.7,137.3,117.1z"/>
		<path class="st8" d="M168.7,116c1-0.6,2.3-0.2,2.8,0.8c0.5,1,0.1,2.2-0.9,2.8c-1.1,0.6-2.3,0.2-2.9-0.8
			C167.2,117.8,167.7,116.6,168.7,116z"/>
		<path class="st8" d="M148.5,120.7c1-0.6,2.3-0.2,2.8,0.7c0.5,1,0.1,2.3-0.9,2.8c-1.1,0.6-2.3,0.2-2.9-0.8
			C147,122.5,147.5,121.3,148.5,120.7z"/>
		<path class="st9" d="M163.4,114.5c0,1.9-1.5,3.5-3.3,3.5c-1.8,0-3.3-1.6-3.3-3.5c0-1.9,1.5-3.5,3.3-3.5
			C161.9,111,163.4,112.5,163.4,114.5z"/>
		<path class="st9" d="M174,103c0.7,1.8-0.1,3.8-1.8,4.4c-1.7,0.6-3.6-0.3-4.3-2.1c-0.7-1.8,0.1-3.8,1.8-4.4
			C171.4,100.3,173.3,101.2,174,103z"/>
		<path class="st9" d="M164.2,136.1c0.7,1.8-0.1,3.8-1.8,4.4c-1.7,0.6-3.6-0.3-4.3-2.1c-0.7-1.8,0.1-3.8,1.8-4.4
			C161.6,133.3,163.5,134.3,164.2,136.1z"/>
		<path class="st9" d="M149.7,136.1c0.7,1.8-0.1,3.8-1.8,4.4c-1.7,0.6-3.6-0.3-4.3-2.1c-0.7-1.8,0.1-3.8,1.8-4.4
			C147,133.3,149,134.3,149.7,136.1z"/>
		<path class="st9" d="M144.1,118.9c0.7,1.8-0.1,3.8-1.8,4.4c-1.7,0.6-3.6-0.3-4.3-2.1c-0.7-1.8,0.1-3.8,1.8-4.4
			C141.5,116.2,143.4,117.1,144.1,118.9z"/>
		<path class="st9" d="M177.3,128.2c0.7,1.8-0.1,3.8-1.8,4.4c-1.7,0.6-3.6-0.3-4.3-2.1c-0.7-1.8,0.1-3.8,1.8-4.4
			C174.7,125.4,176.6,126.4,177.3,128.2z"/>
		<path class="st9" d="M177.5,113.6c0.5,1.2-0.1,2.6-1.2,3c-1.2,0.5-2.5-0.2-2.9-1.4c-0.5-1.2,0.1-2.6,1.2-3
			C175.8,111.8,177.1,112.4,177.5,113.6z"/>
		<path class="st9" d="M143.1,102.3c0.5,1.2-0.1,2.6-1.2,3c-1.1,0.4-2.4-0.2-2.9-1.4c-0.5-1.2,0.1-2.6,1.2-3
			C141.4,100.4,142.7,101.1,143.1,102.3z"/>
		<path class="st9" d="M159.9,94c0.5,1.2-0.1,2.6-1.2,3c-1.2,0.4-2.5-0.2-2.9-1.4c-0.5-1.2,0.1-2.6,1.2-3
			C158.2,92.1,159.5,92.7,159.9,94z"/>
		<path class="st9" d="M156.7,128.6c0.5,1.2-0.1,2.6-1.2,3c-1.2,0.4-2.5-0.2-2.9-1.4c-0.5-1.2,0.1-2.6,1.2-3
			C154.9,126.7,156.2,127.3,156.7,128.6z"/>
		<path class="st9" d="M154.4,105.8c0.5,1.2-0.1,2.6-1.2,3c-1.2,0.5-2.5-0.2-2.9-1.4c-0.5-1.2,0.1-2.6,1.2-3
			C152.7,103.9,154,104.5,154.4,105.8z"/>
	</g>
	<g>
		
			<linearGradient id="SVGID_00000180346217374392792930000011903202289859389372_" gradientUnits="userSpaceOnUse" x1="236.3632" y1="227.1848" x2="236.3632" y2="168.1327">
			<stop  offset="0" style="stop-color:#C70000"/>
			<stop  offset="0.1064" style="stop-color:#CD0502"/>
			<stop  offset="0.6652" style="stop-color:#E61C0B"/>
			<stop  offset="1" style="stop-color:#F0250E"/>
		</linearGradient>
		<path style="fill:url(#SVGID_00000180346217374392792930000011903202289859389372_);" d="M253.6,215.9c-1.7,0.9-3.6,0.3-4.5-1.2
			c-0.8-1.5-0.2-3.5,1.5-4.4c1-0.6,2.2-0.5,3.2,0v-29.1c-0.3-0.7-0.3-1.5,0-2.1v-10c-2.3-0.6-4.6-1-7.1-1
			c-15.3,0-27.7,13.2-27.7,29.5c0,16.3,12.4,29.5,27.7,29.5c2.4,0,4.8-0.4,7.1-1v-10.4C253.7,215.8,253.6,215.9,253.6,215.9z
			 M245.7,171.9c1.2-0.5,2.6,0.2,3.1,1.5c0.5,1.3-0.1,2.8-1.3,3.2c-1.2,0.5-2.6-0.2-3.2-1.5C243.9,173.8,244.5,172.3,245.7,171.9z
			 M241.3,178.9c1.1-0.6,2.5-0.2,3.1,0.8c0.6,1,0.1,2.4-1,3c-1.1,0.6-2.5,0.2-3.1-0.8C239.7,180.9,240.2,179.5,241.3,178.9z
			 M227.7,180.8c1.2-0.5,2.6,0.2,3.1,1.5c0.2,0.6,0.2,1.3,0,1.8c0.2-0.2,0.4-0.4,0.7-0.5c1.6-0.9,3.6-0.3,4.5,1.2
			c0.8,1.5,0.2,3.5-1.5,4.4c-1.7,0.9-3.7,0.3-4.5-1.2c-0.5-0.9-0.4-1.9,0-2.8c-0.2,0.1-0.3,0.3-0.5,0.3c-1.2,0.5-2.6-0.2-3.1-1.5
			C225.9,182.7,226.5,181.3,227.7,180.8z M225.4,202.6c0-0.1,0-0.2-0.1-0.3c-0.7-0.1-1.4-0.4-1.7-1c-0.6-1-0.1-2.4,1-3
			c0.7-0.4,1.5-0.3,2.2,0c0.2-0.1,0.3-0.3,0.5-0.4c1.8-0.7,3.9,0.3,4.6,2.2c0.7,1.9-0.1,4.1-1.9,4.7
			C228.2,205.6,226.1,204.6,225.4,202.6z M235.9,223.3c-1.8,0.7-3.9-0.3-4.6-2.2c-0.7-1.9,0.1-4.1,1.9-4.7c0.1,0,0.3,0,0.4-0.1
			c-0.5-1,0-2.3,1-2.9c1.1-0.6,2.5-0.2,3,0.8c0.6,1,0.1,2.3-0.9,2.9c0.4,0.4,0.8,0.8,1,1.4C238.6,220.5,237.7,222.6,235.9,223.3z
			 M238.7,205.9c-1.1,0.6-2.5,0.2-3.1-0.8c-0.6-1-0.1-2.4,1-3c1.1-0.6,2.5-0.2,3,0.8C240.2,203.9,239.8,205.3,238.7,205.9z
			 M238.5,187.7c-0.5-1.3,0.1-2.8,1.3-3.2c1.2-0.5,2.6,0.2,3.1,1.5c0.5,1.3-0.1,2.8-1.3,3.2C240.4,189.7,239,189,238.5,187.7z
			 M244.1,213.7c-1.2,0.5-2.6-0.2-3.1-1.5c-0.5-1.3,0.1-2.8,1.3-3.2c1.2-0.5,2.6,0.2,3.1,1.5C245.9,211.8,245.3,213.2,244.1,213.7z
			 M244.7,198.7c-1.9,0.2-3.5-1-3.8-2.7c-0.2-1.7,1.1-3.3,2.9-3.6c0.9-0.1,1.8,0.1,2.5,0.6c0.6-0.8,1.6-1.4,2.7-1.4
			c1.9,0,3.5,1.7,3.5,3.7c0,2.1-1.6,3.7-3.5,3.7c-1,0-2-0.5-2.6-1.3C246,198.2,245.4,198.6,244.7,198.7z M251.5,223.3
			c-1.8,0.7-3.9-0.3-4.6-2.2c-0.7-1.9,0.1-4.1,1.9-4.7c1.8-0.7,3.9,0.3,4.6,2.3C254.1,220.5,253.3,222.6,251.5,223.3z"/>
		<path class="st8" d="M246.4,193c-0.7-0.5-1.6-0.8-2.5-0.6c-1.9,0.2-3.2,1.8-2.9,3.6c0.2,1.7,1.9,2.9,3.8,2.7
			c0.7-0.1,1.3-0.4,1.8-0.8c-0.6-0.7-0.9-1.5-0.9-2.5C245.6,194.5,245.9,193.7,246.4,193z"/>
		<path class="st8" d="M230.1,185.2c-0.4,0.9-0.5,1.9,0,2.8c0.8,1.5,2.8,2.1,4.5,1.2c1.6-0.9,2.3-2.9,1.5-4.4
			c-0.8-1.5-2.8-2.1-4.5-1.2c-0.3,0.2-0.5,0.3-0.7,0.5C230.7,184.6,230.4,184.9,230.1,185.2z"/>
		<path class="st8" d="M250.6,210.4c-1.6,0.9-2.3,2.8-1.5,4.4c0.8,1.5,2.8,2.1,4.5,1.2c0.1,0,0.1-0.1,0.2-0.1v-5.4
			C252.8,209.9,251.6,209.8,250.6,210.4z"/>
		<path class="st8" d="M253.7,181.3v-2.1C253.4,179.8,253.5,180.6,253.7,181.3z"/>
		<path class="st8" d="M243.4,182.7c1.1-0.6,1.6-1.9,1-3c-0.6-1.1-1.9-1.4-3.1-0.8c-1.1,0.6-1.6,2-1,3
			C240.9,182.9,242.2,183.3,243.4,182.7z"/>
		<path class="st8" d="M236.8,217.1c1.1-0.6,1.5-1.9,0.9-2.9c-0.6-1-1.9-1.4-3-0.8c-1.1,0.6-1.5,1.8-1,2.9
			C234.8,216,236,216.3,236.8,217.1z"/>
		<path class="st8" d="M226.8,198.3c-0.6-0.3-1.4-0.4-2.2,0c-1.1,0.6-1.6,1.9-1,3c0.4,0.6,1,1,1.7,1
			C224.9,200.7,225.5,199.1,226.8,198.3z"/>
		<path class="st8" d="M236.6,202.1c-1.1,0.6-1.6,1.9-1,3c0.6,1,1.9,1.4,3.1,0.8c1.1-0.6,1.6-1.9,1-3
			C239.1,201.8,237.8,201.5,236.6,202.1z"/>
		<path class="st9" d="M249.1,199.1c1.9,0,3.5-1.7,3.5-3.7c0-2.1-1.6-3.7-3.5-3.7c-1.1,0-2,0.6-2.7,1.4c0.7,0.5,1.1,1.2,1.2,2.1
			c0.1,1.1-0.3,2.1-1.2,2.8C247.1,198.6,248,199.1,249.1,199.1z"/>
		<path class="st9" d="M247.6,195.1c-0.1-0.8-0.6-1.6-1.2-2.1c-0.5,0.7-0.8,1.5-0.8,2.3c0,1,0.4,1.8,0.9,2.5
			C247.3,197.2,247.8,196.2,247.6,195.1z"/>
		<path class="st9" d="M253.4,218.5c-0.7-1.9-2.8-2.9-4.6-2.3c-1.8,0.7-2.7,2.8-1.9,4.7c0.7,1.9,2.8,2.9,4.6,2.2
			C253.3,222.6,254.1,220.5,253.4,218.5z"/>
		<path class="st9" d="M236.8,217.1C236.8,217.1,236.8,217.1,236.8,217.1c-1.2,0.7-2.6,0.3-3.1-0.7c0,0,0-0.1,0-0.1
			c-0.1,0-0.3,0-0.4,0.1c-1.8,0.7-2.7,2.8-1.9,4.7c0.7,1.9,2.8,2.9,4.6,2.2c1.8-0.7,2.7-2.8,1.9-4.7
			C237.6,217.9,237.3,217.5,236.8,217.1z"/>
		<path class="st9" d="M236.8,217.2C236.8,217.1,236.8,217.1,236.8,217.2c-0.8-0.9-2-1.2-3.1-0.9c0,0.1,0,0.1,0,0.1
			C234.3,217.4,235.6,217.8,236.8,217.2z"/>
		<path class="st9" d="M231.9,200.1c-0.7-1.9-2.8-2.9-4.6-2.2c-0.2,0.1-0.4,0.2-0.5,0.4c0.4,0.2,0.7,0.4,0.9,0.8c0.6,1,0.1,2.4-1,3
			c-0.4,0.2-0.9,0.3-1.3,0.2c0,0.1,0,0.2,0.1,0.3c0.7,1.9,2.8,2.9,4.6,2.2C231.8,204.2,232.6,202.1,231.9,200.1z"/>
		<path class="st9" d="M226.7,202.1c1.1-0.6,1.6-1.9,1-3c-0.2-0.4-0.5-0.6-0.9-0.8c-1.3,0.8-1.9,2.4-1.5,4
			C225.8,202.4,226.2,202.3,226.7,202.1z"/>
		<path class="st9" d="M229.5,185.6c0.2-0.1,0.4-0.2,0.5-0.3c0.2-0.4,0.5-0.8,0.8-1.1c0.2-0.6,0.2-1.2,0-1.8c-0.5-1.3-1.9-2-3.1-1.5
			c-1.2,0.5-1.8,1.9-1.3,3.2C226.9,185.4,228.3,186,229.5,185.6z"/>
		<path class="st9" d="M230.1,185.2c0.4-0.3,0.7-0.6,0.8-1.1C230.5,184.5,230.3,184.8,230.1,185.2z"/>
		<path class="st9" d="M247.6,176.6c1.2-0.5,1.8-1.9,1.3-3.2c-0.5-1.3-1.9-2-3.1-1.5c-1.2,0.5-1.8,1.9-1.3,3.2
			C244.9,176.4,246.3,177.1,247.6,176.6z"/>
		<path class="st9" d="M242.2,208.9c-1.2,0.5-1.8,1.9-1.3,3.2c0.5,1.3,1.9,2,3.1,1.5c1.2-0.5,1.8-1.9,1.3-3.2
			C244.9,209.2,243.5,208.5,242.2,208.9z"/>
		<path class="st9" d="M243,186c-0.5-1.3-1.9-2-3.1-1.5c-1.2,0.5-1.8,1.9-1.3,3.2c0.5,1.3,1.9,2,3.1,1.5
			C242.9,188.8,243.5,187.4,243,186z"/>
	</g>
	
		<linearGradient id="SVGID_00000173127000140083064580000005047877731436521656_" gradientUnits="userSpaceOnUse" x1="128.0222" y1="124.0288" x2="128.0222" y2="89.0555">
		<stop  offset="0" style="stop-color:#51740C"/>
		<stop  offset="0.1928" style="stop-color:#5B7F13"/>
		<stop  offset="0.5326" style="stop-color:#759D27"/>
		<stop  offset="0.9768" style="stop-color:#A0CC46"/>
		<stop  offset="1" style="stop-color:#A2CF48"/>
	</linearGradient>
	<path style="fill:url(#SVGID_00000173127000140083064580000005047877731436521656_);" d="M144.5,106.5c2.8-6.2,0-13.5-6.3-16.3
		c-4.9-2.2-10.4-0.9-13.9,2.7c-0.1,0-0.2-0.1-0.3-0.1c-4.9-2.2-10.6,0-12.8,4.9c-2.2,4.9,0,10.6,4.9,12.8c0.1,0.1,0.3,0.1,0.5,0.2
		c-0.7,5.1,2,10.3,6.9,12.5c6,2.7,13,0,15.7-6c0.8-1.8,1.1-3.6,1-5.5C142.1,110.3,143.5,108.6,144.5,106.5z M136,111
		c0.1,1.2-0.2,2.4-0.6,3.5c-1.7,3.9-6.3,5.7-10.2,3.9c-3.1-1.4-5-4.7-4.5-8.1l0.3-2.3l-2.3-0.9c-3-1.3-4.3-4.7-3-7.6
		c1.3-2.9,4.7-4.2,7.6-2.9l0.1,0.1l1.9,0.9l1.5-1.5c2.4-2.4,6.1-3.2,9.2-1.8c4.1,1.8,6,6.7,4.1,10.8c-0.6,1.3-1.6,2.5-2.8,3.4
		l-1.3,0.9L136,111z"/>
	
		<linearGradient id="SVGID_00000026150986814644061080000000003163730713492107_" gradientUnits="userSpaceOnUse" x1="266.6636" y1="512" x2="266.6636" y2="76.2954">
		<stop  offset="0" style="stop-color:#C46D1D"/>
		<stop  offset="4.885048e-02" style="stop-color:#C77120"/>
		<stop  offset="0.6824" style="stop-color:#EC9F48"/>
		<stop  offset="1" style="stop-color:#FAB157"/>
	</linearGradient>
	<path style="fill:url(#SVGID_00000026150986814644061080000000003163730713492107_);" d="M277.4,77.2c-5.3-2.4-9.7,0.4-9.7,6.2V285
		c0,5.9-1.3,10.1-2.9,9.5c-1.6-0.6-6.3-4.5-10.4-8.7L116.1,147.5c-4.1-4.1-10.2-3.5-13.4,1.4c0,0-55.7,44.9-55.7,143.5
		C47,413.7,145.3,512,266.6,512c121.3,0,216.1-98.4,219.6-219.6C491.8,99.8,277.4,77.2,277.4,77.2z"/>
	<path class="st4" d="M483.3,247.7c1.1,10.2,1.6,20.9,1.2,32.3c-3.5,121.2-98.3,219.6-219.6,219.6c-108.9,0-199.2-79.3-216.6-183.2
		c12,110,105.1,195.6,218.3,195.6c121.3,0,216.1-98.4,219.6-219.6C486.7,276.3,485.6,261.5,483.3,247.7z"/>
	
		<linearGradient id="SVGID_00000141450462383291284840000015757417059339698346_" gradientUnits="userSpaceOnUse" x1="264.9368" y1="476.8088" x2="264.9368" y2="102.4337">
		<stop  offset="0" style="stop-color:#FAA843"/>
		<stop  offset="0.9818" style="stop-color:#FFAD4F"/>
	</linearGradient>
	<path style="fill:url(#SVGID_00000141450462383291284840000015757417059339698346_);" d="M133.9,175.9l122.8,125.5
		c0,0,21.3,15.3,20.8-7.2c-0.5-22.5-0.4-191.7-0.4-191.7S466,124.9,448.6,322.1C433,497.6,201.5,512.8,129,422.6
		C56.5,332.4,70.3,216.9,133.9,175.9z"/>
	
		<linearGradient id="SVGID_00000125590994249476638020000010474052944348779684_" gradientUnits="userSpaceOnUse" x1="264.2877" y1="497.6208" x2="264.2877" y2="93.3728">
		<stop  offset="0" style="stop-color:#C46D1D"/>
		<stop  offset="4.885048e-02" style="stop-color:#C77120"/>
		<stop  offset="0.6824" style="stop-color:#EC9F48"/>
		<stop  offset="1" style="stop-color:#FAB157"/>
	</linearGradient>
	<path style="fill:url(#SVGID_00000125590994249476638020000010474052944348779684_);" d="M462.1,295.5c-0.5-5.8-1-12.8-1.1-15.6
		c-0.1-2.7-0.9-14.1-1.9-19.8c0,0-15.1-83.2-48.4-113.2c-3.7-3.4-7.4-6.6-11.2-9.7c-39.5-31.9-112-43.7-112-43.7
		c-5.8-0.9-10.4,3.1-10.4,8.9l0.2,14.1c0.1,5.9,4.9,11.4,10.7,12.4l45.5,3.2c5.8,0.2,14.3,2.1,18.8,4.2c0,0,0,0,3.9,2.3
		c35.4,20.4,63.8,52.9,78.4,93.6c1.6,4.5,1.6,4.5,1.6,4.5c1.5,5.2,2.7,14.2,2.6,20L428.9,358c-0.7,5.8-3,14.2-5.2,18.7
		c0,0,0,0-2.3,3.9c-11.3,19.7-26.4,37.2-44.5,51.4c-3.6,2.8-3.6,2.8-3.6,2.8c-4.2,2.8-12.4,6.2-18.1,7.5l-101.2,23.1
		c-5.7,1.4-14.4,1.9-19.4,1.2c0,0,0,0-4.5-1c-9-2-17.7-4.6-26.2-7.9c-4.2-1.6-4.2-1.6-4.2-1.6c-4.5-2.1-11.7-7.1-15.8-11.2
		l-76.1-84.3c-3.8-4.5-8.2-12.2-9.9-17.3c0,0,0,0-1.3-4.7c-1.4-5-2.5-10-3.4-15c-0.9-5-0.9-5-0.9-5c-0.6-5.5,0.3-14.5,2.1-20.1
		l28.4-102.6c1.9-5.5,4.5-11.6,5.9-13.4c1.4-1.8,5.2-6.5,5.1-6.6c-0.1,0-2.5-2.4-5.4-5.3c-2.9-2.9-8.2-2.9-11.7,0
		c-3.6,2.8-19.9,12.9-22.3,16.9c0,0,0,0-1.8,3.8c-19.6,42.1-27.2,126.8-27.2,126.8c-0.5,5.8-0.3,14.1,0.5,18.4c0,0,0,0,0.9,3.9
		c5.5,23,14.9,44.6,27.5,63.9c2.6,4,2.6,4,2.6,4c3.2,4.1,10.2,9.4,15.5,11.8l57.9,47.2c4.1,4.1,10.9,10.9,15,15l11.9,3
		c5.5,2,14.2,4.9,19.4,6.3c0,0,0,0,4.8,1.1c14.5,3.3,29.5,5,45,5c4.9,0,9.7-0.2,14.5-0.5c4.8-0.3,4.8-0.3,4.8-0.3
		c5.3-0.8,14-3.4,19.3-5.7l100.1-52.8c5.4-2.3,12.5-7.2,15.9-10.8c0,0,0,0,2.9-3.5c14.5-17.3,26.2-37,34.4-58.5
		c1.7-4.5,1.7-4.5,1.7-4.5c1.4-5.2,2.9-14.2,3.2-20L462.1,295.5z"/>
	<path class="st4" d="M462.1,295.5c-0.5-5.8-1-12.8-1.1-15.6c-0.1-2.7-0.9-14.1-1.9-19.8c0,0-15.1-83.2-48.4-113.2
		c-3.7-3.4-7.4-6.6-11.2-9.7c-39.5-31.9-112-43.7-112-43.7c-5.8-0.9-10.4,3.1-10.4,8.9l0.2,14.1c0.1,5.9,4.9,11.4,10.7,12.4
		l45.5,3.2c5.8,0.2,14.3,2.1,18.8,4.2c0,0,0,0,3.9,2.3c35.4,20.4,63.8,52.9,78.4,93.6c1.6,4.5,1.6,4.5,1.6,4.5
		c1.5,5.2,2.7,14.2,2.6,20L428.9,358c-0.7,5.8-3,14.2-5.2,18.7c0,0,0,0-2.3,3.9c-11.3,19.7-26.4,37.2-44.5,51.4
		c-3.6,2.8-3.6,2.8-3.6,2.8c-4.2,2.8-12.4,6.2-18.1,7.5l-101.2,23.1c-5.7,1.4-14.4,1.9-19.4,1.2c0,0,0,0-4.5-1
		c-9-2-17.7-4.6-26.2-7.9c-4.2-1.6-4.2-1.6-4.2-1.6c-4.5-2.1-11.7-7.1-15.8-11.2l-76.1-84.3c-3.8-4.5-8.2-12.2-9.9-17.3
		c0,0,0,0-1.3-4.7c-1.4-5-2.5-10-3.4-15c-0.9-5-0.9-5-0.9-5c-0.6-5.5,0.3-14.5,2.1-20.1l28.4-102.6c1.9-5.5,4.5-11.6,5.9-13.4
		c1.4-1.8,5.2-6.5,5.1-6.6c-0.1,0-2.5-2.4-5.4-5.3c-2.9-2.9-8.2-2.9-11.7,0c-3.6,2.8-19.9,12.9-22.3,16.9c0,0,0,0-1.8,3.8
		c-19.6,42.1-27.2,126.8-27.2,126.8c-0.5,5.8-0.3,14.1,0.5,18.4c0,0,0,0,0.9,3.9c5.5,23,14.9,44.6,27.5,63.9c2.6,4,2.6,4,2.6,4
		c3.2,4.1,10.2,9.4,15.5,11.8l57.9,47.2c4.1,4.1,10.9,10.9,15,15l11.9,3c5.5,2,14.2,4.9,19.4,6.3c0,0,0,0,4.8,1.1
		c14.5,3.3,29.5,5,45,5c4.9,0,9.7-0.2,14.5-0.5c4.8-0.3,4.8-0.3,4.8-0.3c5.3-0.8,14-3.4,19.3-5.7l100.1-52.8
		c5.4-2.3,12.5-7.2,15.9-10.8c0,0,0,0,2.9-3.5c14.5-17.3,26.2-37,34.4-58.5c1.7-4.5,1.7-4.5,1.7-4.5c1.4-5.2,2.9-14.2,3.2-20
		L462.1,295.5z"/>
	<path class="st4" d="M462.1,295.5c-0.5-5.8-1-12.8-1.1-15.6c-0.1-2.7-0.9-14.1-1.9-19.8c0,0-15.1-83.2-48.4-113.2
		c-3.7-3.4-7.4-6.6-11.2-9.7c-39.5-31.9-112-43.7-112-43.7c-5.8-0.9-10.4,3.1-10.4,8.9l0.2,14.1c0.1,5.9,4.9,11.4,10.7,12.4
		l45.5,3.2c5.8,0.2,14.3,2.1,18.8,4.2c0,0,0,0,3.9,2.3c35.4,20.4,63.8,52.9,78.4,93.6c1.6,4.5,1.6,4.5,1.6,4.5
		c1.5,5.2,2.7,14.2,2.6,20L428.9,358c-0.7,5.8-3,14.2-5.2,18.7c0,0,0,0-2.3,3.9c-11.3,19.7-26.4,37.2-44.5,51.4
		c-3.6,2.8-3.6,2.8-3.6,2.8c-4.2,2.8-12.4,6.2-18.1,7.5l-101.2,23.1c-5.7,1.4-14.4,1.9-19.4,1.2c0,0,0,0-4.5-1
		c-9-2-17.7-4.6-26.2-7.9c-4.2-1.6-4.2-1.6-4.2-1.6c-4.5-2.1-11.7-7.1-15.8-11.2l-76.1-84.3c-3.8-4.5-8.2-12.2-9.9-17.3
		c0,0,0,0-1.3-4.7c-1.4-5-2.5-10-3.4-15c-0.9-5-0.9-5-0.9-5c-0.6-5.5,0.3-14.5,2.1-20.1l28.4-102.6c1.9-5.5,4.5-11.6,5.9-13.4
		c1.4-1.8,5.2-6.5,5.1-6.6c-0.1,0-2.5-2.4-5.4-5.3c-2.9-2.9-8.2-2.9-11.7,0c-3.6,2.8-19.9,12.9-22.3,16.9c0,0,0,0-1.8,3.8
		c-19.6,42.1-27.2,126.8-27.2,126.8c-0.5,5.8-0.3,14.1,0.5,18.4c0,0,0,0,0.9,3.9c5.5,23,14.9,44.6,27.5,63.9c2.6,4,2.6,4,2.6,4
		c3.2,4.1,10.2,9.4,15.5,11.8l57.9,47.2c4.1,4.1,10.9,10.9,15,15l11.9,3c5.5,2,14.2,4.9,19.4,6.3c0,0,0,0,4.8,1.1
		c14.5,3.3,29.5,5,45,5c4.9,0,9.7-0.2,14.5-0.5c4.8-0.3,4.8-0.3,4.8-0.3c5.3-0.8,14-3.4,19.3-5.7l100.1-52.8
		c5.4-2.3,12.5-7.2,15.9-10.8c0,0,0,0,2.9-3.5c14.5-17.3,26.2-37,34.4-58.5c1.7-4.5,1.7-4.5,1.7-4.5c1.4-5.2,2.9-14.2,3.2-20
		L462.1,295.5z"/>
	
		<linearGradient id="SVGID_00000155864866101164034890000004912655742465844403_" gradientUnits="userSpaceOnUse" x1="222.7589" y1="460.7988" x2="222.7589" y2="417.7678">
		<stop  offset="0" style="stop-color:#330600"/>
		<stop  offset="1" style="stop-color:#6B1C0A"/>
	</linearGradient>
	<path style="fill:url(#SVGID_00000155864866101164034890000004912655742465844403_);" d="M222.8,417.8c-11.9,0-21.5,9.6-21.5,21.5
		c0,11.9,9.6,21.5,21.5,21.5c11.9,0,21.5-9.6,21.5-21.5C244.3,427.4,234.6,417.8,222.8,417.8z M222.8,451.2
		c-6.6,0-11.9-5.3-11.9-11.9c0-6.6,5.3-11.9,11.9-11.9c6.6,0,11.9,5.3,11.9,11.9C234.6,445.9,229.3,451.2,222.8,451.2z"/>
	
		<linearGradient id="SVGID_00000141429088094341149110000016726542922870770597_" gradientUnits="userSpaceOnUse" x1="300.3179" y1="170.7013" x2="300.3179" y2="135.1503">
		<stop  offset="0" style="stop-color:#330600"/>
		<stop  offset="1" style="stop-color:#6B1C0A"/>
	</linearGradient>
	<path style="fill:url(#SVGID_00000141429088094341149110000016726542922870770597_);" d="M300.3,135.2c-9.8,0-17.8,8-17.8,17.8
		c0,9.8,8,17.8,17.8,17.8c9.8,0,17.8-8,17.8-17.8C318.1,143.1,310.1,135.2,300.3,135.2z M300.3,162.8c-5.4,0-9.8-4.4-9.8-9.8
		c0-5.4,4.4-9.8,9.8-9.8c5.4,0,9.8,4.4,9.8,9.8C310.1,158.3,305.8,162.8,300.3,162.8z"/>
	
		<linearGradient id="SVGID_00000026879702177350707850000008113718076604923554_" gradientUnits="userSpaceOnUse" x1="298.9944" y1="343.6742" x2="298.9944" y2="320.4043">
		<stop  offset="0" style="stop-color:#330600"/>
		<stop  offset="1" style="stop-color:#6B1C0A"/>
	</linearGradient>
	<path style="fill:url(#SVGID_00000026879702177350707850000008113718076604923554_);" d="M287.1,341L287.1,341
		c0.5-6.6,6.3-11.4,12.8-10.9c6.5,0.5,11.4,6.2,10.9,12.8l0,0l9.6,0.8l0,0c1-11.9-7.9-22.2-19.7-23.2c-11.8-1-22.2,7.9-23.2,19.7
		l0,0L287.1,341z"/>
	
		<linearGradient id="SVGID_00000005961193349343243470000009004343079250444470_" gradientUnits="userSpaceOnUse" x1="338.0545" y1="219.2492" x2="338.0545" y2="177.5862">
		<stop  offset="0" style="stop-color:#51740C"/>
		<stop  offset="0.1928" style="stop-color:#5B7F13"/>
		<stop  offset="0.5326" style="stop-color:#759D27"/>
		<stop  offset="0.9768" style="stop-color:#A0CC46"/>
		<stop  offset="1" style="stop-color:#A2CF48"/>
	</linearGradient>
	<path style="fill:url(#SVGID_00000005961193349343243470000009004343079250444470_);" d="M323,210c2.8,0.5,5.5,0,8-1
		c1.1,3.1,3.4,5.7,7.1,7.7c9.6,5,22.3,2.9,27.3-6.7l-7.8-4l0,0c-2.8,5.3-6.4,8.3-11.7,5.6c-4.1-2.2-6.2-6.6-5.7-11
		c0.2-0.4,0.3-0.8,0.4-1.3c0,0,0.4-1.9,0.7-2.4l-0.4-0.2c0.1-0.4,1.7-8.5,6-16.6l-7.2-2.4l-6.2,15.1c-1.6,3.1-2.7,6.1-3.1,9
		c-1.7,1.5-4,2.2-6.4,1.8c-4.4-0.7-7.4-4.8-6.7-9.2v0l-6.4-1C309.6,201.2,315,208.7,323,210z"/>
	
		<linearGradient id="SVGID_00000015344414201955386380000010300515309639754154_" gradientUnits="userSpaceOnUse" x1="135.8196" y1="386.4393" x2="135.8196" y2="362.5418">
		<stop  offset="0" style="stop-color:#330600"/>
		<stop  offset="1" style="stop-color:#6B1C0A"/>
	</linearGradient>
	<path style="fill:url(#SVGID_00000015344414201955386380000010300515309639754154_);" d="M147.7,366.2L147.7,366.2
		c-0.7,6.5-6.6,11.2-13.1,10.5c-6.5-0.7-11.2-6.6-10.5-13.1l0,0l-9.6-1.1l0,0c-1.3,11.8,7.2,22.5,19,23.8c11.8,1.3,22.4-7.2,23.8-19
		l0,0L147.7,366.2z"/>
	<g>
		
			<linearGradient id="SVGID_00000156553010532243743790000009132558623803665328_" gradientUnits="userSpaceOnUse" x1="384.0834" y1="245.8052" x2="384.0834" y2="189.1149">
			<stop  offset="0" style="stop-color:#C70000"/>
			<stop  offset="0.1064" style="stop-color:#CD0502"/>
			<stop  offset="0.6652" style="stop-color:#E61C0B"/>
			<stop  offset="1" style="stop-color:#F0250E"/>
		</linearGradient>
		<path style="fill:url(#SVGID_00000156553010532243743790000009132558623803665328_);" d="M419,207.8c-10.3-17.9-33.3-24-51.2-13.7
			c-17.9,10.4-24.1,33.3-13.7,51.2c0,0,0.4,1.1,2.5,0c2.1-1.1,61.4-35.6,61.4-35.6S419.6,209,419,207.8z"/>
		<path class="st21" d="M358.1,234.2c-1.7-2.9-3.8-9-2.4-12.8c3.4-18.3,20.5-29.6,41.9-24.2c4,0.9,10.1,5.7,11.7,8.6l0,0
			c1.7,2.9-2.2,6.4-6.2,5.5c-18.3-4.1-32.2,3.7-38.1,21.2C363.5,236.4,359.7,237.1,358.1,234.2L358.1,234.2z"/>
		<path class="st21" d="M358.1,234.2c-1.7-2.9-3.8-9-2.4-12.8c3.4-18.3,20.5-29.6,41.9-24.2c4,0.9,10.1,5.7,11.7,8.6l0,0
			c1.7,2.9-2.2,6.4-6.2,5.5c-18.3-4.1-32.2,3.7-38.1,21.2C363.5,236.4,359.7,237.1,358.1,234.2L358.1,234.2z"/>
		<path class="st22" d="M378.2,210.7c1-8.4-4-6.9-4-6.9S370.4,207.3,378.2,210.7z"/>
		<path class="st22" d="M372.9,213.5c-1.6-8.4-5.9-5.4-5.9-5.4S364.4,212.7,372.9,213.5z"/>
		<path class="st22" d="M367.3,219.3c0.4-8.5-4.5-6.6-4.5-6.6S359.3,216.5,367.3,219.3z"/>
		<path class="st22" d="M364.7,223.9c-2.9-6.5-5.8-3.3-5.8-3.3S357.6,224.8,364.7,223.9z"/>
		<path class="st22" d="M362.4,232.1c-0.3-5.9-3.5-4.2-3.5-4.2S356.7,230.7,362.4,232.1z"/>
		<path class="st22" d="M383.4,207.5c-6.4-5.6-1.7-7.8-1.7-7.8S386.9,199.7,383.4,207.5z"/>
		<path class="st22" d="M391.8,206.7c-7.5-3.9-3.5-7.1-3.5-7.1S393.4,198.4,391.8,206.7z"/>
		<path class="st22" d="M395.9,207.5c-4.2-5.7,0.1-6.6,0.1-6.6S400.2,201.8,395.9,207.5z"/>
		<path class="st22" d="M403.3,208.5c-5-3.2-1.9-5.2-1.9-5.2S405,202.8,403.3,208.5z"/>
	</g>
	<g>
		
			<linearGradient id="SVGID_00000106828660288517465170000011375062152920377990_" gradientUnits="userSpaceOnUse" x1="138.0305" y1="564.162" x2="138.0305" y2="507.4712" gradientTransform="matrix(0.313 0.9498 -0.9498 0.313 602.9588 -73.8715)">
			<stop  offset="0" style="stop-color:#C70000"/>
			<stop  offset="0.1064" style="stop-color:#CD0502"/>
			<stop  offset="0.6652" style="stop-color:#E61C0B"/>
			<stop  offset="1" style="stop-color:#F0250E"/>
		</linearGradient>
		<path style="fill:url(#SVGID_00000106828660288517465170000011375062152920377990_);" d="M157.3,255c13.8-15.4,12.4-39.1-3-52.9
			c-15.4-13.8-39.1-12.4-52.9,3c0,0-1,0.7,0.8,2.3c1.7,1.7,53,47.2,53,47.2S156.4,256,157.3,255z"/>
		<path class="st21" d="M113.2,205.5c2.2-2.5,7.3-6.4,11.4-6.3c18.4-2.5,34.5,10.2,36.1,32.2c0.4,4.1-2.3,11.4-4.5,13.8l0,0
			c-2.2,2.5-6.8-0.1-7.2-4.2c-1.9-18.7-13.5-29.4-32-29.6C112.9,211.3,111,207.9,113.2,205.5L113.2,205.5z"/>
		<path class="st21" d="M113.2,205.5c2.2-2.5,7.3-6.4,11.4-6.3c18.4-2.5,34.5,10.2,36.1,32.2c0.4,4.1-2.3,11.4-4.5,13.8l0,0
			c-2.2,2.5-6.8-0.1-7.2-4.2c-1.9-18.7-13.5-29.4-32-29.6C112.9,211.3,111,207.9,113.2,205.5L113.2,205.5z"/>
		<path class="st22" d="M141.9,217.3c8.3-1.7,5.3-5.9,5.3-5.9S142.6,208.8,141.9,217.3z"/>
		<path class="st22" d="M137.5,213.1c7.4-4.1,3.3-7.3,3.3-7.3S135.6,204.8,137.5,213.1z"/>
		<path class="st22" d="M130.3,209.6c8.2-2.3,4.9-6.3,4.9-6.3S130.4,201.1,130.3,209.6z"/>
		<path class="st22" d="M125,208.5c5.3-4.8,1.3-6.5,1.3-6.5S122,202.1,125,208.5z"/>
		<path class="st22" d="M116.6,209c5.5-2.1,2.9-4.7,2.9-4.7S116.1,203.1,116.6,209z"/>
		<path class="st22" d="M146.5,221.1c3.3-7.8,6.8-4.1,6.8-4.1S155,222,146.5,221.1z"/>
		<path class="st22" d="M149.9,228.9c1.3-8.4,5.7-5.5,5.7-5.5S158.3,227.8,149.9,228.9z"/>
		<path class="st22" d="M150.5,233.1c4.1-5.8,6.3-2,6.3-2S157.2,235.4,150.5,233.1z"/>
		<path class="st22" d="M151.8,240.4c1.5-5.7,4.3-3.5,4.3-3.5S157.7,240.2,151.8,240.4z"/>
	</g>
	<g>
		
			<linearGradient id="SVGID_00000158029234426425281920000013505361388066081697_" gradientUnits="userSpaceOnUse" x1="454.0572" y1="433.3697" x2="454.0572" y2="377.341" gradientTransform="matrix(-0.6381 -0.77 0.77 -0.6381 341.1289 1012.1328)">
			<stop  offset="0" style="stop-color:#C70000"/>
			<stop  offset="0.1064" style="stop-color:#CD0502"/>
			<stop  offset="0.6652" style="stop-color:#E61C0B"/>
			<stop  offset="1" style="stop-color:#F0250E"/>
		</linearGradient>
		<path style="fill:url(#SVGID_00000158029234426425281920000013505361388066081697_);" d="M334.2,383.4
			c-7.1,19.2,2.7,40.5,21.8,47.6c19.2,7.1,40.5-2.7,47.6-21.8c0,0,0.6-1-1.6-1.9c-2.2-0.9-65.8-24.3-65.8-24.3
			S334.6,382.2,334.2,383.4z"/>
		<path class="st21" d="M392.7,413.1c-1.1,3.1-4.4,8.5-8.2,9.9c-16.1,8.9-35.4,3.1-44.8-16.6c-1.9-3.7-2-11.3-0.9-14.4l0,0
			c1.1-3.1,6.3-2.4,8.1,1.3c8.5,16.5,23.1,22.2,40.2,15.7C390.9,407.6,393.8,410,392.7,413.1L392.7,413.1z"/>
		<path class="st21" d="M392.7,413.1c-1.1,3.1-4.4,8.5-8.2,9.9c-16.1,8.9-35.4,3.1-44.8-16.6c-1.9-3.7-2-11.3-0.9-14.4l0,0
			c1.1-3.1,6.3-2.4,8.1,1.3c8.5,16.5,23.1,22.2,40.2,15.7C390.9,407.6,393.8,410,392.7,413.1L392.7,413.1z"/>
		<path class="st22" d="M362,412.6c-7,4.6-2.7,7.4-2.7,7.4S364.4,420.6,362,412.6z"/>
		<path class="st22" d="M367.6,414.8c-5.4,6.5-0.4,7.9-0.4,7.9S372.3,421.8,367.6,414.8z"/>
		<path class="st22" d="M375.5,415.5c-6.7,5.1-2.2,7.6-2.2,7.6S378.4,423.3,375.5,415.5z"/>
		<path class="st22" d="M380.7,414.6c-3.1,6.3,1.2,6.5,1.2,6.5S385.8,419.4,380.7,414.6z"/>
		<path class="st22" d="M388.3,411.1c-4.3,4-1,5.4-1,5.4S390.8,416.4,388.3,411.1z"/>
		<path class="st22" d="M356.4,410.7c-0.2,8.4-4.8,6.2-4.8,6.2S348.3,412.9,356.4,410.7z"/>
		<path class="st22" d="M350.5,404.7c1.8,8.2-3.3,7.2-3.3,7.2S343.1,408.8,350.5,404.7z"/>
		<path class="st22" d="M348.4,401.1c-1.7,6.8-5.1,4.1-5.1,4.1S341.4,401.4,348.4,401.1z"/>
		<path class="st22" d="M344.6,394.9c0.7,5.8-2.7,4.8-2.7,4.8S339.2,397.2,344.6,394.9z"/>
	</g>
	<g>
		
			<linearGradient id="SVGID_00000132797808709869003210000012166262450592507548_" gradientUnits="userSpaceOnUse" x1="628.4278" y1="425.0424" x2="628.4278" y2="361.9987" gradientTransform="matrix(-0.9275 -0.3739 0.3739 -0.9275 627.5903 951.5805)">
			<stop  offset="0" style="stop-color:#C70000"/>
			<stop  offset="0.1064" style="stop-color:#CD0502"/>
			<stop  offset="0.6652" style="stop-color:#E61C0B"/>
			<stop  offset="1" style="stop-color:#F0250E"/>
		</linearGradient>
		<path style="fill:url(#SVGID_00000132797808709869003210000012166262450592507548_);" d="M151.9,347.1
			c3.2,22.8,24.3,38.6,47.1,35.4c22.8-3.2,38.6-24.3,35.4-47.1c0,0,0.1-1.3-2.5-1c-2.6,0.3-78.1,11.1-78.1,11.1
			S151.7,345.6,151.9,347.1z"/>
		<path class="st21" d="M225.7,345.1c0.5,3.7,0.2,10.8-2.8,14.2c-11.1,17.5-33.4,22-53.2,7.5c-3.8-2.6-8-10.1-8.5-13.7l0,0
			c-0.5-3.7,4.9-5.7,8.7-3.1c17.2,11.8,34.7,9.6,48.1-6C220.9,340.7,225.2,341.5,225.7,345.1L225.7,345.1z"/>
		<path class="st21" d="M225.7,345.1c0.5,3.7,0.2,10.8-2.8,14.2c-11.1,17.5-33.4,22-53.2,7.5c-3.8-2.6-8-10.1-8.5-13.7l0,0
			c-0.5-3.7,4.9-5.7,8.7-3.1c17.2,11.8,34.7,9.6,48.1-6C220.9,340.7,225.2,341.5,225.7,345.1L225.7,345.1z"/>
		<path class="st22" d="M195.1,361.1c-4.5,8.3,1.2,8.8,1.2,8.8S201.7,367.8,195.1,361.1z"/>
		<path class="st22" d="M201.8,360.3c-1.8,9.3,3.8,8,3.8,8S210.1,364.7,201.8,360.3z"/>
		<path class="st22" d="M209.9,356.7c-3.9,8.6,1.9,8.7,1.9,8.7S217,363,209.9,356.7z"/>
		<path class="st22" d="M214.5,353c0.3,7.9,4.6,5.8,4.6,5.8S222.2,355.1,214.5,353z"/>
		<path class="st22" d="M220.2,345.6c-2.1,6.2,1.9,5.9,1.9,5.9S225.6,349.4,220.2,345.6z"/>
		<path class="st22" d="M188.4,362.2c4.3,8.4-1.5,8.7-1.5,8.7S181.6,368.8,188.4,362.2z"/>
		<path class="st22" d="M179.4,359.5c6.2,7.2,0.6,8.8,0.6,8.8S174.3,367.4,179.4,359.5z"/>
		<path class="st22" d="M175.5,357c2,7.7-2.8,6.8-2.8,6.8S168.7,361.1,175.5,357z"/>
		<path class="st22" d="M168.3,352.9c3.8,5.4-0.2,6.2-0.2,6.2S164.2,358.1,168.3,352.9z"/>
	</g>
	
		<linearGradient id="SVGID_00000127018152836245656930000008173786525873237163_" gradientUnits="userSpaceOnUse" x1="304.0541" y1="437.9593" x2="304.0541" y2="387.2188">
		<stop  offset="0" style="stop-color:#51740C"/>
		<stop  offset="0.1928" style="stop-color:#5B7F13"/>
		<stop  offset="0.5326" style="stop-color:#759D27"/>
		<stop  offset="0.9768" style="stop-color:#A0CC46"/>
		<stop  offset="1" style="stop-color:#A2CF48"/>
	</linearGradient>
	<path style="fill:url(#SVGID_00000127018152836245656930000008173786525873237163_);" d="M321.6,417.6c-1.7-2.3-4-3.9-6.5-4.8
		c1.4-3,1.6-6.4,0.2-10.5c-3.4-10.3-14-17.6-24.3-14.2l2.8,8.3h0c5.7-1.9,10.4-1.5,12.3,4.2c1.5,4.4-0.1,9.1-3.5,11.9
		c-0.4,0.1-0.8,0.4-1.2,0.6c0,0-1.6,1-2.2,1.2l0.1,0.4c-0.3,0.2-7.2,4.9-15.9,7.8l3.5,6.7l15-6.6c3.3-1.1,6.2-2.5,8.5-4.3
		c2.2,0.2,4.4,1.2,5.9,3.2c2.7,3.5,2,8.6-1.6,11.3l0,0l3.9,5.2C325.2,433.1,326.5,424,321.6,417.6z"/>
	<path class="st8" d="M311.8,263.2c0,0-2-7.3,3.3-7.3c5.3,0,10.6,11.9,4,17.2c-6.6,5.3-48.3-23-11.9-52.1
		c36.4-29.1,51.3,12.8,45.3,17.4c-6,4.6-16.6,2.6-14.6-4c2-6.6,7.9-2,7.9-2s-8.4-9.4-12.6-2.3c-3.3,5.7,6,11.7,11.9,14.8
		c6,3,16.6,9.7,6,18.3c-10.6,8.6-6.6,16.5-17.9,5.3c-11.2-11.2-15.5-21.6-22.7-15.2C306.1,257.2,311.8,263.2,311.8,263.2z"/>
	<path class="st8" d="M253.4,368.6c0,0,6.2-3.6,7.5,1.3c1.3,4.9-8.4,12.6-14.9,7.8c-6.5-4.8,9.6-49.9,45.1-23.4
		c35.5,26.5,0.6,50.2-5.1,45.8c-5.7-4.4-6.4-14.6,0.2-14.3c6.6,0.3,3.7,6.8,3.7,6.8s6.7-10-0.9-12.1c-6.1-1.7-9.4,8.3-10.8,14.5
		c-1.4,6.2-4.9,17.5-15.4,9.9c-10.4-7.7-16.8-2.1-9.1-15.2c7.7-13,16.1-19.4,8.6-24.5C257.5,362,253.4,368.6,253.4,368.6z"/>
	
		<linearGradient id="SVGID_00000145756792433862704880000009047914852679605939_" gradientUnits="userSpaceOnUse" x1="371.813" y1="350.9963" x2="371.813" y2="313.0888">
		<stop  offset="0" style="stop-color:#51740C"/>
		<stop  offset="0.1928" style="stop-color:#5B7F13"/>
		<stop  offset="0.5326" style="stop-color:#759D27"/>
		<stop  offset="0.9768" style="stop-color:#A0CC46"/>
		<stop  offset="1" style="stop-color:#A2CF48"/>
	</linearGradient>
	<path style="fill:url(#SVGID_00000145756792433862704880000009047914852679605939_);" d="M383.6,315c-2.8,0.5-5.3,1.7-7.3,3.5
		c-2-2.6-5-4.4-9.2-5.1c-10.7-1.8-22.1,4.2-23.9,14.9l8.7,1.4l0,0c1-5.9,3.5-9.9,9.4-9c4.6,0.8,8,4.3,8.9,8.6c0,0.5,0,0.9,0,1.3
		c0,0,0.2,1.9,0.1,2.5l0.4,0.1c0,0.3,1,8.6-0.5,17.7h7.6l1.2-16.3c0.6-3.4,0.6-6.6,0.2-9.5c1.2-1.9,3.1-3.4,5.5-3.7
		c4.4-0.7,8.5,2.3,9.2,6.6l0,0l6.4-1.1C399,319.1,391.5,313.7,383.6,315z"/>
	
		<linearGradient id="SVGID_00000068671819795694277460000017698619116282275724_" gradientUnits="userSpaceOnUse" x1="155.6234" y1="333.214" x2="155.6234" y2="295.33">
		<stop  offset="0" style="stop-color:#51740C"/>
		<stop  offset="0.1928" style="stop-color:#5B7F13"/>
		<stop  offset="0.5326" style="stop-color:#759D27"/>
		<stop  offset="0.9768" style="stop-color:#A0CC46"/>
		<stop  offset="1" style="stop-color:#A2CF48"/>
	</linearGradient>
	<path style="fill:url(#SVGID_00000068671819795694277460000017698619116282275724_);" d="M167.4,297.2c-2.8,0.5-5.3,1.7-7.3,3.5
		c-2-2.6-5-4.4-9.2-5.1c-10.7-1.8-22.1,4.2-23.9,14.9l8.7,1.4v0c1-5.9,3.5-9.9,9.4-8.9c4.6,0.7,8,4.3,8.9,8.6
		c-0.1,0.5-0.1,0.9,0,1.3c0,0,0.2,1.9,0.1,2.5l0.4,0.1c0,0.3,1,8.6-0.5,17.6h7.6l1.2-16.3c0.6-3.4,0.6-6.6,0.2-9.5
		c1.2-1.9,3.1-3.4,5.5-3.8c4.4-0.7,8.5,2.3,9.3,6.7v0l6.4-1.1C182.8,301.3,175.4,295.9,167.4,297.2z"/>
	
		<linearGradient id="SVGID_00000160897152601365936960000002581982600270817677_" gradientUnits="userSpaceOnUse" x1="417.35" y1="328.8713" x2="417.35" y2="285.8532">
		<stop  offset="0" style="stop-color:#330600"/>
		<stop  offset="1" style="stop-color:#6B1C0A"/>
	</linearGradient>
	<path style="fill:url(#SVGID_00000160897152601365936960000002581982600270817677_);" d="M417.4,285.9c-11.9,0-21.5,9.6-21.5,21.5
		c0,11.9,9.6,21.5,21.5,21.5c11.9,0,21.5-9.6,21.5-21.5C438.9,295.5,429.2,285.9,417.4,285.9z M417.4,319.2
		c-6.6,0-11.9-5.3-11.9-11.9c0-6.6,5.3-11.9,11.9-11.9c6.6,0,11.9,5.3,11.9,11.9C429.2,313.9,423.9,319.2,417.4,319.2z"/>
	<path class="st8" d="M382.1,347.1l20.5,54.7c1.7-1.2,3.9-2.6,6.9-3.8c12-4.7,4.4-13.7-0.1-18.2c-4.5-4.5-11.1-12.6-6.5-16.8
		c5.8-5.2,10.7,5.7,10.7,5.7s-4-5.9-7.7-0.5c-3.7,5.4,5.3,10.3,12,7.8C424.5,373.5,423.2,331.5,382.1,347.1z"/>
	<path class="st8" d="M142.8,382.9l18.3,48.9c1.5-1.1,3.5-2.4,6.2-3.4c10.8-4.2,3.9-12.3-0.1-16.3c-4-4-10-11.2-5.8-15
		c5.2-4.7,9.5,5.1,9.5,5.1s-3.6-5.3-6.9-0.4c-3.3,4.8,4.7,9.2,10.7,7C180.7,406.5,179.5,368.9,142.8,382.9z"/>
	
		<linearGradient id="SVGID_00000150795539811840433150000001492290936351494302_" gradientUnits="userSpaceOnUse" x1="145.7588" y1="269.7928" x2="145.7588" y2="237.287">
		<stop  offset="0" style="stop-color:#330600"/>
		<stop  offset="1" style="stop-color:#6B1C0A"/>
	</linearGradient>
	<path style="fill:url(#SVGID_00000150795539811840433150000001492290936351494302_);" d="M145.8,237.3c-9,0-16.2,7.3-16.2,16.2
		c0,9,7.3,16.3,16.2,16.3c9,0,16.3-7.3,16.3-16.3C162,244.6,154.7,237.3,145.8,237.3z M145.8,262.5c-5,0-9-4-9-9c0-5,4-9,9-9
		c5,0,9,4,9,9C154.7,258.5,150.7,262.5,145.8,262.5z"/>
	<path class="st8" d="M166.5,254.7l21.6,57.7c1.8-1.3,4.1-2.8,7.2-4c12.7-5,4.6-14.5-0.1-19.2c-4.7-4.7-11.8-13.3-6.8-17.7
		c6.1-5.5,11.3,6,11.3,6s-4.3-6.2-8.2-0.5c-3.9,5.7,5.6,10.8,12.7,8.2C211.3,282.6,209.8,238.3,166.5,254.7z"/>
	<path class="st8" d="M235.3,63.4L215,112.3c1.9,0.2,4.2,0.6,6.9,1.7c10.9,4.3,11.4-6.4,11.2-12.2c-0.2-5.7,0.4-15.2,6.1-15.2
		c7.1,0.1,3.6,10.4,3.6,10.4s1-6.4-4.8-5.1c-5.8,1.3-2.8,10.1,3.1,12.6C247.1,107.1,272.1,78.5,235.3,63.4z"/>
	<path class="st8" d="M159.2,142.3l44.1,29.3c0.6-1.8,1.4-4,3-6.5c6.3-9.9-4.1-12.4-9.8-13.3c-5.7-0.9-14.9-3.3-13.7-8.9
		c1.5-6.9,10.9-1.5,10.9-1.5s-6.1-2.2-5.9,3.8c0.2,5.9,9.3,4.7,13-0.7C204.4,139.1,181.1,109,159.2,142.3z"/>
	<path class="st8" d="M299.9,138.5l44.1,29.3c0.6-1.8,1.4-4,3-6.5c6.3-9.9-4.1-12.4-9.8-13.3c-5.7-0.9-14.9-3.3-13.7-8.9
		c1.5-6.9,10.9-1.5,10.9-1.5s-6.1-2.2-6,3.8c0.2,5.9,9.3,4.7,13-0.7C345.1,135.3,321.8,105.2,299.9,138.5z"/>
	<g>
		
			<linearGradient id="SVGID_00000054249275188862416420000011643481667720834458_" gradientUnits="userSpaceOnUse" x1="547.3745" y1="196.4345" x2="547.3745" y2="132.2293" gradientTransform="matrix(0.7025 -0.7117 0.7117 0.7025 -277.7036 349.4726)">
			<stop  offset="0" style="stop-color:#C70000"/>
			<stop  offset="0.1064" style="stop-color:#CD0502"/>
			<stop  offset="0.6652" style="stop-color:#E61C0B"/>
			<stop  offset="1" style="stop-color:#F0250E"/>
		</linearGradient>
		<path style="fill:url(#SVGID_00000054249275188862416420000011643481667720834458_);" d="M243.8,39.6
			c-22.7-5.9-45.8,7.7-51.7,30.3c-5.9,22.7,7.7,45.8,30.3,51.7c0,0,1.2,0.6,2-2c0.8-2.6,20.2-77.8,20.2-77.8S245.2,39.9,243.8,39.6z
			"/>
		<path class="st21" d="M216.6,109.7c-3.6-0.9-10.2-4.1-12.2-8.2c-12-17.3-7.6-40.1,13.8-53c3.9-2.6,12.6-3.6,16.3-2.6l0,0
			c3.6,0.9,3.4,6.9-0.5,9.4c-17.8,11.6-22.6,28.8-13.3,47.6C222.7,106.9,220.2,110.6,216.6,109.7L216.6,109.7z"/>
		<path class="st21" d="M216.6,109.7c-3.6-0.9-10.2-4.1-12.2-8.2c-12-17.3-7.6-40.1,13.8-53c3.9-2.6,12.6-3.6,16.3-2.6l0,0
			c3.6,0.9,3.4,6.9-0.5,9.4c-17.8,11.6-22.6,28.8-13.3,47.6C222.7,106.9,220.2,110.6,216.6,109.7L216.6,109.7z"/>
		<path class="st22" d="M213.6,74.7c-6-7.5-8.7-2.3-8.7-2.3S204.7,78.3,213.6,74.7z"/>
		<path class="st22" d="M211.7,81.2c-8-5.3-9,0.5-9,0.5S204.3,87.4,211.7,81.2z"/>
		<path class="st22" d="M211.9,90.3c-6.6-7.1-8.9-1.7-8.9-1.7S203.3,94.5,211.9,90.3z"/>
		<path class="st22" d="M213.5,96.1c-7.5-2.9-7.2,2.1-7.2,2.1S208.6,102.5,213.5,96.1z"/>
		<path class="st22" d="M218.3,104.4c-5-4.4-6.3-0.5-6.3-0.5S212.6,107.9,218.3,104.4z"/>
		<path class="st22" d="M215.2,68c-9.6,0.8-7.6-4.8-7.6-4.8S211.7,59,215.2,68z"/>
		<path class="st22" d="M221.3,60.6c-9.1,3-8.5-2.9-8.5-2.9S215.8,52.7,221.3,60.6z"/>
		<path class="st22" d="M225.2,57.8c-7.9-1.2-5.3-5.3-5.3-5.3S224,49.9,225.2,57.8z"/>
		<path class="st22" d="M231.8,52.7c-6.6,1.4-5.7-2.6-5.7-2.6S228.6,46.9,231.8,52.7z"/>
	</g>
	<g>
		
			<linearGradient id="SVGID_00000139976829428996975190000016897077404297535635_" gradientUnits="userSpaceOnUse" x1="341.0091" y1="354.3594" x2="341.0091" y2="285.4959">
			<stop  offset="0" style="stop-color:#C70000"/>
			<stop  offset="0.1064" style="stop-color:#CD0502"/>
			<stop  offset="0.6652" style="stop-color:#E61C0B"/>
			<stop  offset="1" style="stop-color:#F0250E"/>
		</linearGradient>
		<path style="fill:url(#SVGID_00000139976829428996975190000016897077404297535635_);" d="M373.2,319.9c0,19-14.4,34.4-32.2,34.4
			c-17.8,0-32.2-15.4-32.2-34.4c0-19,14.4-34.4,32.2-34.4C358.8,285.5,373.2,300.9,373.2,319.9z"/>
		<path class="st8" d="M337.8,313.8c2.2-0.3,4.1,1.1,4.4,3.1c0.3,2-1.3,3.9-3.4,4.2c-2.2,0.3-4.1-1.1-4.4-3.1
			C334.1,315.9,335.6,314.1,337.8,313.8z"/>
		<path class="st8" d="M323.4,303.5c1.9-1,4.2-0.4,5.2,1.4c1,1.8,0.2,4.1-1.7,5.1c-1.9,1-4.2,0.4-5.2-1.4
			C320.7,306.9,321.5,304.6,323.4,303.5z"/>
		<path class="st8" d="M361.9,309.7c1.9-1,4.2-0.4,5.2,1.4c1,1.8,0.2,4.1-1.7,5.1c-1.9,1-4.3,0.4-5.2-1.4
			C359.2,313.1,360,310.8,361.9,309.7z"/>
		<path class="st8" d="M364,326c1.9-1,4.2-0.4,5.2,1.4c1,1.8,0.2,4.1-1.7,5.1c-1.9,1-4.2,0.4-5.2-1.4C361.3,329.3,362.1,327,364,326
			z"/>
		<path class="st8" d="M345.6,334.7c1.9-1,4.2-0.4,5.2,1.4c1,1.8,0.2,4.1-1.7,5.1c-1.9,1-4.2,0.4-5.2-1.4
			C342.9,338.1,343.7,335.8,345.6,334.7z"/>
		<path class="st8" d="M351.1,296.2c1.9-1,4.2-0.4,5.2,1.4c1,1.8,0.2,4.1-1.7,5.1c-1.9,1-4.2,0.4-5.2-1.4
			C348.4,299.5,349.2,297.2,351.1,296.2z"/>
		<path class="st8" d="M334.8,298c1.3-0.7,2.9-0.3,3.5,1c0.7,1.2,0.1,2.8-1.2,3.5c-1.3,0.7-2.9,0.3-3.6-1
			C333,300.3,333.5,298.7,334.8,298z"/>
		<path class="st8" d="M327.1,338.2c1.3-0.7,2.9-0.3,3.5,0.9c0.7,1.2,0.1,2.8-1.2,3.5c-1.3,0.7-2.9,0.3-3.6-0.9
			C325.3,340.5,325.8,338.9,327.1,338.2z"/>
		<path class="st8" d="M315.3,320.6c1.3-0.7,2.9-0.3,3.6,1c0.7,1.2,0.1,2.8-1.2,3.5c-1.3,0.7-2.9,0.3-3.5-0.9
			C313.5,322.9,314,321.3,315.3,320.6z"/>
		<path class="st8" d="M354.5,319.2c1.3-0.7,2.9-0.3,3.6,0.9c0.6,1.2,0.1,2.8-1.2,3.5c-1.3,0.7-2.9,0.3-3.6-0.9
			C352.7,321.5,353.2,319.9,354.5,319.2z"/>
		<path class="st8" d="M329.3,325.1c1.3-0.7,2.9-0.3,3.6,1c0.7,1.2,0.1,2.8-1.2,3.5c-1.3,0.7-2.9,0.3-3.6-0.9
			C327.5,327.3,328,325.8,329.3,325.1z"/>
		<ellipse class="st9" cx="343.8" cy="317.3" rx="4.1" ry="4.4"/>
		<path class="st9" d="M361.2,302.9c0.9,2.3-0.1,4.7-2.3,5.5c-2.1,0.8-4.5-0.4-5.4-2.6c-0.9-2.2,0.2-4.7,2.3-5.5
			C357.9,299.5,360.3,300.7,361.2,302.9z"/>
		<path class="st9" d="M348.9,344.3c0.9,2.3-0.1,4.7-2.3,5.5c-2.1,0.8-4.5-0.4-5.4-2.6c-0.8-2.3,0.2-4.7,2.3-5.5
			C345.6,340.8,348,342,348.9,344.3z"/>
		<path class="st9" d="M330.7,344.3c0.8,2.3-0.2,4.7-2.3,5.5c-2.1,0.8-4.5-0.4-5.3-2.6c-0.9-2.3,0.2-4.7,2.3-5.5
			C327.5,340.8,329.9,342,330.7,344.3z"/>
		<path class="st9" d="M323.8,322.8c0.8,2.2-0.2,4.7-2.3,5.5c-2.1,0.8-4.5-0.4-5.3-2.6c-0.9-2.3,0.2-4.7,2.3-5.5
			C320.6,319.4,323,320.6,323.8,322.8z"/>
		<path class="st9" d="M365.3,334.4c0.8,2.2-0.2,4.7-2.3,5.5c-2.1,0.8-4.5-0.4-5.3-2.6c-0.8-2.2,0.2-4.7,2.3-5.5
			C362.1,331,364.5,332.2,365.3,334.4z"/>
		<path class="st9" d="M365.6,316.2c0.6,1.5-0.1,3.2-1.5,3.8c-1.4,0.6-3.1-0.2-3.7-1.8c-0.6-1.5,0.1-3.2,1.5-3.7
			C363.4,313.9,365,314.7,365.6,316.2z"/>
		<path class="st9" d="M322.6,302c0.6,1.5-0.1,3.2-1.6,3.8c-1.4,0.5-3.1-0.3-3.7-1.8c-0.6-1.5,0.1-3.2,1.6-3.8
			C320.4,299.7,322,300.5,322.6,302z"/>
		<path class="st9" d="M343.6,291.6c0.6,1.5-0.1,3.2-1.5,3.7c-1.4,0.6-3.1-0.2-3.7-1.8c-0.6-1.5,0.1-3.2,1.5-3.8
			C341.4,289.3,343,290.1,343.6,291.6z"/>
		<path class="st9" d="M339.5,334.9c0.6,1.5-0.1,3.2-1.5,3.8c-1.5,0.5-3.1-0.3-3.7-1.8c-0.6-1.5,0.1-3.2,1.5-3.8
			C337.3,332.5,338.9,333.3,339.5,334.9z"/>
		<path class="st9" d="M336.7,306.4c0.6,1.5-0.1,3.2-1.5,3.8c-1.4,0.6-3.1-0.3-3.7-1.8c-0.6-1.5,0.1-3.2,1.5-3.8
			C334.5,304,336.1,304.8,336.7,306.4z"/>
	</g>
	<g>
		
			<linearGradient id="SVGID_00000092444376588977336060000016235327159986657672_" gradientUnits="userSpaceOnUse" x1="112.2408" y1="354.0679" x2="112.2408" y2="285.2173">
			<stop  offset="0" style="stop-color:#C70000"/>
			<stop  offset="0.1064" style="stop-color:#CD0502"/>
			<stop  offset="0.6652" style="stop-color:#E61C0B"/>
			<stop  offset="1" style="stop-color:#F0250E"/>
		</linearGradient>
		<path style="fill:url(#SVGID_00000092444376588977336060000016235327159986657672_);" d="M144.5,319.6c0,19-14.4,34.4-32.2,34.4
			c-17.8,0-32.2-15.4-32.2-34.4c0-19,14.4-34.4,32.2-34.4C130,285.2,144.5,300.6,144.5,319.6z"/>
		<path class="st8" d="M109,313.5c2.2-0.3,4.1,1.1,4.4,3.2c0.3,2-1.3,3.9-3.4,4.1c-2.2,0.3-4.1-1.1-4.4-3.1
			C105.3,315.7,106.9,313.8,109,313.5z"/>
		<path class="st8" d="M94.6,303.3c1.9-1,4.2-0.4,5.2,1.4c1,1.8,0.2,4.1-1.7,5.1c-1.9,1-4.2,0.4-5.2-1.4
			C92,306.6,92.7,304.3,94.6,303.3z"/>
		<path class="st8" d="M133.1,309.5c1.9-1,4.2-0.4,5.2,1.4c1,1.8,0.2,4.1-1.7,5.1c-1.9,1-4.3,0.4-5.2-1.4
			C130.4,312.8,131.2,310.5,133.1,309.5z"/>
		<path class="st8" d="M135.2,325.7c1.9-1,4.2-0.4,5.2,1.4c1,1.8,0.2,4.1-1.7,5.1c-1.9,1-4.2,0.4-5.2-1.4
			C132.5,329,133.3,326.8,135.2,325.7z"/>
		<path class="st8" d="M116.8,334.4c1.9-1,4.2-0.4,5.2,1.4c1,1.8,0.2,4.1-1.7,5.1c-1.9,1-4.2,0.4-5.2-1.4
			C114.1,337.8,114.9,335.5,116.8,334.4z"/>
		<path class="st8" d="M122.4,295.9c1.9-1,4.2-0.4,5.2,1.4c1,1.8,0.2,4.1-1.7,5.1c-1.9,1-4.2,0.4-5.2-1.4
			C119.7,299.2,120.4,296.9,122.4,295.9z"/>
		<path class="st8" d="M106,297.8c1.3-0.7,2.9-0.3,3.5,1c0.7,1.2,0.1,2.8-1.2,3.5c-1.3,0.7-2.9,0.3-3.6-1
			C104.2,300,104.7,298.5,106,297.8z"/>
		<path class="st8" d="M98.3,338c1.3-0.7,2.9-0.3,3.5,1c0.7,1.2,0.1,2.8-1.2,3.5c-1.3,0.7-2.9,0.3-3.6-1
			C96.5,340.2,97,338.7,98.3,338z"/>
		<path class="st8" d="M86.5,320.3c1.3-0.7,2.9-0.3,3.6,0.9c0.7,1.2,0.1,2.8-1.2,3.5c-1.3,0.7-2.9,0.3-3.5-0.9
			C84.7,322.6,85.2,321.1,86.5,320.3z"/>
		<path class="st8" d="M125.8,319c1.3-0.7,2.9-0.3,3.6,0.9c0.7,1.2,0.1,2.8-1.2,3.5c-1.3,0.7-2.9,0.3-3.6-0.9
			C123.9,321.2,124.5,319.7,125.8,319z"/>
		<path class="st8" d="M100.5,324.8c1.3-0.7,2.9-0.3,3.6,0.9c0.7,1.2,0.1,2.8-1.2,3.5c-1.3,0.7-2.9,0.3-3.6-1
			C98.7,327.1,99.2,325.5,100.5,324.8z"/>
		<ellipse class="st9" cx="115" cy="317" rx="4.1" ry="4.4"/>
		<path class="st9" d="M132.4,302.7c0.9,2.3-0.1,4.7-2.3,5.5c-2.1,0.8-4.5-0.4-5.4-2.6c-0.8-2.3,0.2-4.7,2.3-5.5
			C129.2,299.3,131.6,300.4,132.4,302.7z"/>
		<path class="st9" d="M120.1,344c0.9,2.3-0.1,4.7-2.2,5.5c-2.1,0.8-4.5-0.4-5.4-2.6c-0.9-2.3,0.2-4.7,2.3-5.5
			C116.9,340.6,119.3,341.8,120.1,344z"/>
		<path class="st9" d="M102,344c0.9,2.3-0.2,4.7-2.3,5.5c-2.1,0.8-4.5-0.4-5.3-2.6c-0.9-2.3,0.2-4.7,2.3-5.5
			C98.7,340.6,101.1,341.8,102,344z"/>
		<path class="st9" d="M95,322.6c0.9,2.2-0.2,4.7-2.3,5.5c-2.1,0.8-4.5-0.4-5.4-2.6c-0.8-2.2,0.2-4.7,2.3-5.5
			C91.8,319.1,94.2,320.3,95,322.6z"/>
		<path class="st9" d="M136.5,334.1c0.9,2.3-0.1,4.7-2.3,5.5c-2.1,0.8-4.5-0.4-5.4-2.6c-0.9-2.3,0.2-4.7,2.3-5.5
			C133.3,330.7,135.7,331.9,136.5,334.1z"/>
		<path class="st9" d="M136.8,316c0.6,1.5-0.1,3.2-1.5,3.7c-1.4,0.6-3.1-0.2-3.7-1.8c-0.6-1.5,0.1-3.2,1.6-3.8
			C134.6,313.6,136.2,314.4,136.8,316z"/>
		<path class="st9" d="M93.9,301.8c0.6,1.5-0.1,3.2-1.6,3.8c-1.4,0.5-3.1-0.3-3.7-1.8c-0.6-1.5,0.1-3.2,1.6-3.8
			C91.6,299.4,93.2,300.2,93.9,301.8z"/>
		<path class="st9" d="M114.8,291.4c0.6,1.5-0.1,3.2-1.5,3.8c-1.4,0.6-3.1-0.2-3.7-1.8c-0.6-1.5,0.1-3.2,1.5-3.8
			C112.6,289,114.3,289.8,114.8,291.4z"/>
		<path class="st9" d="M110.8,334.6c0.6,1.5-0.1,3.2-1.5,3.7c-1.5,0.6-3.1-0.3-3.7-1.8c-0.6-1.5,0.1-3.2,1.5-3.8
			C108.5,332.3,110.2,333.1,110.8,334.6z"/>
		<path class="st9" d="M108,306.1c0.6,1.5-0.1,3.2-1.5,3.8c-1.4,0.5-3.1-0.3-3.7-1.8c-0.6-1.5,0.1-3.2,1.6-3.8
			C105.7,303.8,107.4,304.5,108,306.1z"/>
	</g>
	<g>
		
			<linearGradient id="SVGID_00000016051870585677610200000009852282914840813207_" gradientUnits="userSpaceOnUse" x1="391.5365" y1="580.1277" x2="391.5365" y2="521.0718" gradientTransform="matrix(2.770000e-02 0.9996 -0.9996 2.770000e-02 806.3661 42.4944)">
			<stop  offset="0" style="stop-color:#C70000"/>
			<stop  offset="0.1064" style="stop-color:#CD0502"/>
			<stop  offset="0.6652" style="stop-color:#E61C0B"/>
			<stop  offset="1" style="stop-color:#F0250E"/>
		</linearGradient>
		<path style="fill:url(#SVGID_00000016051870585677610200000009852282914840813207_);" d="M249.1,466.8c-0.9-1.6-0.5-3.6,1.1-4.5
			c1.5-0.8,3.5-0.3,4.4,1.4c0.6,1,0.6,2.2,0.1,3.2l29.1-0.8c0.7-0.3,1.4-0.3,2.1-0.1l10-0.3c0.6-2.3,0.9-4.6,0.8-7.1
			c-0.4-15.3-14-27.3-30.3-26.8c-16.3,0.5-29.2,13.2-28.7,28.5c0.1,2.4,0.5,4.8,1.2,7l10.4-0.3C249.1,466.9,249.1,466.9,249.1,466.8
			z M292.9,457.8c0.5,1.2-0.1,2.6-1.5,3.2c-1.3,0.5-2.8,0-3.3-1.2c-0.5-1.2,0.2-2.6,1.4-3.2C290.9,456,292.4,456.6,292.9,457.8z
			 M285.7,453.6c0.6,1.1,0.3,2.5-0.7,3.1c-1,0.6-2.4,0.2-3-0.9c-0.6-1.1-0.3-2.5,0.7-3.1C283.7,452,285.1,452.5,285.7,453.6z
			 M283.4,440c0.5,1.2-0.1,2.6-1.4,3.2c-0.6,0.3-1.3,0.2-1.8,0.1c0.2,0.2,0.4,0.4,0.6,0.7c0.9,1.6,0.4,3.6-1.1,4.5
			c-1.5,0.9-3.5,0.3-4.4-1.4c-0.9-1.6-0.4-3.6,1.1-4.5c0.9-0.5,1.9-0.5,2.8-0.1c-0.1-0.1-0.3-0.3-0.4-0.5c-0.5-1.2,0.1-2.6,1.5-3.2
			C281.5,438.3,282.9,438.8,283.4,440z M261.6,438.3c0.1-0.1,0.2,0,0.3-0.1c0-0.7,0.4-1.4,1-1.7c1-0.6,2.4-0.2,3,0.9
			c0.4,0.7,0.4,1.5,0.1,2.2c0.1,0.2,0.3,0.3,0.4,0.5c0.7,1.8-0.2,3.9-2.1,4.6c-1.9,0.8-4.1,0-4.8-1.8
			C258.7,441.2,259.6,439.1,261.6,438.3z M241.2,449.4c-0.7-1.8,0.2-3.9,2.1-4.6c1.9-0.8,4,0,4.8,1.8c0.1,0.1,0,0.3,0.1,0.4
			c1-0.5,2.3-0.1,2.9,1c0.6,1.1,0.3,2.5-0.7,3.1c-1,0.6-2.3,0.2-2.9-0.8c-0.4,0.4-0.8,0.8-1.4,1C244.1,452,242,451.2,241.2,449.4z
			 M258.7,451.7c-0.6-1.1-0.3-2.5,0.7-3.1c1-0.6,2.4-0.2,3,0.9c0.6,1.1,0.3,2.5-0.7,3.1C260.7,453.2,259.3,452.8,258.7,451.7z
			 M276.8,451c1.3-0.5,2.8,0,3.3,1.2c0.5,1.2-0.1,2.6-1.4,3.2c-1.3,0.5-2.8,0-3.3-1.2C274.9,453,275.5,451.5,276.8,451z M251,457.3
			c-0.5-1.2,0.1-2.6,1.4-3.2s2.8,0,3.3,1.2c0.5,1.2-0.1,2.6-1.5,3.2C253,459,251.5,458.5,251,457.3z M266,457.5
			c-0.3-1.9,0.9-3.6,2.6-3.9c1.7-0.3,3.4,1,3.7,2.9c0.1,0.9-0.1,1.8-0.6,2.5c0.9,0.6,1.4,1.5,1.5,2.6c0.1,1.9-1.6,3.5-3.6,3.6
			c-2.1,0.1-3.8-1.5-3.8-3.4c0-1,0.5-2,1.2-2.6C266.5,458.8,266.2,458.2,266,457.5z M241.7,465c-0.7-1.8,0.2-3.9,2.1-4.7
			c1.9-0.8,4,0,4.8,1.8c0.7,1.8-0.2,3.9-2.1,4.7C244.5,467.5,242.4,466.7,241.7,465z"/>
		<path class="st8" d="M271.7,459c0.5-0.7,0.7-1.6,0.6-2.5c-0.3-1.9-1.9-3.1-3.7-2.9c-1.7,0.3-2.9,2-2.6,3.9
			c0.1,0.7,0.5,1.3,0.9,1.7c0.7-0.6,1.5-1,2.4-1C270.3,458.2,271.1,458.5,271.7,459z"/>
		<path class="st8" d="M279.1,442.5c-0.9-0.4-1.9-0.4-2.8,0.1c-1.5,0.9-2,2.9-1.1,4.5c0.9,1.6,2.9,2.2,4.4,1.4
			c1.5-0.9,2-2.9,1.1-4.5c-0.2-0.3-0.4-0.4-0.6-0.7C279.7,443.1,279.4,442.9,279.1,442.5z"/>
		<path class="st8" d="M254.5,463.7c-0.9-1.6-2.9-2.2-4.4-1.4c-1.5,0.9-2,2.9-1.1,4.5c0,0.1,0.1,0.1,0.1,0.2l5.4-0.1
			C255.1,465.9,255.1,464.7,254.5,463.7z"/>
		<path class="st8" d="M283.7,466l2.1-0.1C285.1,465.7,284.4,465.8,283.7,466z"/>
		<path class="st8" d="M282,455.7c0.6,1.1,2,1.5,3,0.9c1-0.6,1.4-2,0.7-3.1c-0.6-1.1-2-1.5-3-0.9C281.7,453.2,281.3,454.6,282,455.7
			z"/>
		<path class="st8" d="M247.4,450.2c0.6,1,1.9,1.4,2.9,0.8c1-0.6,1.4-2,0.7-3.1c-0.6-1.1-1.9-1.5-2.9-1
			C248.5,448.1,248.2,449.3,247.4,450.2z"/>
		<path class="st8" d="M266,439.6c0.3-0.7,0.3-1.5-0.1-2.2c-0.6-1.1-2-1.5-3-0.9c-0.6,0.4-1,1-1,1.7
			C263.5,437.7,265.1,438.3,266,439.6z"/>
		<path class="st8" d="M262.4,449.5c-0.6-1.1-2-1.5-3-0.9c-1,0.6-1.4,2-0.7,3.1c0.6,1.1,2,1.5,3,0.9
			C262.7,452,263,450.6,262.4,449.5z"/>
		<path class="st9" d="M265.7,461.9c0.1,1.9,1.8,3.5,3.8,3.4c2.1-0.1,3.7-1.7,3.6-3.6c0-1.1-0.6-2-1.5-2.6c-0.5,0.7-1.2,1.2-2,1.3
			c-1.1,0.2-2.1-0.3-2.8-1.1C266.2,459.9,265.7,460.8,265.7,461.9z"/>
		<path class="st9" d="M269.7,460.3c0.8-0.1,1.5-0.6,2-1.3c-0.7-0.5-1.5-0.8-2.3-0.8c-1,0-1.8,0.4-2.4,1
			C267.6,460,268.6,460.5,269.7,460.3z"/>
		<path class="st9" d="M246.4,466.8c1.9-0.8,2.8-2.9,2.1-4.7c-0.7-1.8-2.9-2.6-4.8-1.8c-1.9,0.8-2.8,2.9-2.1,4.7
			C242.4,466.7,244.5,467.5,246.4,466.8z"/>
		<path class="st9" d="M247.4,450.2C247.4,450.1,247.4,450.1,247.4,450.2c-0.7-1.2-0.4-2.6,0.6-3.2c0,0,0.1,0,0.1,0
			c0-0.1,0-0.3-0.1-0.4c-0.7-1.8-2.9-2.6-4.8-1.8c-1.9,0.8-2.8,2.9-2.1,4.6c0.7,1.8,2.9,2.6,4.8,1.8
			C246.6,450.9,247,450.6,247.4,450.2z"/>
		<path class="st9" d="M247.3,450.1C247.4,450.1,247.4,450.1,247.3,450.1c0.9-0.8,1.2-2,0.9-3.1c-0.1,0-0.1,0-0.1,0
			C247,447.6,246.7,449,247.3,450.1z"/>
		<path class="st9" d="M264.2,444.7c1.9-0.8,2.9-2.9,2.1-4.6c-0.1-0.2-0.2-0.3-0.4-0.5c-0.2,0.4-0.4,0.7-0.8,0.9
			c-1,0.6-2.4,0.2-3-0.9c-0.2-0.4-0.3-0.9-0.3-1.3c-0.1,0-0.2,0-0.3,0.1c-1.9,0.8-2.8,2.9-2.1,4.7
			C260.2,444.7,262.3,445.5,264.2,444.7z"/>
		<path class="st9" d="M262.2,439.5c0.6,1.1,2,1.5,3,0.9c0.4-0.2,0.6-0.5,0.8-0.9c-0.9-1.3-2.5-1.9-4.1-1.4
			C261.8,438.7,261.9,439.1,262.2,439.5z"/>
		<path class="st9" d="M278.7,442c0.1,0.2,0.2,0.4,0.4,0.5c0.4,0.2,0.8,0.5,1.1,0.8c0.6,0.2,1.2,0.2,1.8-0.1c1.3-0.5,1.9-2,1.4-3.2
			c-0.5-1.2-2-1.8-3.3-1.2C278.9,439.3,278.2,440.8,278.7,442z"/>
		<path class="st9" d="M279.1,442.5c0.3,0.4,0.7,0.6,1.1,0.8C279.9,442.9,279.5,442.7,279.1,442.5z"/>
		<path class="st9" d="M288.1,459.7c0.5,1.2,2,1.8,3.3,1.2c1.3-0.5,1.9-2,1.5-3.2c-0.5-1.2-2-1.8-3.3-1.2
			C288.3,457.1,287.6,458.5,288.1,459.7z"/>
		<path class="st9" d="M255.7,455.3c-0.5-1.2-2-1.8-3.3-1.2s-2,2-1.4,3.2c0.5,1.2,2,1.8,3.3,1.2C255.6,458,256.2,456.5,255.7,455.3z
			"/>
		<path class="st9" d="M278.6,455.4c1.3-0.5,1.9-2,1.4-3.2c-0.5-1.2-2-1.8-3.3-1.2c-1.3,0.5-1.9,2-1.5,3.2
			C275.9,455.4,277.3,456,278.6,455.4z"/>
	</g>
	
		<linearGradient id="SVGID_00000093882352072425214070000006012113623316138633_" gradientUnits="userSpaceOnUse" x1="211.0656" y1="432.0268" x2="211.0656" y2="384.6002">
		<stop  offset="0" style="stop-color:#51740C"/>
		<stop  offset="0.1928" style="stop-color:#5B7F13"/>
		<stop  offset="0.5326" style="stop-color:#759D27"/>
		<stop  offset="0.9768" style="stop-color:#A0CC46"/>
		<stop  offset="1" style="stop-color:#A2CF48"/>
	</linearGradient>
	<path style="fill:url(#SVGID_00000093882352072425214070000006012113623316138633_);" d="M233.4,408.2c3.8-8.4,0-18.4-8.5-22.1
		c-6.6-3-14.1-1.3-18.9,3.7c-0.1-0.1-0.2-0.1-0.3-0.2c-6.6-3-14.4,0-17.3,6.6c-3,6.6,0,14.4,6.6,17.3c0.2,0.1,0.4,0.1,0.6,0.2
		c-1,6.9,2.7,13.9,9.4,16.9c8.1,3.6,17.6,0,21.3-8.1c1.1-2.4,1.5-4.9,1.4-7.4C230.1,413.4,232.1,411.1,233.4,408.2z M221.8,414.3
		c0.1,1.7-0.2,3.3-0.9,4.8c-2.4,5.3-8.6,7.7-13.9,5.3c-4.2-1.9-6.7-6.4-6.1-11l0.4-3l-3.1-1.2c-4-1.8-5.8-6.4-4.1-10.4
		c1.8-3.9,6.4-5.7,10.3-3.9l0.2,0.1l2.5,1.2l2-2.1c3.2-3.3,8.2-4.3,12.4-2.4c5.6,2.5,8.1,9,5.6,14.6c-0.8,1.8-2.1,3.4-3.8,4.5
		l-1.8,1.2L221.8,414.3z"/>
	
		<linearGradient id="SVGID_00000169527903536503175160000006688047599174711730_" gradientUnits="userSpaceOnUse" x1="276.6713" y1="520.9385" x2="232.1495" y2="506.8081" gradientTransform="matrix(0.3025 0.9531 -0.9531 0.3025 652.4519 -78.8494)">
		<stop  offset="0" style="stop-color:#51740C"/>
		<stop  offset="0.1928" style="stop-color:#5B7F13"/>
		<stop  offset="0.5326" style="stop-color:#759D27"/>
		<stop  offset="0.9768" style="stop-color:#A0CC46"/>
		<stop  offset="1" style="stop-color:#A2CF48"/>
	</linearGradient>
	<path style="fill:url(#SVGID_00000169527903536503175160000006688047599174711730_);" d="M245.3,342.3c9.2,1,17.5-5.6,18.5-14.8
		c0.8-7.2-3.1-13.8-9.2-16.9c0-0.1,0.1-0.2,0.1-0.4c0.8-7.2-4.4-13.7-11.6-14.5c-7.2-0.8-13.7,4.4-14.5,11.5c0,0.2,0,0.4,0,0.6
		c-6.9,1.2-12.5,6.8-13.3,14.1c-1,8.8,5.4,16.8,14.2,17.8c2.6,0.3,5.2-0.1,7.5-0.9C239.4,340.7,242.2,342,245.3,342.3z M236,333.1
		c-1.6,0.6-3.2,0.8-4.9,0.6c-5.8-0.6-9.9-5.9-9.3-11.6c0.5-4.6,4.1-8.4,8.7-9.2l3-0.5l0.2-3.4c0.5-4.4,4.4-7.5,8.7-7
		c4.3,0.5,7.4,4.4,6.9,8.6l0,0.2l-0.4,2.8l2.5,1.3c4.2,2.1,6.6,6.5,6.1,11.1c-0.7,6.1-6.2,10.4-12.3,9.8c-2-0.2-3.9-1-5.5-2.2
		l-1.7-1.3L236,333.1z"/>
	
		<linearGradient id="SVGID_00000119081903563952973100000003162611839144501948_" gradientUnits="userSpaceOnUse" x1="280.2693" y1="282.9802" x2="280.2693" y2="235.5524" gradientTransform="matrix(0.749 0.6625 -0.6625 0.749 379.0621 -131.1096)">
		<stop  offset="0" style="stop-color:#51740C"/>
		<stop  offset="0.1928" style="stop-color:#5B7F13"/>
		<stop  offset="0.5326" style="stop-color:#759D27"/>
		<stop  offset="0.9768" style="stop-color:#A0CC46"/>
		<stop  offset="1" style="stop-color:#A2CF48"/>
	</linearGradient>
	<path style="fill:url(#SVGID_00000119081903563952973100000003162611839144501948_);" d="M434,263.5c8.4-3.8,12.1-13.8,8.3-22.2
		c-3-6.6-9.7-10.3-16.6-9.7c0-0.1-0.1-0.2-0.1-0.4c-3-6.6-10.8-9.5-17.4-6.5c-6.6,3-9.5,10.8-6.5,17.4c0.1,0.2,0.2,0.4,0.3,0.6
		c-5.3,4.6-7.2,12.2-4.2,18.9c3.7,8.1,13.2,11.7,21.3,8c2.4-1.1,4.4-2.7,5.9-4.6C428.1,265.2,431.2,264.8,434,263.5z M421.3,260.4
		c-1,1.3-2.3,2.3-3.8,3c-5.3,2.4-11.5,0.1-13.9-5.2c-1.9-4.2-0.8-9.3,2.7-12.3l2.3-2l-1.6-3c-1.8-4-0.1-8.7,3.8-10.4
		c3.9-1.8,8.6-0.1,10.4,3.9l0.1,0.2l1.1,2.6l2.8-0.2c4.6-0.4,9,2.3,10.9,6.4c2.5,5.6,0.1,12.1-5.5,14.7c-1.8,0.8-3.8,1.1-5.8,0.9
		l-2.2-0.3L421.3,260.4z"/>
</g>
</svg>
